<svg width="85" height="171" viewBox="0 0 85 171" fill="none" xmlns="http://www.w3.org/2000/svg">
<g filter="url(#filter0_ddi_4565_21248)">
<path d="M8.58594 37.3581V43.2645C8.58594 44.9301 8.72206 46.593 8.99298 48.2372L9.82586 53.2917C10.0968 54.9359 10.2329 56.5988 10.2329 58.2644L10.2329 101.145L8.76834 130.932C8.64732 133.393 8.87314 135.859 9.43936 138.259C11.1685 145.59 15.9606 151.861 22.6364 155.531L27.2297 158.056C36.7964 163.315 48.4498 163.315 58.0165 158.056L62.6098 155.531C69.2855 151.861 74.0777 145.59 75.8068 138.259C76.3731 135.859 76.5989 133.393 76.4779 130.932L75.0133 101.145V58.2644C75.0133 56.5988 75.1494 54.9359 75.4203 53.2917L76.2532 48.2372C76.5241 46.593 76.6603 44.9301 76.6603 43.2645V37.3581C76.6603 34.708 76.1078 32.0861 75.0371 29.6545C73.7597 26.7534 71.7802 22.0429 69.2715 20.0678C69.2715 20.0678 61.2886 12 42.6231 12C23.9576 12 15.9747 20.0678 15.9747 20.0678C13.466 22.0429 11.4865 26.7534 10.2091 29.6545C9.13837 32.0861 8.58594 34.708 8.58594 37.3581Z" fill="white"/>
<path d="M8.58594 37.3581V43.2645C8.58594 44.9301 8.72206 46.593 8.99298 48.2372L9.82586 53.2917C10.0968 54.9359 10.2329 56.5988 10.2329 58.2644L10.2329 101.145L8.76834 130.932C8.64732 133.393 8.87314 135.859 9.43936 138.259C11.1685 145.59 15.9606 151.861 22.6364 155.531L27.2297 158.056C36.7964 163.315 48.4498 163.315 58.0165 158.056L62.6098 155.531C69.2855 151.861 74.0777 145.59 75.8068 138.259C76.3731 135.859 76.5989 133.393 76.4779 130.932L75.0133 101.145V58.2644C75.0133 56.5988 75.1494 54.9359 75.4203 53.2917L76.2532 48.2372C76.5241 46.593 76.6603 44.9301 76.6603 43.2645V37.3581C76.6603 34.708 76.1078 32.0861 75.0371 29.6545C73.7597 26.7534 71.7802 22.0429 69.2715 20.0678C69.2715 20.0678 61.2886 12 42.6231 12C23.9576 12 15.9747 20.0678 15.9747 20.0678C13.466 22.0429 11.4865 26.7534 10.2091 29.6545C9.13837 32.0861 8.58594 34.708 8.58594 37.3581Z" fill="url(#paint0_diamond_4565_21248)"/>
<path d="M8.58594 37.3581V43.2645C8.58594 44.9301 8.72206 46.593 8.99298 48.2372L9.82586 53.2917C10.0968 54.9359 10.2329 56.5988 10.2329 58.2644L10.2329 101.145L8.76834 130.932C8.64732 133.393 8.87314 135.859 9.43936 138.259C11.1685 145.59 15.9606 151.861 22.6364 155.531L27.2297 158.056C36.7964 163.315 48.4498 163.315 58.0165 158.056L62.6098 155.531C69.2855 151.861 74.0777 145.59 75.8068 138.259C76.3731 135.859 76.5989 133.393 76.4779 130.932L75.0133 101.145V58.2644C75.0133 56.5988 75.1494 54.9359 75.4203 53.2917L76.2532 48.2372C76.5241 46.593 76.6603 44.9301 76.6603 43.2645V37.3581C76.6603 34.708 76.1078 32.0861 75.0371 29.6545C73.7597 26.7534 71.7802 22.0429 69.2715 20.0678C69.2715 20.0678 61.2886 12 42.6231 12C23.9576 12 15.9747 20.0678 15.9747 20.0678C13.466 22.0429 11.4865 26.7534 10.2091 29.6545C9.13837 32.0861 8.58594 34.708 8.58594 37.3581Z" fill="url(#paint1_diamond_4565_21248)"/>
</g>
<path d="M61.7442 81.4474L69.2053 55.8663C69.6331 54.3998 69.7408 52.861 69.5216 51.3507C69.5216 51.3507 69.5216 40.0938 42.6793 40.0938C15.8371 40.0938 15.8371 51.3507 15.8371 51.3507C15.6178 52.861 15.7256 54.3998 16.1533 55.8663L23.6145 81.4474C23.8796 82.3565 24.0282 83.2947 24.0568 84.2401L25.2745 124.505C25.3465 126.883 26.3087 129.152 27.9765 130.876C29.8281 132.789 32.3957 133.872 35.0806 133.872H42.6793H50.2781C52.963 133.872 55.5305 132.789 57.3822 130.876C59.05 129.152 60.0122 126.883 60.0841 124.505L61.3018 84.2401C61.3304 83.2947 61.479 82.3565 61.7442 81.4474Z" fill="black"/>
<path d="M61.7442 81.4474L69.2053 55.8663C69.6331 54.3998 69.7408 52.861 69.5216 51.3507C69.5216 51.3507 69.5216 40.0938 42.6793 40.0938C15.8371 40.0938 15.8371 51.3507 15.8371 51.3507C15.6178 52.861 15.7256 54.3998 16.1533 55.8663L23.6145 81.4474C23.8796 82.3565 24.0282 83.2947 24.0568 84.2401L25.2745 124.505C25.3465 126.883 26.3087 129.152 27.9765 130.876C29.8281 132.789 32.3957 133.872 35.0806 133.872H42.6793H50.2781C52.963 133.872 55.5305 132.789 57.3822 130.876C59.05 129.152 60.0122 126.883 60.0841 124.505L61.3018 84.2401C61.3304 83.2947 61.479 82.3565 61.7442 81.4474Z" fill="url(#paint2_diamond_4565_21248)"/>
<path d="M61.7442 81.4474L69.2053 55.8663C69.6331 54.3998 69.7408 52.861 69.5216 51.3507C69.5216 51.3507 69.5216 40.0938 42.6793 40.0938C15.8371 40.0938 15.8371 51.3507 15.8371 51.3507C15.6178 52.861 15.7256 54.3998 16.1533 55.8663L23.6145 81.4474C23.8796 82.3565 24.0282 83.2947 24.0568 84.2401L25.2745 124.505C25.3465 126.883 26.3087 129.152 27.9765 130.876C29.8281 132.789 32.3957 133.872 35.0806 133.872H42.6793H50.2781C52.963 133.872 55.5305 132.789 57.3822 130.876C59.05 129.152 60.0122 126.883 60.0841 124.505L61.3018 84.2401C61.3304 83.2947 61.479 82.3565 61.7442 81.4474Z" fill="url(#paint3_diamond_4565_21248)"/>
<path d="M61.7442 81.4474L69.2053 55.8663C69.6331 54.3998 69.7408 52.861 69.5216 51.3507C69.5216 51.3507 69.5216 40.0938 42.6793 40.0938C15.8371 40.0938 15.8371 51.3507 15.8371 51.3507C15.6178 52.861 15.7256 54.3998 16.1533 55.8663L23.6145 81.4474C23.8796 82.3565 24.0282 83.2947 24.0568 84.2401L25.2745 124.505C25.3465 126.883 26.3087 129.152 27.9765 130.876C29.8281 132.789 32.3957 133.872 35.0806 133.872H42.6793H50.2781C52.963 133.872 55.5305 132.789 57.3822 130.876C59.05 129.152 60.0122 126.883 60.0841 124.505L61.3018 84.2401C61.3304 83.2947 61.479 82.3565 61.7442 81.4474Z" fill="url(#paint4_diamond_4565_21248)"/>
<g filter="url(#filter1_d_4565_21248)">
<path fill-rule="evenodd" clip-rule="evenodd" d="M14.5281 140.912C14.4118 141.188 14.3498 141.488 14.3516 141.798C14.3603 143.285 14.8148 144.748 15.7666 145.906C16.8251 147.194 18.1609 148.636 19.7909 150.07C24.6499 154.345 32.1453 158.566 42.6244 158.41C53.1034 158.566 60.5988 154.345 65.4578 150.07C67.0879 148.636 68.4236 147.194 69.4821 145.906C70.434 144.748 70.8884 143.285 70.8971 141.798C70.8989 141.488 70.837 141.188 70.7207 140.912C70.5077 141.843 70.0996 142.723 69.4821 143.474C68.4236 144.762 67.0879 146.204 65.4578 147.638C60.5988 151.913 53.1034 156.134 42.6244 155.978C32.1453 156.134 24.6499 151.913 19.7909 147.638C18.1609 146.204 16.8251 144.762 15.7666 143.474C15.1492 142.723 14.741 141.843 14.5281 140.912Z" fill="#FF3600"/>
<path fill-rule="evenodd" clip-rule="evenodd" d="M14.5281 140.912C14.4118 141.188 14.3498 141.488 14.3516 141.798C14.3603 143.285 14.8148 144.748 15.7666 145.906C16.8251 147.194 18.1609 148.636 19.7909 150.07C24.6499 154.345 32.1453 158.566 42.6244 158.41C53.1034 158.566 60.5988 154.345 65.4578 150.07C67.0879 148.636 68.4236 147.194 69.4821 145.906C70.434 144.748 70.8884 143.285 70.8971 141.798C70.8989 141.488 70.837 141.188 70.7207 140.912C70.5077 141.843 70.0996 142.723 69.4821 143.474C68.4236 144.762 67.0879 146.204 65.4578 147.638C60.5988 151.913 53.1034 156.134 42.6244 155.978C32.1453 156.134 24.6499 151.913 19.7909 147.638C18.1609 146.204 16.8251 144.762 15.7666 143.474C15.1492 142.723 14.741 141.843 14.5281 140.912Z" fill="url(#paint5_angular_4565_21248)" style="mix-blend-mode:overlay"/>
</g>
<path d="M18.9581 114.265C15.875 104.557 15.7678 76.9301 16.1645 62.3945C16.1792 61.8541 16.6218 61.4355 17.1624 61.4355H17.7995C18.2348 61.4355 18.6199 61.7143 18.7457 62.1311C19.7726 65.5339 21.7759 73.2742 23.0514 82.0819C24.291 90.6414 22.0602 105.712 20.43 114.101C20.2579 114.986 19.2311 115.125 18.9581 114.265Z" fill="#131313"/>
<path d="M18.9581 114.265C15.875 104.557 15.7678 76.9301 16.1645 62.3945C16.1792 61.8541 16.6218 61.4355 17.1624 61.4355H17.7995C18.2348 61.4355 18.6199 61.7143 18.7457 62.1311C19.7726 65.5339 21.7759 73.2742 23.0514 82.0819C24.291 90.6414 22.0602 105.712 20.43 114.101C20.2579 114.986 19.2311 115.125 18.9581 114.265Z" fill="url(#paint6_diamond_4565_21248)"/>
<path d="M66.5653 114.265C69.6484 104.557 69.7557 76.9301 69.359 62.3945C69.3442 61.8541 68.9017 61.4355 68.3611 61.4355H67.7239C67.2886 61.4355 66.9035 61.7143 66.7778 62.1311C65.7509 65.5339 63.7476 73.2742 62.472 82.0819C61.2325 90.6414 63.4633 105.712 65.0935 114.101C65.2655 114.986 66.2923 115.125 66.5653 114.265Z" fill="#131313"/>
<path d="M66.5653 114.265C69.6484 104.557 69.7557 76.9301 69.359 62.3945C69.3442 61.8541 68.9017 61.4355 68.3611 61.4355H67.7239C67.2886 61.4355 66.9035 61.7143 66.7778 62.1311C65.7509 65.5339 63.7476 73.2742 62.472 82.0819C61.2325 90.6414 63.4633 105.712 65.0935 114.101C65.2655 114.986 66.2923 115.125 66.5653 114.265Z" fill="url(#paint7_diamond_4565_21248)"/>
<path d="M82.7415 69.2423L70.4417 58.5205C69.3569 57.5749 67.662 57.9975 67.1482 59.3418L66.2867 61.596C65.9575 62.4575 66.8241 63.2921 67.6726 62.9307C68.0048 62.7892 68.3864 62.8292 68.6821 63.0364L71.3051 64.8751C72.104 65.4352 72.5797 66.3496 72.5797 67.3252C72.5797 68.7094 73.5291 69.9129 74.8752 70.2351L81.4217 71.8024C82.3541 72.0256 83.25 71.3189 83.25 70.3602C83.25 69.9316 83.0646 69.5239 82.7415 69.2423Z" fill="black"/>
<path d="M2.50852 69.2423L14.8083 58.5205C15.8931 57.5749 17.588 57.9975 18.1018 59.3418L18.9633 61.596C19.2925 62.4575 18.4259 63.2921 17.5774 62.9307C17.2452 62.7892 16.8636 62.8292 16.5679 63.0364L13.9449 64.8751C13.146 65.4352 12.6703 66.3496 12.6703 67.3252C12.6703 68.7094 11.7209 69.9129 10.3748 70.2351L3.82827 71.8024C2.89594 72.0256 2 71.3189 2 70.3602C2 69.9316 2.18544 69.5239 2.50852 69.2423Z" fill="black"/>
<defs>
<filter id="filter0_ddi_4565_21248" x="0.585938" y="0" width="84.0781" height="168" filterUnits="userSpaceOnUse" color-interpolation-filters="sRGB">
<feFlood flood-opacity="0" result="BackgroundImageFix"/>
<feColorMatrix in="SourceAlpha" type="matrix" values="0 0 0 0 0 0 0 0 0 0 0 0 0 0 0 0 0 0 127 0" result="hardAlpha"/>
<feOffset dy="-4"/>
<feGaussianBlur stdDeviation="4"/>
<feColorMatrix type="matrix" values="0 0 0 0 0 0 0 0 0 0 0 0 0 0 0 0 0 0 0.25 0"/>
<feBlend mode="normal" in2="BackgroundImageFix" result="effect1_dropShadow_4565_21248"/>
<feColorMatrix in="SourceAlpha" type="matrix" values="0 0 0 0 0 0 0 0 0 0 0 0 0 0 0 0 0 0 127 0" result="hardAlpha"/>
<feOffset dy="3"/>
<feGaussianBlur stdDeviation="1.5"/>
<feColorMatrix type="matrix" values="0 0 0 0 0 0 0 0 0 0 0 0 0 0 0 0 0 0 0.25 0"/>
<feBlend mode="normal" in2="effect1_dropShadow_4565_21248" result="effect2_dropShadow_4565_21248"/>
<feBlend mode="normal" in="SourceGraphic" in2="effect2_dropShadow_4565_21248" result="shape"/>
<feColorMatrix in="SourceAlpha" type="matrix" values="0 0 0 0 0 0 0 0 0 0 0 0 0 0 0 0 0 0 127 0" result="hardAlpha"/>
<feOffset dy="-1"/>
<feGaussianBlur stdDeviation="2.5"/>
<feComposite in2="hardAlpha" operator="arithmetic" k2="-1" k3="1"/>
<feColorMatrix type="matrix" values="0 0 0 0 0 0 0 0 0 0 0 0 0 0 0 0 0 0 0.25 0"/>
<feBlend mode="normal" in2="shape" result="effect3_innerShadow_4565_21248"/>
</filter>
<filter id="filter1_d_4565_21248" x="2.35156" y="128.912" width="80.5469" height="41.502" filterUnits="userSpaceOnUse" color-interpolation-filters="sRGB">
<feFlood flood-opacity="0" result="BackgroundImageFix"/>
<feColorMatrix in="SourceAlpha" type="matrix" values="0 0 0 0 0 0 0 0 0 0 0 0 0 0 0 0 0 0 127 0" result="hardAlpha"/>
<feOffset/>
<feGaussianBlur stdDeviation="6"/>
<feColorMatrix type="matrix" values="0 0 0 0 0.92549 0 0 0 0 0.32549 0 0 0 0 0.294118 0 0 0 0.3 0"/>
<feBlend mode="normal" in2="BackgroundImageFix" result="effect1_dropShadow_4565_21248"/>
<feBlend mode="normal" in="SourceGraphic" in2="effect1_dropShadow_4565_21248" result="shape"/>
</filter>
<radialGradient id="paint0_diamond_4565_21248" cx="0" cy="0" r="1" gradientUnits="userSpaceOnUse" gradientTransform="translate(56.3478 66.8375) rotate(98.2068) scale(96.1471 43.6063)">
<stop stop-opacity="0.22"/>
<stop offset="1" stop-color="white" stop-opacity="0"/>
</radialGradient>
<radialGradient id="paint1_diamond_4565_21248" cx="0" cy="0" r="1" gradientUnits="userSpaceOnUse" gradientTransform="translate(42.6231 87) rotate(90) scale(75 34.0372)">
<stop/>
<stop offset="1" stop-color="white" stop-opacity="0"/>
</radialGradient>
<radialGradient id="paint2_diamond_4565_21248" cx="0" cy="0" r="1" gradientUnits="userSpaceOnUse" gradientTransform="translate(53.8811 84.5311) rotate(102.791) scale(50.5966 29.039)">
<stop stop-color="white" stop-opacity="0.19"/>
<stop offset="1" stop-color="white" stop-opacity="0"/>
</radialGradient>
<radialGradient id="paint3_diamond_4565_21248" cx="0" cy="0" r="1" gradientUnits="userSpaceOnUse" gradientTransform="translate(25.8828 69.9437) rotate(71.2882) scale(25.669 14.7072)">
<stop stop-color="white" stop-opacity="0.17"/>
<stop offset="1" stop-color="white" stop-opacity="0"/>
</radialGradient>
<radialGradient id="paint4_diamond_4565_21248" cx="0" cy="0" r="1" gradientUnits="userSpaceOnUse" gradientTransform="translate(35.4901 117.353) rotate(66.4814) scale(18.0161 10.304)">
<stop stop-color="white" stop-opacity="0.22"/>
<stop offset="1" stop-color="white" stop-opacity="0"/>
</radialGradient>
<radialGradient id="paint5_angular_4565_21248" cx="0" cy="0" r="1" gradientUnits="userSpaceOnUse" gradientTransform="translate(42.6244 149.663) rotate(90) scale(8.75078 28.2728)">
<stop stop-color="white" stop-opacity="0"/>
<stop offset="1" stop-color="white" stop-opacity="0.1"/>
</radialGradient>
<radialGradient id="paint6_diamond_4565_21248" cx="0" cy="0" r="1" gradientUnits="userSpaceOnUse" gradientTransform="translate(19.7057 88.9894) rotate(90) scale(27.5538 3.70566)">
<stop stop-color="white" stop-opacity="0.12"/>
<stop offset="1" stop-color="white" stop-opacity="0"/>
</radialGradient>
<radialGradient id="paint7_diamond_4565_21248" cx="0" cy="0" r="1" gradientUnits="userSpaceOnUse" gradientTransform="translate(65.8178 88.9894) rotate(90) scale(27.5538 3.70566)">
<stop stop-color="white" stop-opacity="0.12"/>
<stop offset="1" stop-color="white" stop-opacity="0"/>
</radialGradient>
</defs>
</svg>
