<svg width="24" height="24" viewBox="0 0 24 24" fill="none" xmlns="http://www.w3.org/2000/svg">
<circle cx="12" cy="12" r="11.5" fill="#3C3C3C" stroke="white"/>
<path d="M12 5.25C10.6076 5.25 9.27226 5.80312 8.28769 6.78769C7.30312 7.77226 6.75 9.10761 6.75 10.5C6.75 14.75 12 18.75 12 18.75C12 18.75 17.25 14.75 17.25 10.5C17.25 9.10761 16.6969 7.77226 15.7123 6.78769C14.7277 5.80312 13.3924 5.25 12 5.25ZM12 13C11.5055 13 11.0222 12.8534 10.6111 12.5787C10.2 12.304 9.87952 11.9135 9.6903 11.4567C9.50108 10.9999 9.45157 10.4972 9.54804 10.0123C9.6445 9.52732 9.8826 9.08186 10.2322 8.73223C10.5819 8.3826 11.0273 8.1445 11.5123 8.04804C11.9972 7.95157 12.4999 8.00108 12.9567 8.1903C13.4135 8.37952 13.804 8.69995 14.0787 9.11107C14.3534 9.5222 14.5 10.0055 14.5 10.5C14.5 11.163 14.2366 11.7989 13.7678 12.2678C13.2989 12.7366 12.663 13 12 13Z" fill="white"/>
</svg>
