<svg width="180" height="180" viewBox="0 0 180 180" fill="none" xmlns="http://www.w3.org/2000/svg">
<path d="M159.81 119.264H94.7405C94.1813 119.264 93.6452 119.041 93.2498 118.646C92.8544 118.25 92.6318 117.714 92.6309 117.155V22.3777C92.6318 21.8185 92.8544 21.2824 93.2498 20.887C93.6452 20.4916 94.1813 20.269 94.7405 20.2681H159.81C160.37 20.269 160.906 20.4916 161.301 20.887C161.697 21.2824 161.919 21.8185 161.92 22.3777V117.155C161.919 117.714 161.697 118.25 161.301 118.646C160.906 119.041 160.37 119.264 159.81 119.264ZM94.7405 20.3581C94.2048 20.3581 93.6911 20.5708 93.3124 20.9496C92.9336 21.3283 92.7209 21.842 92.7209 22.3777V117.155C92.7209 117.42 92.7731 117.683 92.8746 117.928C92.9761 118.173 93.1248 118.395 93.3124 118.583C93.4999 118.77 93.7226 118.919 93.9676 119.021C94.2126 119.122 94.4752 119.174 94.7405 119.174H159.81C160.076 119.174 160.338 119.122 160.583 119.021C160.828 118.919 161.051 118.77 161.239 118.583C161.426 118.395 161.575 118.173 161.676 117.928C161.778 117.683 161.83 117.42 161.83 117.155V22.3777C161.83 21.842 161.617 21.3283 161.239 20.9496C160.86 20.5708 160.346 20.3581 159.81 20.3581H94.7405Z" fill="#E0E0E0"/>
<path d="M84.7773 119.264H19.7109C19.151 119.264 18.6141 119.042 18.2179 118.647C17.8217 118.251 17.5986 117.715 17.5977 117.155V22.3777C17.5986 21.8178 17.8217 21.2813 18.2179 20.8857C18.6141 20.4902 19.151 20.2681 19.7109 20.2681H84.7773C85.3368 20.2681 85.8733 20.4903 86.269 20.886C86.6646 21.2816 86.8869 21.8182 86.8869 22.3777V117.155C86.8869 117.714 86.6646 118.251 86.269 118.647C85.8733 119.042 85.3368 119.264 84.7773 119.264ZM19.7109 20.3581C19.1749 20.3581 18.6608 20.5707 18.2815 20.9494C17.9022 21.328 17.6886 21.8417 17.6877 22.3777V117.155C17.6924 117.688 17.9077 118.198 18.2866 118.574C18.6655 118.949 19.1774 119.16 19.7109 119.16H84.7773C85.0425 119.16 85.3051 119.108 85.5501 119.006C85.7952 118.905 86.0178 118.756 86.2053 118.569C86.3929 118.381 86.5416 118.158 86.6431 117.913C86.7446 117.668 86.7969 117.406 86.7969 117.14V22.3777C86.7969 22.1124 86.7446 21.8498 86.6431 21.6048C86.5416 21.3598 86.3929 21.1371 86.2053 20.9496C86.0178 20.7621 85.7952 20.6133 85.5501 20.5118C85.3051 20.4103 85.0425 20.3581 84.7773 20.3581H19.7109Z" fill="#E0E0E0"/>
<path d="M180 141.25H0V141.34H180V141.25Z" fill="#E0E0E0"/>
<path d="M79.6067 145.12H60.3359V145.21H79.6067V145.12Z" fill="#E0E0E0"/>
<path d="M36.802 149.439H23.752V149.529H36.802V149.439Z" fill="#E0E0E0"/>
<path d="M150.761 145.073H135.213V145.163H150.761V145.073Z" fill="#E0E0E0"/>
<path d="M156.248 145.073H153.969V145.163H156.248V145.073Z" fill="#E0E0E0"/>
<path d="M132.242 147.315H112.842V147.405H132.242V147.315Z" fill="#E0E0E0"/>
<path d="M24.6664 145.991H18.8848V146.081H24.6664V145.991Z" fill="#E0E0E0"/>
<path d="M46.4573 53.4995L30.5633 47.4443L14.6693 53.4995C14.3669 54.1043 14.6693 79.6859 30.5633 85.4387C46.4573 79.6859 46.7597 54.1043 46.4573 53.4995Z" fill="#E0E0E0"/>
<path d="M43.7468 55.7065L30.5636 50.6665L17.3804 55.7065C17.1284 56.2069 17.3804 77.4289 30.5636 82.2025C43.7468 77.4289 43.9988 56.2069 43.7468 55.7065Z" fill="#F0F0F0"/>
<path d="M30.7593 71.406L24.5312 66.564L26.2232 64.3896L30.3993 67.6368L36.3716 60.8076L38.4452 62.6184L30.7593 71.406Z" fill="white"/>
<path d="M17.2617 167.152H29.3253L31.6905 141.109H14.8965L17.2617 167.152Z" fill="#E0E0E0"/>
<path d="M23.1161 145.44C23.4509 134.575 20.7833 112.158 16.4453 103.442L16.7441 103.298C21.2405 112.37 23.7605 134.676 23.4617 145.44H23.1161Z" fill="#E0E0E0"/>
<path d="M26.975 110.61C22.8962 113.807 21.791 124.239 21.791 124.239C24.6818 119.462 29.1602 117.194 26.975 110.61Z" fill="#E0E0E0"/>
<path d="M21.7439 124.398C21.7077 124.387 21.6767 124.364 21.6562 124.332C21.6357 124.3 21.6273 124.262 21.6323 124.225C21.6755 123.797 22.7879 113.688 26.8739 110.48C26.8942 110.464 26.9183 110.452 26.944 110.447C26.9698 110.442 26.9964 110.444 27.0215 110.451C27.0476 110.459 27.0716 110.472 27.0911 110.491C27.1105 110.51 27.125 110.534 27.1331 110.559C28.7747 115.502 26.7371 118.044 24.3791 120.981C23.4893 122.04 22.6727 123.157 21.9347 124.326C21.9199 124.351 21.8988 124.371 21.8735 124.385C21.8481 124.399 21.8195 124.406 21.7907 124.405L21.7439 124.398ZM22.0571 123.516C22.7123 122.519 23.4251 121.633 24.1127 120.773C26.3771 117.954 28.3355 115.513 26.8883 110.891C23.6771 113.645 22.3775 121.126 22.0571 123.516Z" fill="#E0E0E0"/>
<path d="M11.8359 108.943C16.7175 110.643 21.0555 120.287 21.0555 120.287C16.7751 116.705 11.9007 115.873 11.8359 108.943Z" fill="#E0E0E0"/>
<path d="M21.0708 120.42C20.03 119.576 18.9396 118.794 17.8056 118.08C14.6124 115.999 11.8476 114.199 11.8008 108.929C11.8019 108.903 11.8089 108.877 11.8214 108.854C11.8339 108.831 11.8515 108.811 11.8728 108.796C11.8943 108.78 11.9193 108.77 11.9457 108.766C11.972 108.762 11.9989 108.765 12.024 108.774C16.9308 110.484 21.1608 119.819 21.3372 120.215C21.3425 120.238 21.3425 120.263 21.3372 120.287C21.3362 120.33 21.3184 120.371 21.2874 120.401C21.2565 120.432 21.2149 120.449 21.1716 120.449C21.136 120.448 21.1012 120.438 21.0708 120.42ZM18 117.806C18.8964 118.39 19.818 118.991 20.7288 119.7C19.6704 117.54 16.0884 110.758 12.1464 109.177C12.2688 114.077 14.9256 115.805 18 117.806Z" fill="#E0E0E0"/>
<path d="M29.9312 120.571C24.866 124.409 23.1992 138.931 23.1992 138.931C26.8388 133.135 32.4656 128.689 29.9312 120.571Z" fill="#E0E0E0"/>
<path d="M23.1303 139.115C23.0861 139.099 23.0486 139.068 23.0238 139.029C22.9989 138.989 22.9883 138.942 22.9935 138.895C23.0655 138.297 24.7359 124.254 29.8047 120.416C29.831 120.396 29.8617 120.383 29.8943 120.377C29.9269 120.371 29.9604 120.374 29.9919 120.384C30.0237 120.393 30.0527 120.409 30.0761 120.433C30.0994 120.456 30.1163 120.485 30.1251 120.517C32.1483 126.997 29.1063 131.094 25.8843 135.45C25.0383 136.602 24.1491 137.793 23.3643 139.028C23.3464 139.058 23.3209 139.082 23.2906 139.098C23.2602 139.115 23.226 139.123 23.1915 139.122L23.1303 139.115ZM23.5191 138.035C24.1743 137.055 24.8871 136.112 25.5567 135.191C28.6635 130.989 31.6047 127.015 29.8227 120.913C25.7727 124.319 23.9763 134.895 23.5191 138.049V138.035Z" fill="#E0E0E0"/>
<path d="M11.0202 118.562C16.9746 120.755 22.6122 131.098 22.6122 131.098C17.4534 126.616 10.941 127.059 11.0202 118.562Z" fill="#E0E0E0"/>
<path d="M22.4777 131.252C20.8829 129.866 19.1801 128.97 17.5277 128.099C13.8953 126.184 10.7561 124.528 10.7993 118.562C10.7986 118.529 10.8063 118.496 10.8215 118.466C10.8367 118.437 10.8591 118.411 10.8865 118.392C10.914 118.374 10.9457 118.362 10.9789 118.358C11.012 118.355 11.0456 118.359 11.0765 118.372C17.0345 120.571 22.5533 130.572 22.7801 130.997C22.8044 131.038 22.8131 131.086 22.8045 131.133C22.7959 131.18 22.7706 131.223 22.7333 131.252C22.7154 131.269 22.6943 131.281 22.6714 131.289C22.6486 131.298 22.6243 131.301 22.6001 131.299C22.5556 131.296 22.5131 131.28 22.4777 131.252ZM11.2205 118.861C11.2781 124.34 14.2661 125.917 17.7329 127.739C19.1872 128.456 20.5792 129.293 21.8945 130.241C20.3501 127.692 15.8753 120.784 11.2205 118.861Z" fill="#E0E0E0"/>
<path d="M23.5688 104.18C20.7247 106.412 19.9688 113.688 19.9688 113.688C21.9596 110.358 25.0951 108.774 23.5688 104.18Z" fill="#E0E0E0"/>
<path d="M19.9046 113.796C19.8799 113.787 19.8591 113.77 19.8453 113.748C19.8316 113.726 19.8258 113.699 19.829 113.674C19.8722 113.375 20.6498 106.322 23.4974 104.083C23.5129 104.072 23.5306 104.065 23.5493 104.062C23.568 104.059 23.5872 104.06 23.6054 104.065C23.6231 104.071 23.6393 104.08 23.6525 104.094C23.6656 104.107 23.6754 104.123 23.681 104.141C24.8258 107.59 23.4038 109.361 21.755 111.413C21.1378 112.157 20.5702 112.941 20.0558 113.76C20.0452 113.776 20.0308 113.79 20.0139 113.799C19.9969 113.808 19.9779 113.814 19.9586 113.814C19.9391 113.814 19.9203 113.807 19.9046 113.796ZM20.1386 113.184C20.5994 112.489 21.0926 111.87 21.5786 111.269C23.159 109.303 24.5162 107.604 23.5154 104.378C21.2726 106.304 20.3762 111.521 20.1386 113.184Z" fill="#E0E0E0"/>
<path d="M18.5588 108.86C17.8329 108.273 17.0719 107.731 16.28 107.237C14.048 105.797 12.1184 104.526 12.086 100.854C12.0856 100.835 12.0901 100.816 12.0989 100.799C12.1077 100.782 12.1205 100.768 12.1364 100.757C12.1535 100.75 12.1718 100.746 12.1904 100.746C12.2089 100.746 12.2272 100.75 12.2444 100.757C15.6608 101.956 18.6128 108.464 18.7424 108.742C18.7511 108.766 18.752 108.793 18.7449 108.818C18.7378 108.843 18.7231 108.866 18.7028 108.882C18.683 108.897 18.6589 108.904 18.6344 108.904C18.6194 108.902 18.605 108.897 18.592 108.89C18.579 108.883 18.5677 108.873 18.5588 108.86Z" fill="#E0E0E0"/>
<path d="M160.383 36.5108C162.339 25.118 154.69 14.2964 143.297 12.3401C131.904 10.3837 121.083 18.0335 119.126 29.4263C117.17 40.819 124.82 51.6406 136.212 53.5969C147.605 55.5533 158.427 47.9035 160.383 36.5108Z" fill="#F0F0F0"/>
<path d="M124.75 43.7437V43.5637L124.43 43.2793L124.419 42.6097L124.725 42.3649L124.718 41.9905L124.963 41.9293L124.999 41.6593L125.582 41.7781L124.83 40.8673L124.43 41.0077L124.059 40.7593L124.142 40.4425L123.814 40.2301L124.326 39.7405L124.423 39.3589L125.031 39.0349L124.786 38.5201L125.01 38.3725L125.002 38.0161L125.73 38.2069L125.902 38.5057L126.622 39.3409L126.702 39.8917L126.91 40.2553L126.921 40.5253L127.155 40.7629L127.173 41.4829L126.95 41.5873L126.954 41.7601L126.734 42.1165L126.352 43.4089L125.91 43.4341L125.715 43.7473L124.75 43.7437Z" fill="#E6E6E6"/>
<path d="M133.621 16.0814L133.844 15.8258L134.273 14.8178L134.553 14.9942L134.665 14.861L134.348 14.4038L134.589 14.0618L134.568 13.8458L134.989 13.6226L135.806 13.8314L136.094 13.835L136.26 13.997L136.987 13.8422L136.994 14.141L137.322 14.2274L137.019 14.9114L136.731 15.2318L136.847 15.581L135.727 16.3586L135.529 16.5782L134.636 16.5314L134.51 16.8554L134.121 16.9598L133.621 16.0814Z" fill="#E6E6E6"/>
<path d="M143.894 17.9424L144.265 17.6616L144.92 17.8344L144.755 18.4752L144.121 18.9972L143.729 18.5832L143.894 17.9424Z" fill="#E6E6E6"/>
<path d="M149.244 21.8842L149.431 21.7366L149.525 21.5242L149.784 21.319L149.982 21.2974L150.187 21.1318L150.299 21.3766L150.652 21.517L150.706 22.2622L151.386 22.2586L151.426 22.8166L151.213 22.9246L151.163 23.1298L150.583 22.9786L150.259 23.1586L150.382 23.3278L150.252 23.407L150.313 23.497L149.939 23.6914L149.889 23.623L149.755 23.7022L149.475 23.587L149.201 23.7418L149.068 23.6014L148.87 23.6554L148.747 23.2486L148.204 23.1082L148.11 22.975L147.822 22.8994L147.387 22.291L147.426 22.021L147.271 21.8086L147.502 21.5998L147.815 21.6394L148.063 21.7906L148.251 21.769L148.524 21.8878L148.672 22.1722L148.816 22.1002L148.989 22.1578L149.244 21.8842Z" fill="#E6E6E6"/>
<path d="M157.275 29.0161L158.276 28.7749L159.061 29.1673L159.522 30.0817L159.403 30.4705L159.558 30.7909L159.389 31.4461L159.119 31.3957L158.877 31.7341L158.003 31.5073L158.229 30.6325L157.545 30.3157L157.542 29.4661L157.275 29.0161Z" fill="#E6E6E6"/>
<path d="M146.192 20.5308L146.747 21.1104L146.491 22.104L145.692 22.4568L145.602 22.2912L145.357 22.2588L145.155 21.4848L145.029 21.2544L145.198 21.1536L145.296 20.9016L145.807 20.5812L146.073 20.6064L146.192 20.5308Z" fill="#E6E6E6"/>
<path d="M130.977 16.5816L132.068 16.4268L132.486 16.7544L132.605 18L132.335 17.9928L131.863 18.252L131.211 18.2232L131.01 17.9388L130.632 17.9244L129.861 17.2872L130.322 16.6284L130.707 16.7544L130.977 16.5816Z" fill="#E6E6E6"/>
<path d="M138.992 13.8022L139.748 14.2486L140.043 15.2674L139.223 15.667L138.143 15.3862L138.445 14.2198L138.992 13.8022Z" fill="#E6E6E6"/>
<path d="M154.018 167.433C154.018 168.653 123.961 169.639 86.8851 169.639C49.8087 169.639 19.7559 168.653 19.7559 167.433C19.7559 166.212 49.8123 165.24 86.8851 165.24C123.958 165.24 154.018 166.212 154.018 167.433Z" fill="#F5F5F5"/>
<path d="M158.49 66.9384C158.944 65.6963 159.051 64.3535 158.797 63.0554C158.544 61.7572 157.941 60.553 157.052 59.573C156.164 58.593 155.025 57.8746 153.757 57.4954C152.49 57.1162 151.144 57.0907 149.863 57.4216C148.582 57.7525 147.417 58.4273 146.492 59.3729C145.567 60.3185 144.918 61.499 144.616 62.7867C144.314 64.0743 144.369 65.4201 144.776 66.6785C145.184 67.9369 145.927 69.0601 146.927 69.9264L146.955 72.0864L149.079 71.2044L149.191 71.2512C150.996 71.9107 152.989 71.827 154.733 71.0184C156.476 70.2098 157.827 68.7424 158.49 66.9384Z" fill="#2F2F2F"/>
<path d="M159.664 62.9998C159.642 62.9999 159.621 62.9918 159.605 62.9771C159.589 62.9624 159.579 62.9423 159.577 62.9206C159.441 61.7608 159.021 60.6523 158.356 59.6926C157.69 58.7328 156.8 57.9511 155.761 57.4162C155.741 57.4054 155.725 57.387 155.718 57.3648C155.71 57.3427 155.712 57.3185 155.722 57.2974C155.727 57.2864 155.734 57.2765 155.743 57.2683C155.752 57.2601 155.762 57.2538 155.774 57.2498C155.785 57.2457 155.797 57.244 155.809 57.2448C155.822 57.2456 155.833 57.2488 155.844 57.2542C156.909 57.8034 157.822 58.6058 158.504 59.5907C159.185 60.5756 159.615 61.7129 159.754 62.9026C159.755 62.9143 159.754 62.9261 159.751 62.9374C159.748 62.9486 159.742 62.9592 159.735 62.9682C159.728 62.9773 159.718 62.9848 159.708 62.9903C159.698 62.9957 159.686 62.9989 159.675 62.9998H159.664Z" fill="#2F2F2F"/>
<path d="M159.71 65.1598H159.688C159.666 65.1539 159.646 65.1392 159.634 65.119C159.622 65.0988 159.618 65.0747 159.624 65.0518C159.703 64.7129 159.713 64.3614 159.652 64.0186C159.65 64.007 159.65 63.9949 159.652 63.9833C159.654 63.9716 159.659 63.9605 159.666 63.9507C159.672 63.9409 159.681 63.9326 159.691 63.9263C159.701 63.92 159.713 63.9159 159.724 63.9142C159.736 63.9116 159.748 63.9114 159.76 63.9137C159.771 63.916 159.782 63.9206 159.792 63.9274C159.802 63.9341 159.81 63.9429 159.817 63.953C159.823 63.9631 159.827 63.9744 159.829 63.9862C159.894 64.3541 159.883 64.7315 159.796 65.095C159.791 65.1137 159.78 65.1301 159.764 65.1418C159.748 65.1535 159.729 65.1598 159.71 65.1598Z" fill="#2F2F2F"/>
<path d="M151.559 67.6333L148.236 65.1565L149.1 63.9973L151.329 65.6569L154.392 62.0029L155.501 62.9317L151.559 67.6333Z" fill="white"/>
<path d="M130.281 30.042H38.3154C36.8382 30.042 35.6406 31.2395 35.6406 32.7168V162.99C35.6406 164.467 36.8382 165.665 38.3154 165.665H130.281C131.758 165.665 132.956 164.467 132.956 162.99V32.7168C132.956 31.2395 131.758 30.042 130.281 30.042Z" fill="#2F2F2F"/>
<path opacity="0.3" d="M129.421 43.5674H39.1758V160.593H129.421V43.5674Z" fill="#888888"/>
<path d="M129.583 35.021H39.3379V157.018H129.583V35.021Z" fill="white"/>
<path d="M51.1567 44.5503H57.7447C58.1696 44.5503 58.577 44.7191 58.8775 45.0195C59.1779 45.3199 59.3467 45.7274 59.3467 46.1523V52.7403C59.3467 53.1642 59.1783 53.5708 58.8785 53.8705C58.5788 54.1703 58.1722 54.3387 57.7483 54.3387H51.1567C50.7318 54.3387 50.3243 54.1699 50.0239 53.8695C49.7235 53.569 49.5547 53.1616 49.5547 52.7367V46.1523C49.5542 45.9418 49.5953 45.7333 49.6757 45.5387C49.756 45.3441 49.874 45.1673 50.0229 45.0185C50.1717 44.8696 50.3485 44.7516 50.5431 44.6713C50.7376 44.5909 50.9462 44.5498 51.1567 44.5503Z" fill="#2F2F2F"/>
<path d="M119.038 59.7817H49.5547V63.5365H119.038V59.7817Z" fill="#E0E0E0"/>
<path d="M119.038 86.4292H49.5547V90.184H119.038V86.4292Z" fill="#E0E0E0"/>
<path d="M119.038 146.038H49.5547V149.792H119.038V146.038Z" fill="#E0E0E0"/>
<path d="M119.038 68.6055H49.5547V68.9655H119.038V68.6055Z" fill="#263238"/>
<path d="M119.038 74.4121H49.5547V74.7721H119.038V74.4121Z" fill="#263238"/>
<path d="M119.038 80.2227H49.5547V80.5827H119.038V80.2227Z" fill="#263238"/>
<path d="M119.038 96.9155H49.5547V97.2755H119.038V96.9155Z" fill="#263238"/>
<path d="M119.038 104.425H62.3594V104.785H119.038V104.425Z" fill="#263238"/>
<path d="M119.038 109.717H62.3594V110.077H119.038V109.717Z" fill="#263238"/>
<path d="M59.664 111.37H50.1348V101.841H59.664V111.37ZM50.4948 111.01H59.304V102.201H50.4948V111.01Z" fill="#263238"/>
<path d="M119.038 118.71H62.3594V119.07H119.038V118.71Z" fill="#263238"/>
<path d="M119.038 124.002H62.3594V124.362H119.038V124.002Z" fill="#263238"/>
<path d="M59.664 125.64H50.1348V116.125H59.664V125.64ZM50.4948 125.28H59.304V116.485H50.4948V125.28Z" fill="#263238"/>
<path d="M119.038 132.995H62.3594V133.355H119.038V132.995Z" fill="#263238"/>
<path d="M119.038 138.287H62.3594V138.647H119.038V138.287Z" fill="#263238"/>
<path d="M59.664 139.94H50.1348V130.407H59.664V139.94ZM50.4948 139.58H59.304V130.767H50.4948V139.58Z" fill="#263238"/>
<path d="M50.6818 47.8115C51.1426 47.2787 52.3306 47.6135 53.1478 48.0491C53.1478 48.0491 53.7094 48.3155 53.9182 48.4523L55.8262 48.2147C55.9807 48.1972 56.1369 48.2247 56.2762 48.2939L56.4346 48.3731C56.453 48.3813 56.4687 48.3947 56.4797 48.4117C56.4907 48.4286 56.4966 48.4484 56.4966 48.4685C56.4966 48.4887 56.4907 48.5085 56.4797 48.5254C56.4687 48.5424 56.453 48.5557 56.4346 48.5639L55.0306 49.1651L56.4166 50.0759H56.4382C56.6991 50.2446 57.0144 50.3076 57.3202 50.2523L58.0618 50.1191C58.0982 50.1084 58.1369 50.1084 58.1734 50.1191C58.2033 50.1312 58.2296 50.1509 58.2497 50.1761C58.2698 50.2014 58.283 50.2314 58.2881 50.2633C58.2932 50.2952 58.2899 50.3278 58.2786 50.3581C58.2674 50.3883 58.2485 50.4152 58.2238 50.4359L57.3634 51.1559C57.2973 51.2113 57.2167 51.2465 57.1311 51.2573C57.0456 51.2682 56.9588 51.2542 56.881 51.2171L56.4778 51.0335L54.4438 50.0615L54.6778 51.2243C54.6793 51.2356 54.6784 51.2471 54.6751 51.258C54.6719 51.2689 54.6663 51.2789 54.6588 51.2875C54.6512 51.296 54.642 51.3028 54.6316 51.3075C54.6212 51.3121 54.6099 51.3145 54.5986 51.3143H54.5014C54.4367 51.3103 54.374 51.2905 54.3187 51.2566C54.2635 51.2227 54.2174 51.1758 54.1846 51.1199L53.3638 49.5539L50.9626 48.4091C50.6386 48.2975 50.5234 48.0239 50.6818 47.8115Z" fill="white"/>
<path d="M56.077 110.247L51.0586 106.506L52.3618 104.757L55.7278 107.262L60.3538 101.747L62.0242 103.147L56.077 110.247Z" fill="#2F2F2F"/>
<path d="M56.077 124.222L51.0586 120.485L52.3618 118.732L55.7278 121.237L60.3538 115.722L62.0242 117.126L56.077 124.222Z" fill="#2F2F2F"/>
<path d="M65.274 47.6922V51.1602H64.44V47.6922H63.096V46.9062H66.618V47.6922H65.274ZM68.4788 49.5222H68.0468V51.1602H67.2128V46.9062H68.8748C69.0848 46.9062 69.2708 46.9422 69.4388 47.0082C69.6008 47.0742 69.7448 47.1702 69.8648 47.2842C69.9788 47.3982 70.0688 47.5362 70.1348 47.6982C70.2008 47.8602 70.2308 48.0282 70.2308 48.2142C70.2308 48.5142 70.1528 48.7722 69.9908 48.9822C69.8288 49.1922 69.6068 49.3422 69.3248 49.4202L70.2368 51.1602H69.3128L68.4788 49.5222ZM68.7188 48.8082C68.9288 48.8082 69.0968 48.7542 69.2108 48.6462C69.3248 48.5382 69.3848 48.3942 69.3848 48.2202C69.3848 48.0402 69.3248 47.8962 69.2108 47.7882C69.0968 47.6802 68.9288 47.6262 68.7188 47.6262H68.0468V48.8082H68.7188ZM70.9921 51.1602V46.9062H71.8321V51.1602H70.9921ZM74.3141 48.8442C74.5241 48.8442 74.6861 48.7902 74.8061 48.6762C74.9201 48.5682 74.9801 48.4242 74.9801 48.2382C74.9801 48.0462 74.9201 47.8962 74.8061 47.7882C74.6861 47.6802 74.5241 47.6262 74.3141 47.6262H73.6601V48.8442H74.3141ZM73.6541 49.5582V51.1602H72.8261V46.9062H74.4161C74.6261 46.9062 74.8121 46.9362 74.9861 47.0022C75.1601 47.0682 75.3041 47.1642 75.4301 47.2782C75.5561 47.3982 75.6521 47.5362 75.7181 47.6982C75.7841 47.8602 75.8141 48.0402 75.8141 48.2322C75.8141 48.4242 75.7841 48.6042 75.7181 48.7662C75.6521 48.9282 75.5561 49.0722 75.4301 49.1862C75.3041 49.3002 75.1601 49.3902 74.9861 49.4562C74.8121 49.5222 74.6261 49.5582 74.4161 49.5582H73.6541ZM79.2184 50.3922C79.3924 50.3922 79.5544 50.3622 79.7104 50.3082C79.8664 50.2542 80.0044 50.1762 80.1184 50.0622C80.2324 49.9482 80.3284 49.8102 80.3944 49.6362C80.4604 49.4682 80.4964 49.2702 80.4964 49.0362C80.4964 48.8022 80.4604 48.6042 80.3944 48.4302C80.3284 48.2622 80.2384 48.1242 80.1244 48.0102C80.0104 47.8962 79.8724 47.8122 79.7164 47.7582C79.5604 47.7042 79.3984 47.6742 79.2244 47.6742H78.5584V50.3922H79.2184ZM77.7304 51.1602V46.9062H79.2544C79.5604 46.9062 79.8364 46.9542 80.0944 47.0502C80.3524 47.1462 80.5744 47.2842 80.7604 47.4642C80.9464 47.6502 81.0904 47.8722 81.1984 48.1362C81.3004 48.4002 81.3544 48.7002 81.3544 49.0362C81.3544 49.3722 81.3004 49.6722 81.1984 49.9362C81.0904 50.2002 80.9404 50.4222 80.7544 50.6022C80.5684 50.7822 80.3464 50.9202 80.0884 51.0162C79.8304 51.1122 79.5544 51.1602 79.2484 51.1602H77.7304ZM82.1132 51.1602V46.9062H84.7772V47.6862H82.9412V48.6582H84.6032V49.3962H82.9412V50.3802H84.7772V51.1602H82.1132ZM87.3638 47.6922V51.1602H86.5298V47.6922H85.1858V46.9062H88.7078V47.6922H87.3638ZM91.4007 50.1882H89.6727L89.3187 51.1602H88.4427L90.0747 46.9062H91.0347L92.6547 51.1602H91.7547L91.4007 50.1882ZM89.9487 49.4322H91.1247L90.5367 47.8242L89.9487 49.4322ZM93.2109 51.1602V46.9062H94.0509V51.1602H93.2109ZM95.0449 51.1602V46.9062H95.8729V50.3682H97.7689V51.1602H95.0449ZM100.485 48.1482C100.473 48.0882 100.455 48.0222 100.425 47.9502C100.395 47.8842 100.347 47.8182 100.287 47.7582C100.227 47.6982 100.149 47.6502 100.059 47.6082C99.9633 47.5662 99.8493 47.5482 99.7113 47.5482C99.6093 47.5482 99.5193 47.5602 99.4413 47.5902C99.3573 47.6202 99.2853 47.6622 99.2313 47.7102C99.1713 47.7642 99.1233 47.8182 99.0933 47.8842C99.0633 47.9502 99.0453 48.0162 99.0453 48.0882C99.0453 48.2022 99.0813 48.3042 99.1593 48.3882C99.2373 48.4782 99.3513 48.5382 99.5073 48.5682L100.101 48.6822C100.293 48.7182 100.461 48.7782 100.611 48.8562C100.761 48.9342 100.881 49.0302 100.983 49.1382C101.085 49.2522 101.157 49.3722 101.211 49.5102C101.265 49.6482 101.289 49.7862 101.289 49.9362C101.289 50.0982 101.253 50.2602 101.187 50.4162C101.121 50.5782 101.019 50.7162 100.893 50.8362C100.761 50.9622 100.599 51.0582 100.413 51.1362C100.221 51.2142 99.9993 51.2502 99.7533 51.2502C99.4713 51.2502 99.2253 51.2082 99.0213 51.1242C98.8173 51.0462 98.6493 50.9382 98.5113 50.8122C98.3733 50.6862 98.2653 50.5422 98.1933 50.3802C98.1213 50.2242 98.0793 50.0682 98.0613 49.9182L98.8293 49.7142C98.8353 49.8162 98.8653 49.9182 98.9073 50.0142C98.9493 50.1102 99.0033 50.1942 99.0813 50.2662C99.1593 50.3442 99.2493 50.4042 99.3633 50.4462C99.4773 50.4882 99.6093 50.5122 99.7593 50.5122C99.9813 50.5122 100.155 50.4642 100.275 50.3622C100.389 50.2662 100.449 50.1402 100.449 49.9902C100.449 49.8642 100.407 49.7562 100.317 49.6662C100.227 49.5762 100.101 49.5162 99.9333 49.4862L99.3393 49.3662C98.9973 49.3002 98.7273 49.1562 98.5293 48.9462C98.3253 48.7362 98.2233 48.4722 98.2233 48.1482C98.2233 47.9622 98.2653 47.7822 98.3433 47.6202C98.4213 47.4582 98.5233 47.3202 98.6613 47.2002C98.7993 47.0802 98.9553 46.9842 99.1353 46.9182C99.3153 46.8522 99.5073 46.8162 99.7053 46.8162C99.9633 46.8162 100.179 46.8522 100.365 46.9182C100.545 46.9902 100.695 47.0802 100.815 47.1882C100.935 47.2962 101.031 47.4162 101.097 47.5422C101.163 47.6742 101.205 47.8002 101.229 47.9202L100.485 48.1482Z" fill="#263238"/>
<path d="M56.077 138.197L51.0586 134.46L52.3618 132.71L55.7278 135.216L60.3538 129.697L62.0242 131.101L56.077 138.197Z" fill="#2F2F2F"/>
<path d="M99.7313 27.6948H68.8613V39.3372H99.7313V27.6948Z" fill="#263238"/>
<path d="M94.0687 28.8722H76.0183L74.0059 20.0054H96.5419L94.0687 28.8722Z" fill="#263238"/>
<path opacity="0.3" d="M94.6978 20.0054C94.6762 20.0594 92.293 27.5942 92.3506 27.5942H94.399L96.559 20.0054H94.6978Z" fill="#888888"/>
<path opacity="0.3" d="M97.7375 27.6948C97.7375 27.6948 97.5899 39.3408 97.7375 39.3408H99.7211V27.6948H97.7375Z" fill="#888888"/>
<path d="M127.325 85.5576L120.241 100.192L111.795 109.138L113.663 110.747C113.663 110.747 121.781 105.17 124.046 102.082C126.163 99.2016 130.112 89.8416 130.112 89.8416L127.325 85.5576Z" fill="#FFB096"/>
<path d="M111.802 109.138C110.74 109.257 110.063 108.976 108.832 108.641C108.645 108.565 108.451 108.506 108.253 108.465C108.176 108.46 108.1 108.479 108.035 108.521C107.97 108.562 107.92 108.623 107.893 108.695C107.892 108.79 107.91 108.885 107.945 108.973C107.981 109.062 108.034 109.142 108.101 109.21C108.455 109.522 108.864 109.766 109.307 109.93C108.864 110.151 108.472 110.464 108.159 110.848C108.01 111.045 107.931 111.285 107.932 111.532C107.938 111.653 107.99 111.768 108.077 111.853C108.163 111.939 108.279 111.988 108.4 111.993C108.413 112.189 108.49 112.376 108.62 112.524C108.751 112.672 108.927 112.773 109.12 112.81C109.217 113.094 109.412 113.397 109.707 113.411C109.808 113.397 109.912 113.397 110.013 113.411C110.103 113.447 110.161 113.533 110.236 113.591C110.481 113.793 110.848 113.681 111.143 113.551C112.317 113.033 112.9 111.751 113.663 110.718" fill="#FFB096"/>
<path d="M108.827 110.934C109.596 110.936 110.332 111.242 110.875 111.786C111.419 112.33 111.724 113.067 111.725 113.836V147.24C111.719 148.005 111.412 148.737 110.869 149.276C110.326 149.816 109.592 150.119 108.827 150.12H105.731C104.966 150.119 104.231 149.816 103.688 149.277C103.145 148.737 102.836 148.005 102.829 147.24V113.836C102.83 113.066 103.136 112.329 103.68 111.785C104.224 111.241 104.962 110.935 105.731 110.934H108.827ZM108.827 110.376H105.731C104.815 110.38 103.937 110.745 103.289 111.393C102.641 112.041 102.275 112.919 102.271 113.836V147.24C102.275 148.156 102.641 149.033 103.289 149.681C103.937 150.328 104.815 150.693 105.731 150.696H108.827C109.743 150.693 110.62 150.328 111.268 149.681C111.915 149.033 112.28 148.156 112.283 147.24V113.836C112.28 112.92 111.915 112.042 111.268 111.394C110.621 110.746 109.743 110.38 108.827 110.376Z" fill="#888888"/>
<path d="M115.053 169.304C115.776 169.304 116.363 168.718 116.363 167.994C116.363 167.27 115.776 166.684 115.053 166.684C114.329 166.684 113.742 167.27 113.742 167.994C113.742 168.718 114.329 169.304 115.053 169.304Z" fill="#888888"/>
<path d="M111.751 167.994C111.754 168.254 111.681 168.509 111.539 168.727C111.398 168.945 111.195 169.117 110.956 169.219C110.718 169.322 110.454 169.352 110.198 169.304C109.943 169.257 109.707 169.135 109.521 168.954C109.334 168.773 109.206 168.54 109.152 168.286C109.098 168.032 109.12 167.768 109.216 167.526C109.312 167.285 109.478 167.077 109.692 166.93C109.906 166.783 110.159 166.702 110.419 166.698C110.591 166.696 110.763 166.728 110.923 166.791C111.083 166.855 111.23 166.95 111.353 167.07C111.477 167.191 111.576 167.334 111.644 167.493C111.712 167.651 111.749 167.822 111.751 167.994Z" fill="#888888"/>
<path d="M104.203 167.994C104.203 168.253 104.126 168.507 103.982 168.722C103.838 168.938 103.633 169.105 103.394 169.205C103.154 169.304 102.891 169.33 102.637 169.279C102.383 169.229 102.149 169.104 101.966 168.921C101.783 168.737 101.658 168.504 101.607 168.25C101.557 167.995 101.583 167.732 101.682 167.493C101.781 167.253 101.949 167.048 102.164 166.904C102.38 166.76 102.633 166.684 102.892 166.684C103.24 166.684 103.573 166.822 103.819 167.067C104.065 167.313 104.203 167.646 104.203 167.994Z" fill="#888888"/>
<path d="M98.2772 169.304C99.0009 169.304 99.5876 168.718 99.5876 167.994C99.5876 167.27 99.0009 166.684 98.2772 166.684C97.5535 166.684 96.9668 167.27 96.9668 167.994C96.9668 168.718 97.5535 169.304 98.2772 169.304Z" fill="#888888"/>
<path d="M117.151 132.84H98.4848C97.5364 132.84 96.7676 133.609 96.7676 134.558V165.446C96.7676 166.394 97.5364 167.163 98.4848 167.163H117.151C118.099 167.163 118.868 166.394 118.868 165.446V134.558C118.868 133.609 118.099 132.84 117.151 132.84Z" fill="#2F2F2F"/>
<path opacity="0.5" d="M117.151 132.84H98.4848C97.5364 132.84 96.7676 133.609 96.7676 134.558V165.446C96.7676 166.394 97.5364 167.163 98.4848 167.163H117.151C118.099 167.163 118.868 166.394 118.868 165.446V134.558C118.868 133.609 118.099 132.84 117.151 132.84Z" fill="#888888"/>
<path d="M112.932 132.84H96.3539C95.4055 132.84 94.6367 133.609 94.6367 134.558V165.446C94.6367 166.394 95.4055 167.163 96.3539 167.163H112.932C113.88 167.163 114.649 166.394 114.649 165.446V134.558C114.649 133.609 113.88 132.84 112.932 132.84Z" fill="#2F2F2F"/>
<path opacity="0.3" d="M112.932 132.84H96.3539C95.4055 132.84 94.6367 133.609 94.6367 134.558V165.446C94.6367 166.394 95.4055 167.163 96.3539 167.163H112.932C113.88 167.163 114.649 166.394 114.649 165.446V134.558C114.649 133.609 113.88 132.84 112.932 132.84Z" fill="#888888"/>
<path opacity="0.3" d="M98.6393 163.851C98.4159 163.851 98.2016 163.762 98.0436 163.604C97.8856 163.446 97.7969 163.232 97.7969 163.008V138.413C97.7969 138.19 97.8856 137.976 98.0436 137.818C98.2016 137.66 98.4159 137.571 98.6393 137.571C98.8627 137.571 99.077 137.66 99.2349 137.818C99.3929 137.976 99.4817 138.19 99.4817 138.413V163.008C99.4817 163.232 99.3929 163.446 99.2349 163.604C99.077 163.762 98.8627 163.851 98.6393 163.851Z" fill="white"/>
<path opacity="0.3" d="M102.73 163.851C102.619 163.852 102.509 163.831 102.406 163.789C102.303 163.747 102.209 163.685 102.13 163.607C102.051 163.528 101.988 163.435 101.946 163.332C101.903 163.23 101.881 163.12 101.881 163.008V138.413C101.881 138.19 101.97 137.976 102.128 137.818C102.286 137.66 102.5 137.571 102.723 137.571C102.947 137.571 103.161 137.66 103.319 137.818C103.477 137.976 103.566 138.19 103.566 138.413V163.008C103.566 163.231 103.478 163.444 103.321 163.602C103.165 163.759 102.953 163.849 102.73 163.851Z" fill="white"/>
<path opacity="0.3" d="M106.805 163.851C106.582 163.851 106.368 163.762 106.21 163.604C106.052 163.446 105.963 163.232 105.963 163.008V138.413C105.963 138.19 106.052 137.976 106.21 137.818C106.368 137.66 106.582 137.571 106.805 137.571C107.029 137.571 107.243 137.66 107.401 137.818C107.559 137.976 107.648 138.19 107.648 138.413V163.008C107.648 163.232 107.559 163.446 107.401 163.604C107.243 163.762 107.029 163.851 106.805 163.851Z" fill="white"/>
<path opacity="0.3" d="M110.88 163.851C110.656 163.851 110.442 163.762 110.284 163.604C110.126 163.446 110.037 163.232 110.037 163.008V138.413C110.037 138.19 110.126 137.976 110.284 137.818C110.442 137.66 110.656 137.571 110.88 137.571C111.103 137.571 111.317 137.66 111.475 137.818C111.633 137.976 111.722 138.19 111.722 138.413V163.008C111.722 163.232 111.633 163.446 111.475 163.604C111.317 163.762 111.103 163.851 110.88 163.851Z" fill="white"/>
<g opacity="0.3">
<path d="M108.968 110.092C109.512 110.052 110.056 110.156 110.546 110.395C111.035 110.634 111.452 110.999 111.755 111.453C111.814 111.525 111.857 111.61 111.881 111.701C111.904 111.791 111.908 111.886 111.891 111.978C111.853 112.064 111.797 112.14 111.726 112.202C111.656 112.264 111.574 112.31 111.485 112.338C111.251 112.446 111.459 112.112 111.211 112.176C111.081 112.209 110.793 112.047 110.66 112.014C110.517 111.978 110.39 111.894 110.3 111.777C109.89 111.341 109.202 111.417 108.939 110.866" fill="#888888"/>
</g>
<path d="M111.398 113.148C111.567 113.086 111.72 112.988 111.848 112.86C111.91 112.795 111.951 112.711 111.964 112.622C111.976 112.532 111.961 112.44 111.92 112.36C111.882 112.308 111.832 112.266 111.775 112.237C111.719 112.208 111.656 112.192 111.592 112.191C111.468 112.194 111.346 112.219 111.232 112.266C111.061 112.334 110.898 112.417 110.742 112.515C110.875 112.43 110.996 112.328 111.102 112.212C111.155 112.153 111.194 112.084 111.219 112.009C111.244 111.934 111.253 111.855 111.246 111.777C111.237 111.707 111.204 111.642 111.153 111.593C111.096 111.556 111.031 111.534 110.963 111.527C110.895 111.52 110.827 111.529 110.764 111.553C110.484 111.628 110.224 111.764 110.004 111.953C110.105 111.824 110.216 111.704 110.336 111.593C110.458 111.488 110.549 111.351 110.598 111.197C110.623 111.121 110.624 111.039 110.602 110.962C110.579 110.885 110.534 110.816 110.472 110.765C110.408 110.721 110.334 110.693 110.257 110.681C110.18 110.669 110.101 110.674 110.026 110.697C109.792 110.768 109.572 110.877 109.374 111.021C109.558 110.886 109.716 110.719 109.839 110.527C109.876 110.478 109.899 110.42 109.907 110.358C109.907 110.239 109.796 110.153 109.684 110.11C109.456 110.041 109.211 110.06 108.996 110.164C108.636 110.338 108.328 110.604 108.104 110.934C108.104 110.934 108.59 111.409 108.629 111.435L110.926 113.04L111.398 113.148Z" fill="#FFB096"/>
<path d="M143.355 91.3386L143.02 91.4692L153.06 117.261L153.395 117.13L143.355 91.3386Z" fill="#2F2F2F"/>
<path d="M160.87 130.486C158.192 129.906 155.405 130.19 152.694 130.597C147.543 131.364 142.413 132.563 137.704 134.788C132.002 135.544 124.064 135.558 122.584 137.714C137.308 143.741 154.721 137.3 161.392 133.229C161.939 132.894 162.544 132.419 162.508 131.789C162.458 131.04 161.601 130.644 160.87 130.486Z" fill="#2F2F2F"/>
<g opacity="0.2">
<path d="M160.87 130.486C158.192 129.906 155.405 130.19 152.694 130.597C147.543 131.364 142.413 132.563 137.704 134.788C132.002 135.544 124.064 135.558 122.584 137.714C137.308 143.741 154.721 137.3 161.392 133.229C161.939 132.894 162.544 132.419 162.508 131.789C162.458 131.04 161.601 130.644 160.87 130.486Z" fill="#888888"/>
</g>
<path d="M143.586 85.5576C143.586 85.5576 144.666 85.8492 145.718 88.0164C146.438 89.5104 150.207 98.0676 150.498 99.5364C150.959 101.812 151.157 114.84 151.157 114.84H148.81C148.81 114.84 146.481 101.023 146.434 100.883C146.387 100.742 141.25 90.5328 141.25 90.5328L143.586 85.5576Z" fill="#FFB096"/>
<path d="M153.796 143.424C152.816 141.779 151.096 140.155 150.455 138.78C149.893 137.592 149.958 136.66 149.015 133.823C147.874 130.385 146.07 125.903 143.69 122.868C143.69 122.868 145.332 117.662 141.192 113.544L138.474 110.956L128.113 113.807L143.845 140.468L158.785 162.428L161.582 161.233C159.89 156.128 156.514 148.223 153.796 143.424Z" fill="#FFB096"/>
<path opacity="0.2" d="M148.407 131.803L141.668 135.763V136.843L142.201 137.7L142.795 138.708C142.795 138.708 144.195 137.754 145.675 136.818C147.154 135.882 149.275 134.564 149.275 134.564L148.407 131.803Z" fill="#888888"/>
<path d="M159.732 170.15C159.899 169.661 160.142 169.201 160.452 168.786C160.452 168.786 160.912 166.907 159.285 163.721L160.603 162.122C160.812 161.868 161.081 161.67 161.386 161.544C161.69 161.418 162.021 161.37 162.349 161.402C162.429 161.416 162.507 161.441 162.579 161.478C162.888 161.7 163.178 161.947 163.447 162.216C164.334 163.14 165.149 164.13 165.884 165.179L165.592 165.427L163.969 163.627C163.44 163.001 163.375 164.3 163.746 165.132C164.116 165.964 164.329 167.033 162.518 168.559C160.452 170.32 159.516 171 159.732 170.15Z" fill="#888888"/>
<path d="M158.285 161.518C158.947 162.931 159.529 164.38 160.028 165.859C160.383 166.797 160.525 167.801 160.445 168.8C160.445 168.8 161.964 167.857 161.99 166.669C162.015 165.481 160.884 162.414 162.375 161.399C162.116 161.309 161.846 161.255 161.572 161.237L161.129 160.319C160.283 160.672 158.285 161.518 158.285 161.518Z" fill="#FFB096"/>
<path d="M141.398 91.4836L144.044 85.9576C142.852 84.1576 136.948 82.8076 136.948 82.8076L133.06 83.02C133.06 83.02 131.562 83.3548 130.284 83.7724C128.574 84.3304 127.653 84.7768 127.242 85.7236C127.242 85.7236 126.425 87.8368 126.958 92.1532C127.106 93.3484 127.509 100.253 126.418 102.233L126.44 102.78C133.546 108.314 139.558 107.388 139.558 107.388C139.238 106.409 139.27 103.187 139.126 102.233C139.17 100.79 139.364 99.3561 139.702 97.9528C139.799 97.5604 141.225 91.8832 141.398 91.4836Z" fill="#FFB096"/>
<path d="M143.553 80.6798C143.884 77.6054 141.641 78.3614 141.936 74.4302C142.257 70.1102 138.142 69.0302 138.142 69.0302C138.142 69.0302 136.702 67.1294 134.747 66.5966C132.227 65.9162 125.769 67.5794 127.252 73.0478C128.134 76.3094 127.594 76.1762 127.104 77.5406C126.409 79.4702 128.076 82.1162 126.24 83.3006C126.24 83.3006 133.3 83.1566 140.849 83.5922C140.849 83.567 143.351 82.5554 143.553 80.6798Z" fill="#263238"/>
<path d="M137.913 83.4266C136.903 83.9684 135.958 84.6243 135.098 85.3814C134.776 85.6622 134.422 85.9039 134.043 86.1014C133.024 86.645 132.099 86.951 131.847 86.4614C131.788 86.3472 131.743 86.2263 131.714 86.1014C131.501 85.2806 131.591 84.125 132.254 83.5814C133.002 82.9838 133.362 82.4762 133.229 81.6698C133.142 81.1909 132.997 80.7243 132.797 80.2802L133.665 79.7618L136.746 76.6514C136.394 78.5882 136.289 82.2962 137.913 83.4266Z" fill="#FFB096"/>
<path opacity="0.2" d="M133.254 81.8748C134.1 81.3708 135.029 80.4996 134.917 79.5024C134.882 79.134 134.803 78.7713 134.679 78.4224L132.955 80.7012C133.097 81.0804 133.197 81.4739 133.254 81.8748Z" fill="#888888"/>
<path d="M137.339 73.1739C137.051 76.3419 136.979 77.6811 135.359 79.3443C132.904 81.8391 129.12 81.0003 128.472 77.8611C127.885 75.0387 128.472 70.3335 131.565 69.0015C132.223 68.6922 132.952 68.5648 133.675 68.6324C134.399 68.7 135.092 68.9603 135.681 69.3861C136.271 69.812 136.735 70.3879 137.027 71.054C137.318 71.7201 137.426 72.4521 137.339 73.1739Z" fill="#FFB096"/>
<path d="M133.24 74.2036C133.24 74.5384 133.042 74.8156 132.837 74.8192C132.631 74.8228 132.477 74.5564 132.477 74.2216C132.477 73.8868 132.671 73.6096 132.88 73.606C133.089 73.6024 133.254 73.8688 133.24 74.2036Z" fill="#263238"/>
<path d="M130.118 74.1963C130.1 74.5203 129.92 74.7867 129.712 74.7903C129.503 74.7939 129.352 74.5347 129.352 74.2107C129.352 73.8867 129.55 73.6203 129.755 73.6167C129.96 73.6131 130.133 73.8687 130.118 74.1963Z" fill="#263238"/>
<path d="M133.921 73.0371C133.9 73.0396 133.879 73.0376 133.859 73.0314C133.839 73.0252 133.821 73.0149 133.805 73.0011C133.669 72.8709 133.503 72.7762 133.322 72.7253C133.14 72.6745 132.949 72.669 132.765 72.7095C132.746 72.7161 132.726 72.7185 132.706 72.7167C132.686 72.7149 132.667 72.7088 132.65 72.6989C132.632 72.689 132.617 72.6756 132.605 72.6594C132.594 72.6432 132.585 72.6247 132.581 72.6051C132.573 72.5642 132.581 72.5217 132.602 72.4859C132.623 72.45 132.657 72.4232 132.697 72.4107C132.93 72.3537 133.174 72.3568 133.405 72.4198C133.637 72.4827 133.849 72.6035 134.021 72.7707C134.05 72.8002 134.066 72.8396 134.066 72.8805C134.066 72.9215 134.05 72.9608 134.021 72.9903C133.995 73.0184 133.959 73.0352 133.921 73.0371Z" fill="#263238"/>
<path d="M129.067 72.605C129.05 72.5999 129.035 72.5911 129.023 72.5793C129.01 72.5674 129.001 72.5528 128.995 72.5366C128.982 72.499 128.984 72.4583 128.998 72.4215C129.013 72.3846 129.039 72.354 129.074 72.335C129.263 72.2125 129.479 72.1402 129.704 72.1251C129.928 72.1099 130.152 72.1525 130.356 72.2486C130.371 72.2594 130.385 72.2732 130.395 72.2892C130.405 72.3052 130.412 72.3231 130.416 72.3419C130.419 72.3606 130.419 72.3799 130.415 72.3985C130.41 72.4171 130.403 72.4346 130.392 72.4502C130.373 72.4837 130.342 72.5089 130.305 72.5209C130.269 72.5329 130.229 72.5308 130.194 72.515C130.032 72.4411 129.853 72.4096 129.676 72.4235C129.498 72.4373 129.327 72.4961 129.179 72.5942C129.162 72.6038 129.143 72.6097 129.124 72.6116C129.105 72.6134 129.085 72.6112 129.067 72.605Z" fill="#263238"/>
<path d="M130.969 74.0415C130.683 74.7164 130.33 75.3605 129.914 75.9639C129.894 75.9943 129.882 76.0286 129.877 76.0644C129.872 76.1003 129.876 76.1367 129.887 76.1711C129.898 76.2055 129.916 76.2371 129.941 76.2635C129.965 76.2899 129.996 76.3105 130.029 76.3239C130.307 76.4016 130.601 76.4016 130.879 76.3239L130.969 74.0415Z" fill="#E97864"/>
<path d="M133.009 73.6201L132.289 73.4473C132.289 73.4473 132.681 73.9909 133.009 73.6201Z" fill="#263238"/>
<path d="M129.845 73.624L129.125 73.4512C129.125 73.4512 129.517 73.9912 129.845 73.624Z" fill="#263238"/>
<path d="M136.242 74.268C136.242 74.268 134.608 71.8092 134.694 69.8184C134.694 69.8184 131.566 69.0012 129.074 72.3384C128.675 72.8676 128.441 73.7532 128.084 74.4984C128.084 74.4984 127.487 68.472 132.833 67.9788C138.179 67.4856 139.219 74.9916 136.616 77.5152C136.791 76.9788 136.848 76.4111 136.783 75.8507C136.719 75.2904 136.534 74.7505 136.242 74.268Z" fill="#263238"/>
<path d="M138.298 75.7549C138.133 76.0455 137.913 76.3007 137.649 76.5058C137.385 76.7109 137.083 76.8619 136.761 76.9501C135.922 77.1625 135.49 75.8125 135.775 74.9737C135.911 74.5978 136.177 74.2827 136.525 74.0849C136.872 73.887 137.279 73.8193 137.672 73.8937C138.475 74.0449 138.727 75.0133 138.298 75.7549Z" fill="#FFB096"/>
<path opacity="0.2" d="M136.53 75.6759C136.519 75.675 136.507 75.6717 136.496 75.6664C136.486 75.661 136.476 75.6536 136.469 75.6445C136.461 75.6355 136.455 75.625 136.452 75.6137C136.448 75.6024 136.447 75.5905 136.448 75.5787C136.458 75.4166 136.5 75.2581 136.572 75.1123C136.643 74.9665 136.743 74.8363 136.865 74.7291C137.114 74.5157 137.435 74.4061 137.762 74.4231C137.773 74.424 137.785 74.4272 137.796 74.4326C137.806 74.438 137.816 74.4454 137.823 74.4545C137.831 74.4635 137.837 74.474 137.84 74.4853C137.844 74.4966 137.845 74.5085 137.844 74.5203C137.844 74.5321 137.842 74.5439 137.837 74.5547C137.832 74.5655 137.825 74.5752 137.816 74.583C137.808 74.5909 137.797 74.5967 137.786 74.6002C137.774 74.6037 137.763 74.6046 137.751 74.6031C137.471 74.5878 137.196 74.6821 136.984 74.8659C136.776 75.0505 136.647 75.3085 136.624 75.5859C136.625 75.5983 136.624 75.6109 136.619 75.6226C136.615 75.6343 136.608 75.6449 136.599 75.6535C136.59 75.6622 136.579 75.6687 136.567 75.6726C136.555 75.6764 136.543 75.6776 136.53 75.6759Z" fill="#888888"/>
<path d="M131.89 77.4004C131.793 77.4007 131.695 77.3911 131.599 77.3716C131.575 77.3664 131.555 77.3522 131.541 77.3321C131.528 77.312 131.523 77.2874 131.527 77.2636C131.529 77.252 131.534 77.241 131.541 77.2313C131.548 77.2215 131.557 77.2132 131.567 77.2069C131.577 77.2005 131.588 77.1962 131.6 77.1942C131.611 77.1922 131.623 77.1925 131.635 77.1952C131.864 77.2523 132.106 77.2248 132.316 77.1176C132.527 77.0104 132.691 76.8309 132.78 76.612C132.782 76.5988 132.787 76.5863 132.794 76.5753C132.802 76.5644 132.812 76.5552 132.823 76.5485C132.835 76.5417 132.847 76.5376 132.861 76.5365C132.874 76.5353 132.887 76.5371 132.9 76.5417C132.912 76.5463 132.924 76.5536 132.933 76.5632C132.942 76.5727 132.949 76.5841 132.954 76.5967C132.958 76.6093 132.959 76.6226 132.958 76.6359C132.957 76.6491 132.952 76.6618 132.945 76.6732C132.86 76.8844 132.715 77.0659 132.527 77.1952C132.34 77.3244 132.118 77.3958 131.89 77.4004Z" fill="#263238"/>
<path d="M125.057 111.201L123.895 138.384L124.827 164.725L128.103 165.568C129.543 160.362 130.731 150.131 131.069 144.796C131.149 142.967 130.558 140.857 130.763 139.417C130.943 138.15 131.534 137.347 132.308 134.475C133.244 130.997 134.191 126.346 133.813 122.746C133.813 122.746 138.212 118.786 136.909 113.544L125.057 111.201Z" fill="#FFB096"/>
<path opacity="0.2" d="M123.894 138.384C123.894 138.384 125.172 137.168 127.522 137.52C129.873 137.873 130.986 138.467 130.986 138.467L131.623 136.692L126.223 135.166L123.883 136.325L123.894 138.384Z" fill="#888888"/>
<path d="M120.702 170.921C121.15 170.659 121.636 170.466 122.142 170.348C122.142 170.348 123.708 169.211 124.518 165.73L126.552 165.37C126.875 165.309 127.208 165.328 127.521 165.426C127.835 165.524 128.12 165.697 128.352 165.931C128.404 165.993 128.447 166.062 128.478 166.136C128.57 166.504 128.632 166.878 128.665 167.256C128.748 168.536 128.732 169.82 128.618 171.097H128.236L128.146 168.685C128.146 167.864 127.257 168.818 127.005 169.693C126.753 170.568 126.224 171.522 123.855 171.522C121.144 171.515 119.996 171.425 120.702 170.921Z" fill="#888888"/>
<path d="M124.898 164.48C124.557 165.619 124.155 166.738 123.692 167.832C123.36 168.778 122.821 169.639 122.115 170.352C122.115 170.352 123.883 170.615 124.671 169.722C125.46 168.829 126.565 165.762 128.361 165.938C128.22 165.704 128.049 165.489 127.854 165.298C127.562 164.97 124.898 164.48 124.898 164.48Z" fill="#FFB096"/>
<path d="M123.894 111.096C122.354 118.415 122.336 131.368 122.577 137.715C122.577 137.715 125.939 134.903 131.325 136.789C136.71 138.676 139.007 138.708 141.718 137.869C144.429 137.031 146.553 132.93 154.372 131.487C162.191 130.043 162.49 131.677 162.49 131.677C162.49 131.677 163.43 129.809 159.516 128.506C155.603 127.203 150.923 122.76 148.659 119.88C146.394 117 141.171 107.745 140.044 105.556C139.338 104.21 139.038 102.688 139.18 101.175L127.023 100.289C125.727 103.813 124.681 107.425 123.894 111.096Z" fill="#263238"/>
<path d="M141.768 91.8364L143.964 85.7164C142.337 84.0676 138.104 83.1172 138.104 83.1172L132.722 92.1388L130.284 83.7724C128.574 84.3304 127.653 84.7768 127.242 85.7236C127.242 85.7236 126.425 87.8368 126.958 92.1532C127.106 93.3484 127.509 100.253 126.418 102.233L126.44 102.78C133.546 108.314 139.558 107.388 139.558 107.388C139.238 106.409 139.31 103.022 139.166 102.064C139.27 100.847 139.184 100.088 139.702 97.9528C139.799 97.5604 141.596 92.236 141.768 91.8364Z" fill="#263238"/>
<path d="M126.291 102.19L139.402 103.291L139.406 100.746L126.989 99.6841L126.291 102.19Z" fill="#2F2F2F"/>
<path d="M152.658 117.138L147.352 118.945C146.515 119.23 146.067 120.14 146.352 120.978L147.879 125.459C148.164 126.297 149.074 126.744 149.912 126.459L155.218 124.652C156.055 124.366 156.503 123.456 156.218 122.619L154.691 118.138C154.406 117.3 153.496 116.852 152.658 117.138Z" fill="#2F2F2F"/>
<path opacity="0.3" d="M152.216 122.36C151.903 122.351 151.592 122.304 151.29 122.22C149.587 121.743 147.944 121.071 146.394 120.218C146.373 120.207 146.358 120.188 146.35 120.165C146.343 120.142 146.345 120.118 146.355 120.096C146.36 120.086 146.368 120.076 146.377 120.069C146.387 120.061 146.397 120.056 146.409 120.053C146.42 120.049 146.432 120.048 146.444 120.049C146.455 120.051 146.467 120.054 146.477 120.06C148.016 120.902 149.645 121.567 151.334 122.04C151.822 122.213 152.354 122.213 152.842 122.04C153.286 121.788 153.613 121.37 153.749 120.877C154.128 119.72 154.158 118.477 153.836 117.302C153.829 117.279 153.831 117.255 153.841 117.233C153.852 117.212 153.871 117.195 153.893 117.187C153.916 117.18 153.941 117.182 153.962 117.193C153.984 117.204 154 117.222 154.008 117.245C154.337 118.459 154.306 119.742 153.918 120.938C153.843 121.205 153.716 121.453 153.544 121.67C153.373 121.887 153.16 122.068 152.918 122.202C152.698 122.306 152.458 122.36 152.216 122.36Z" fill="#888888"/>
<path d="M147.546 118.991C143.104 109.379 138.769 94.4533 141.188 84.0205L141.548 84.1033C139.151 94.4461 143.464 109.282 147.884 118.84L147.546 118.991Z" fill="#2F2F2F"/>
<path d="M148.935 114.768C148.428 115.078 148.046 115.556 147.855 116.118C147.65 116.943 147.268 117.558 147.16 118.174C147.052 118.789 147.715 118.257 148.01 117.897C148.305 117.537 148.64 117.133 148.874 117.396C149.108 117.659 149.727 120.636 150.094 120.967C150.461 121.299 150.512 120.784 150.512 120.784C150.512 120.784 150.685 121.504 150.987 121.504C151.066 121.504 151.253 121.385 151.228 121.043C151.167 120.28 150.962 118.681 150.962 118.681C150.962 118.775 151.369 120.73 151.466 121.014C151.592 121.374 151.826 121.497 152.056 121.414C152.359 121.299 151.952 118.861 152.006 118.746C152.006 118.746 152.193 120.157 152.585 120.309C152.978 120.46 152.906 119.563 152.697 118.786C152.503 118.066 152.308 116.626 152.042 115.906C151.711 115.038 151.293 114.527 150.425 114.466C149.911 114.436 149.397 114.541 148.935 114.768Z" fill="#FFB096"/>
</svg>
