<?xml version="1.0" encoding="utf-8"?>
<!-- Generator: Adobe Illustrator 23.0.1, SVG Export Plug-In . SVG Version: 6.00 Build 0)  -->
<svg version="1.1" id="Layer_1" xmlns="http://www.w3.org/2000/svg" xmlns:xlink="http://www.w3.org/1999/xlink" x="0px" y="0px"
	 viewBox="0 0 50 50" style="enable-background:new 0 0 50 50;" xml:space="preserve">
<style type="text/css">
	.st0{fill:#FCFCFC;}
	.st1{fill:#EAEAEA;}
</style>
<path d="M24.9,47.6c0.1-0.2-0.1-0.2-0.2-0.3c-1.3-1.7-2.5-3.4-3.8-5.1c-0.2-0.2-0.3-0.3-0.6-0.4c-6.8-1.8-11.6-6-14.1-12.5
	C3.5,22,5.4,13.5,11.1,8c2.8-2.7,6.1-4.6,10-5.3c7.5-1.3,13.9,0.8,19,6.5c3.7,4.1,5.2,9.1,4.8,14.6c-0.6,8.6-6.9,15.9-15.4,17.9
	c-0.2,0-0.3,0.1-0.5,0.3c-1.3,1.8-2.6,3.5-4,5.3c0,0.1-0.1,0.1,0,0.2C25,47.6,25,47.6,24.9,47.6z M10.3,22.3
	C10.3,30.4,16.9,37,25,37c8.1,0,14.7-6.6,14.7-14.7c0-8.1-6.6-14.7-14.7-14.7C16.9,7.6,10.3,14.2,10.3,22.3z"/>
<path class="st0" d="M10.3,22.3c0-8.1,6.6-14.7,14.7-14.7c8.1,0,14.7,6.6,14.7,14.7C39.7,30.4,33.1,37,25,37
	C16.9,37,10.3,30.4,10.3,22.3z M13,22.3c0,6.6,5.4,12,12,12.1c6.6,0,12-5.4,12-12c0-6.6-5.4-12-12-12.1C18.4,10.2,13,15.6,13,22.3z"
	/>
<path class="st1" d="M13,22.3c0-6.6,5.4-12,12-12c6.6,0,12,5.4,12,12.1c0,6.7-5.4,12-12,12C18.3,34.3,13,28.9,13,22.3z"/>
<g>
	<path d="M26.7,29.9c-1.1,0-2.2,0-3.3,0c-0.4,0-0.5-0.1-0.5-0.5c0-1,0-1.9,0-2.9c0-0.3-0.1-0.6-0.4-0.9c-1.6-1.5-2.9-3.3-4.1-5.2
		c-0.4-0.7-0.8-1.4-1.2-2.1c-0.3-0.6-0.3-1.2,0.1-1.8c0.4-0.6,0.9-0.8,1.6-0.8c0.6,0,1.1,0.4,1.4,0.9c0.5,0.9,1,1.8,1.5,2.6
		c0.6,0.9,1.2,1.7,1.8,2.5c0.5,0.6,1.1,0.9,1.9,0.9c1,0,2,0,3,0c2.1,0,3.9,1.4,4.3,3.5c0.1,0.3,0.1,0.6,0.1,0.9c0,0.8,0,1.5,0,2.3
		c0,0.3-0.1,0.4-0.4,0.4c-0.5,0-0.9,0-1.4,0c-0.1,0-0.2,0-0.2-0.2c0-0.7,0-1.5,0-2.2c0-0.1,0-0.1,0-0.2c0-0.2-0.2-0.3-0.3-0.3
		c-0.2,0-0.3,0.1-0.3,0.3c0,0.1,0,0.1,0,0.2c0,0.7,0,1.5,0,2.2c0,0.1,0,0.2-0.2,0.2C29,29.9,27.9,29.9,26.7,29.9z"/>
	<path d="M30.1,18.9c0,1.9-1.6,3.4-3.5,3.4c-1.9,0-3.4-1.6-3.4-3.5c0-1.9,1.6-3.4,3.5-3.4C28.5,15.4,30.1,17,30.1,18.9z"/>
</g>
</svg>
