<?xml version="1.0" encoding="utf-8"?>
<!-- Generator: Adobe Illustrator 23.0.1, SVG Export Plug-In . SVG Version: 6.00 Build 0)  -->
<svg version="1.1" id="Layer_1" xmlns="http://www.w3.org/2000/svg" xmlns:xlink="http://www.w3.org/1999/xlink" x="0px" y="0px"
	 viewBox="0 0 25 25" style="enable-background:new 0 0 25 25;" xml:space="preserve">
<style type="text/css">
	.st0{fill:#FCFCFC;}
	.st1{fill:#EAEAEA;}
</style>
<g>
	<path d="M12.5,24.4c0-0.1,0-0.1-0.1-0.2c-0.7-0.9-1.3-1.8-2-2.7c-0.1-0.1-0.2-0.2-0.3-0.2c-3.6-0.9-6.1-3.1-7.4-6.6
		C1.2,10.9,2.2,6.4,5.2,3.6c1.5-1.4,3.2-2.4,5.2-2.8c3.9-0.7,7.3,0.4,10,3.4c1.9,2.2,2.7,4.8,2.5,7.7c-0.3,4.5-3.6,8.4-8.1,9.4
		c-0.1,0-0.2,0.1-0.2,0.1c-0.7,0.9-1.4,1.9-2.1,2.8C12.6,24.3,12.5,24.3,12.5,24.4C12.5,24.4,12.5,24.4,12.5,24.4z M4.8,11.1
		c0,4.2,3.4,7.7,7.7,7.7c4.2,0,7.7-3.5,7.7-7.7c0-4.3-3.5-7.7-7.7-7.7C8.2,3.4,4.8,6.8,4.8,11.1z"/>
	<path class="st0" d="M4.8,11.1c0-4.2,3.4-7.7,7.7-7.7c4.3,0,7.7,3.5,7.7,7.7c0,4.3-3.5,7.7-7.7,7.7C8.2,18.8,4.8,15.3,4.8,11.1z
		 M6.2,11.1c0,3.5,2.8,6.3,6.3,6.3c3.5,0,6.3-2.8,6.3-6.3c0-3.5-2.8-6.3-6.3-6.3C9,4.8,6.2,7.6,6.2,11.1z"/>
	<path class="st1" d="M6.2,11.1c0-3.5,2.8-6.3,6.3-6.3c3.5,0,6.3,2.8,6.3,6.3c0,3.5-2.8,6.3-6.3,6.3C9,17.4,6.2,14.6,6.2,11.1z"/>
	<g>
		<path d="M13.4,15.1c-0.6,0-1.2,0-1.8,0c-0.2,0-0.3,0-0.3-0.3c0-0.5,0-1,0-1.5c0-0.2-0.1-0.3-0.2-0.4C10.3,12,9.7,11.1,9,10.1
			C8.8,9.7,8.6,9.3,8.4,9C8.3,8.6,8.3,8.3,8.5,8c0.2-0.3,0.5-0.4,0.8-0.4c0.3,0,0.6,0.2,0.7,0.5c0.2,0.5,0.5,0.9,0.8,1.4
			c0.3,0.5,0.6,0.9,1,1.3c0.3,0.3,0.6,0.5,1,0.5c0.5,0,1.1,0,1.6,0c1.1,0,2,0.7,2.3,1.8c0,0.2,0,0.3,0,0.5c0,0.4,0,0.8,0,1.2
			c0,0.2-0.1,0.2-0.2,0.2c-0.2,0-0.5,0-0.7,0c-0.1,0-0.1,0-0.1-0.1c0-0.4,0-0.8,0-1.2c0,0,0-0.1,0-0.1c0-0.1-0.1-0.1-0.2-0.1
			c-0.1,0-0.2,0.1-0.2,0.2c0,0,0,0.1,0,0.1c0,0.4,0,0.8,0,1.2c0,0.1,0,0.1-0.1,0.1C14.6,15.1,14,15.1,13.4,15.1z"/>
		<path d="M15.2,9.3c0,1-0.8,1.8-1.8,1.8c-1,0-1.8-0.8-1.8-1.8c0-1,0.8-1.8,1.8-1.8C14.3,7.5,15.2,8.3,15.2,9.3z"/>
	</g>
</g>
</svg>
