<?xml version="1.0" encoding="utf-8"?>
<!-- Generator: Adobe Illustrator 23.0.1, SVG Export Plug-In . SVG Version: 6.00 Build 0)  -->
<svg version="1.1" id="Layer_1" xmlns="http://www.w3.org/2000/svg" xmlns:xlink="http://www.w3.org/1999/xlink" x="0px" y="0px"
	 viewBox="0 0 424 389" style="enable-background:new 0 0 424 389;" xml:space="preserve">
<style type="text/css">
	.st0{opacity:0.7;}
	.st1{opacity:0.2;fill:#598BFF;}
	.st2{fill:#598BFF;}
	.st3{fill:none;stroke:#263238;stroke-linecap:round;stroke-linejoin:round;stroke-miterlimit:10;}
	.st4{fill:#36424E;}
	.st5{fill:#FFFFFF;}
	.st6{clip-path:url(#SVGID_2_);fill:#92B6FF;}
	.st7{fill:none;}
	.st8{opacity:0.16;clip-path:url(#SVGID_4_);enable-background:new    ;}
	.st9{fill:#263238;stroke:#263238;stroke-linecap:round;stroke-linejoin:round;stroke-miterlimit:10;}
	.st10{fill:none;stroke:#FFFFFF;stroke-linecap:round;stroke-linejoin:round;stroke-miterlimit:10;}
	.st11{fill:#C6FF00;}
	.st12{opacity:0.5;}
	.st13{fill:#FFFFFF;stroke:#263238;stroke-linecap:round;stroke-linejoin:round;stroke-miterlimit:10;}
	.st14{clip-path:url(#SVGID_6_);fill:#F2818A;}
	.st15{clip-path:url(#SVGID_8_);fill:#92B6FF;}
	.st16{fill:#92B6FF;}
	.st17{opacity:0.16;clip-path:url(#SVGID_10_);enable-background:new    ;}
	.st18{fill:#ED6F2D;}
	.st19{opacity:0.16;clip-path:url(#SVGID_12_);fill:#ED6F2D;enable-background:new    ;}
	.st20{fill:#F99746;}
	.st21{opacity:0.16;clip-path:url(#SVGID_16_);fill:#F99746;enable-background:new    ;}
	.st22{opacity:0.16;clip-path:url(#SVGID_19_);fill:#ED6F2D;enable-background:new    ;}
	.st23{fill:#F2818A;}
	.st24{clip-path:url(#SVGID_21_);fill:#F2818A;}
	.st25{clip-path:url(#SVGID_23_);fill:#F2818A;}
	.st26{clip-path:url(#SVGID_25_);fill:#F2818A;}
	.st27{clip-path:url(#SVGID_27_);fill:#F2818A;}
	.st28{opacity:0.16;enable-background:new    ;}
	.st29{clip-path:url(#SVGID_30_);fill:#F2818A;}
	.st30{clip-path:url(#SVGID_32_);fill:#92B6FF;}
	.st31{display:none;clip-path:url(#SVGID_34_);fill:#C6FF00;}
	.st32{opacity:0.5;clip-path:url(#SVGID_36_);fill:#FFFFFF;enable-background:new    ;}
	.st33{fill:none;stroke:#263238;stroke-width:0.5;stroke-linecap:round;stroke-linejoin:round;stroke-miterlimit:10;}
	.st34{fill:#263238;}
	.st35{fill:none;stroke:#263238;stroke-width:0.75;stroke-linecap:round;stroke-linejoin:round;stroke-miterlimit:10;}
	.st36{clip-path:url(#SVGID_38_);fill:#F2818A;}
	.st37{opacity:0.5;clip-path:url(#SVGID_41_);fill:#FFFFFF;enable-background:new    ;}
	.st38{clip-path:url(#SVGID_43_);fill:#F99746;}
	.st39{clip-path:url(#SVGID_45_);fill:#92B6FF;}
	.st40{fill:none;stroke:#FFFFFF;stroke-width:3;stroke-linecap:round;stroke-linejoin:round;stroke-miterlimit:10;}
</style>
<g>
	<g id="Background_Simple" class="st0">
		<path class="st1" d="M27.4,208.8c-2-26.6,4.2-54.3,12.5-79C52.1,93,76,55.3,116.2,46.6c23.2-5,46.8,0.4,66.6,12.9
			c19.1,12.1,34,27.7,57.5,30.7c23.8,3.1,48.2,1.8,72.1,1.8c61.4,0,111.3,64.5,98.8,131.8C398.7,291,340,337.6,290.1,337.6
			c-44.8,0-81.7-26.9-124.2-34.1c-21.1-3.6-42.3,0.7-63.2-4.7c-24.3-6.2-47.1-21.1-60.5-42.6C33.1,241.6,28.6,225.4,27.4,208.8z"/>
	</g>
	<path class="st2" d="M34.6,199.4c0,0,0-5,7-11.9c7-7,11.4-10.9,11.4-10.9s3.5,11.4-3,18.4s-15.4,13.4-15.4,13.4V199.4z"/>
	<path class="st2" d="M44.7,230.5c0,0,0-5,7-11.9c7-7,11.4-10.9,11.4-10.9s3.5,11.4-3,18.4s-15.4,13.4-15.4,13.4
		S44.7,230.5,44.7,230.5z"/>
	<path class="st2" d="M35,207.9c0,0-0.5-4.9-8.2-11.1c-7.7-6.2-12.5-9.7-12.5-9.7s-2.3,11.7,4.9,18S36,216.8,36,216.8L35,207.9z"/>
	<path class="st2" d="M47.2,244.6c0,0-1-4.9-9.3-10.2s-13.5-8.3-13.5-8.3s-1,11.9,6.8,17.4s17.9,9.9,17.9,9.9L47.2,244.6z"/>
	<path class="st2" d="M44.9,284.6c0,0,0-5-7-11.9c-7-7-11.4-10.9-11.4-10.9s-3.5,11.4,3,18.4s15.4,13.4,15.4,13.4V284.6z"/>
	<path class="st2" d="M45,294.3c0,0-0.7-4.9,5.2-12.8S60,269,60,269s5.1,10.8-0.3,18.6c-5.4,7.8-13.4,15.5-13.4,15.5L45,294.3z"/>
	<path class="st2" d="M51.9,323.3c0,0,0-5-7-11.9c-7-7-11.4-10.9-11.4-10.9s-3.5,11.4,3,18.4s15.4,13.4,15.4,13.4V323.3z"/>
	<path class="st2" d="M47.3,349.5c0,0,1.3-4.8-3.7-13.3s-8.3-13.5-8.3-13.5s-6.3,10.2-1.8,18.6S45,358.2,45,358.2L47.3,349.5z"/>
	<path class="st3" d="M33.9,198.2c0.4,5.3,1,10.8,1.9,15.4c2.8,14.2,9.6,23.4,12.4,36.2c2.8,12.8-5.1,29.4-3,45.9s8.5,25.7,6.7,36.7
		s-11.5,40.8-11.5,40.8"/>
	<line class="st3" x1="35.1" y1="211.2" x2="27.6" y2="205.4"/>
	<line class="st3" x1="34.7" y1="204.6" x2="37.9" y2="199"/>
	<path class="st3" d="M47.8,249.3c0,0-6.3-4.7-12.7-9.4"/>
	<path class="st3" d="M44.7,239.4c0,0,5.2-10.3,11.2-17.1"/>
	<path class="st3" d="M44.7,291.7c0,0-4.9-9.6-13.4-18"/>
	<path class="st3" d="M45.9,298.6c0,0,3.1-7.5,6.8-12.9s4.2-6.1,4.2-6.1"/>
	<path class="st3" d="M51.9,332.4c0,0-2.5-6.4-5.7-11.4c-3.1-5.1-7.3-9.6-7.3-9.6"/>
	<path class="st3" d="M45,358.2c0,0,0.7-6-1.9-11c-2.6-5.1-5.6-11.7-6.8-14.3"/>
	<path class="st2" d="M91.4,265.9c0,0,0.5-3.1-3.1-8.2s-6-8.1-6-8.1s-3.4,6.8-0.1,11.9s8.2,10.1,8.2,10.1L91.4,265.9z"/>
	<path class="st2" d="M81.7,284.3c0,0,0.5-3.1-3.1-8.2s-6-8.1-6-8.1s-3.4,6.8-0.1,11.9s8.2,10.1,8.2,10.1L81.7,284.3z"/>
	<path class="st2" d="M90.2,271.1c0,0,0.9-3,6.3-6.1c5.5-3,8.9-4.7,8.9-4.7s0.1,7.6-5,10.7c-5.2,3.1-11.8,5.5-11.8,5.5L90.2,271.1z"
		/>
	<path class="st2" d="M78.6,292.8c0,0,1.2-2.9,6.9-5.4c5.8-2.5,9.4-3.7,9.4-3.7s-0.7,7.6-6.1,10.2c-5.5,2.6-12.3,4.3-12.3,4.3
		L78.6,292.8z"/>
	<path class="st2" d="M75.7,318.1c0,0,0.5-3.1,5.7-6.7c5.1-3.6,8.4-5.6,8.4-5.6s0.9,7.6-3.9,11.2c-4.8,3.7-11.1,6.7-11.1,6.7
		L75.7,318.1z"/>
	<path class="st2" d="M74.5,324.3c0,0,1-3-1.9-8.6c-2.8-5.6-4.8-8.9-4.8-8.9s-4.4,6.2-1.8,11.7c2.5,5.5,6.7,11.2,6.7,11.2
		L74.5,324.3z"/>
	<path class="st2" d="M65.8,349.4c0,0-0.4-3.1-5.3-7s-8-6.1-8-6.1s-1.4,7.5,3.2,11.4s10.7,7.4,10.7,7.4L65.8,349.4z"/>
	<path class="st2" d="M67.1,341.7c0,0,0.5-3.1,5.7-6.7c5.1-3.6,8.4-5.6,8.4-5.6s0.9,7.6-3.9,11.2c-4.8,3.7-11.1,6.7-11.1,6.7
		L67.1,341.7z"/>
	<path class="st2" d="M67.2,358.6c0,0-0.3-3.2,3.8-7.9c4-4.8,6.7-7.6,6.7-7.6s2.8,7.1-0.9,11.8s-9.1,9.3-9.1,9.3L67.2,358.6z"/>
	<path class="st3" d="M91.9,265.1c-0.8,3.3-1.8,6.7-2.9,9.5c-3.3,8.6-8.6,13.6-11.7,21.4s0,19-3.1,29.1s-8.1,15.2-8.2,22.3
		c0,7.1,2.8,26.8,2.8,26.8"/>
	<line class="st3" x1="89.8" y1="273.2" x2="95.1" y2="270.4"/>
	<line class="st3" x1="90.7" y1="269.1" x2="89.4" y2="265.2"/>
	<path class="st3" d="M77.7,295.7c0,0,4.5-2.3,9-4.5"/>
	<path class="st3" d="M80.7,289.9c0,0-2.2-7-5.1-11.9"/>
	<path class="st3" d="M75.1,322.6c0,0,4.1-5.5,10.4-9.8"/>
	<path class="st3" d="M73.5,326.9c0,0-1.2-5-2.9-8.8c-1.7-3.8-2-4.3-2-4.3"/>
	<path class="st3" d="M66.3,352.8c0,0-3.5-4.3-5.7-6c-2.2-1.6-3.7-3.2-3.7-3.2"/>
	<path class="st3" d="M66.1,347.4c0,0,2.3-3.7,4.8-6.6c2.5-2.8,5.6-5.2,5.6-5.2"/>
	<path class="st3" d="M67.6,364.3c0,0,0.2-3.8,2.4-6.7c2.2-2.9,4.8-6.7,5.8-8.2"/>
	<polygon class="st2" points="393.1,332.2 398.4,317.1 393.1,323.5 397.2,300.8 390.8,317.1 388.5,285.3 384.8,315.5 380.6,309.5 
		380.6,317.1 375.7,306.9 378.3,324.6 373.8,321.6 381,331.4 	"/>
	<polygon class="st4" points="376.4,328.4 396.1,328.4 392.6,368 380,368 	"/>
	<g>
		<path id="XMLID_34_" class="st5" d="M331.4,197.7c2.9-5.6,4.1-9.6,4.1-10.6c0-1.8-4-2.9-4-2.9c-6.2-3.3-35.6,1.5-48.8,3.7
			c-13.2,2.2-22.4,2.2-22.4,2.2s-1.8-1.5-4-3.3c-2.2-1.8-12.5-13.9-16.5-15s-7.7,1.5-7.7,1.5s-6.6,4-5.5,4.8
			c1.1,0.7,17.2,14.7,21.3,17.2s12.5,1.5,19.8,2.9c6.3,1.3,31.9,2.8,37.8,3.3c0,0,5.9,1.8,13.2-1.1"/>
	</g>
	<g>
		<g>
			<defs>
				<path id="SVGID_1_" d="M331.4,197.7c2.9-5.6,4.1-9.6,4.1-10.6c0-1.8-4-2.9-4-2.9c-6.2-3.3-35.6,1.5-48.8,3.7
					c-13.2,2.2-22.4,2.2-22.4,2.2s-1.8-1.5-4-3.3c-2.2-1.8-12.5-13.9-16.5-15s-7.7,1.5-7.7,1.5s-6.6,4-5.5,4.8
					c1.1,0.7,17.2,14.7,21.3,17.2s12.5,1.5,19.8,2.9c6.3,1.3,31.9,2.8,37.8,3.3c0,0,5.9,1.8,13.2-1.1"/>
			</defs>
			<clipPath id="SVGID_2_">
				<use xlink:href="#SVGID_1_"  style="overflow:visible;"/>
			</clipPath>
			<path class="st6" d="M232,173.2c0,0,3.7-2.6,7.7-1.5s14.3,13.2,16.5,15s4,3.3,4,3.3s9.2,0,22.4-2.2c13.2-2.2,42.6-7,48.8-3.7
				c0,0,4,1.1,4,2.9c0,0.4-0.3,1.5-0.8,3c-0.3,0.1-0.5,0.2-0.5,0.2s-7.3-0.8-23.1-0.4c-15.8,0.4-52.4,2.5-54.8,3.4
				c-1.1,0.4-8.1-1.2-16-4c-6-4.9-13.1-11-13.8-11.4C225.4,177.3,232,173.2,232,173.2z"/>
		</g>
	</g>
	<path class="st7" d="M331.4,197.7c2.9-5.6,4.1-9.6,4.1-10.6c0-1.8-4-2.9-4-2.9c-6.2-3.3-35.6,1.5-48.8,3.7
		c-13.2,2.2-22.4,2.2-22.4,2.2s-1.8-1.5-4-3.3c-2.2-1.8-12.5-13.9-16.5-15s-7.7,1.5-7.7,1.5s-6.6,4-5.5,4.8
		c1.1,0.7,17.2,14.7,21.3,17.2s12.5,1.5,19.8,2.9c6.3,1.3,31.9,2.8,37.8,3.3c0,0,5.9,1.8,13.2-1.1"/>
	<g>
		<path id="XMLID_1_" class="st3" d="M331.4,197.7c2.9-5.6,4.1-9.6,4.1-10.6c0-1.8-4-2.9-4-2.9c-6.2-3.3-35.6,1.5-48.8,3.7
			c-13.2,2.2-22.4,2.2-22.4,2.2s-1.8-1.5-4-3.3c-2.2-1.8-12.5-13.9-16.5-15s-7.7,1.5-7.7,1.5s-6.6,4-5.5,4.8
			c1.1,0.7,17.2,14.7,21.3,17.2s12.5,1.5,19.8,2.9c6.3,1.3,31.9,2.8,37.8,3.3c0,0,5.9,1.8,13.2-1.1"/>
	</g>
	<g>
		<g>
			<path id="XMLID_33_" class="st5" d="M186.4,230.4c-1.3-2.6-4-4.2-6.9-4.2h-66.7c0,0-4.8,0-3.4,9.2s21.2,65.1,26,82
				s5.8,52.6,5.8,52.6h80C221.3,369.9,214.9,284.7,186.4,230.4z"/>
		</g>
		<g>
			<g>
				<defs>
					<path id="SVGID_3_" d="M186.4,230.4c-1.3-2.6-4-4.2-6.9-4.2h-66.7c0,0-4.8,0-3.4,9.2s21.2,65.1,26,82s5.8,52.6,5.8,52.6h80
						C221.3,369.9,214.9,284.7,186.4,230.4z"/>
				</defs>
				<clipPath id="SVGID_4_">
					<use xlink:href="#SVGID_3_"  style="overflow:visible;"/>
				</clipPath>
				<path class="st8" d="M156.4,226.2h23.1c2.9,0,5.6,1.6,6.9,4.2c28.5,54.3,34.9,139.5,34.9,139.5h-35.9l-8.8-33.6l-36.9,7.6
					c-0.3-2.8-0.6-5.7-0.9-8.5l0.8-9c0,0,7.6-8,9.9-9.9c2.4-2,0.8-5.6,1.2-21.1s14.3-26.7,19.5-36.2c5.2-9.6-2.8-15.5-9.9-25.1
					C157.7,230.6,156.7,228.1,156.4,226.2z"/>
			</g>
		</g>
		<g>
			<path id="XMLID_2_" class="st3" d="M186.4,230.4c-1.3-2.6-4-4.2-6.9-4.2h-66.7c0,0-4.8,0-3.4,9.2s21.2,65.1,26,82
				s5.8,52.6,5.8,52.6h80C221.3,369.9,214.9,284.7,186.4,230.4z"/>
		</g>
	</g>
	<path class="st9" d="M124.4,242.1c6.7,15.7,21,78,23.3,127.8h-6.4c0,0-1-35.7-5.8-52.6s-24.6-72.8-26-82s3.4-9.2,3.4-9.2
		S119,229.5,124.4,242.1z"/>
	<g>
		<path class="st9" d="M241.6,210.7c0,0,10.6-6.2,14.7-17.2c4-11-31.6-28.6-47-29.7c-15.4-1.1-19.8,2.9-29,18.7
			s-15.4,37.4-10.6,48.1c4.8,10.6,12.8,13.2,7,22c-5.9,8.8-22.4,33.8-21.3,45.5s12.5,22,29,23.1s38.5-8.8,56.9-24.9
			c18.3-16.1,13.6-40,7-47.7s-16.5-10.6-17.2-18.3C230.2,222.4,241.6,210.7,241.6,210.7z"/>
		<g>
			<path class="st10" d="M196.2,193.2c-5.7,10.5-12.7,24.6-14.9,33.1c-3.9,14.9,16,24.3,10.5,31.5"/>
			<path class="st10" d="M203.9,179.5c0,0-2.2,3.7-5.2,9.3"/>
			<path class="st10" d="M174.3,205.9c-0.6,2-1.1,4-1.3,6.1"/>
			<path class="st10" d="M200.1,173.9c0,0-17.4,12.8-24.3,28.2"/>
			<path class="st10" d="M224.2,183.6c12.4,3.5,30.3,9.1,28.8,12.4"/>
			<path class="st10" d="M212.7,180.6c0,0,2.7,0.7,6.6,1.7"/>
			<path class="st10" d="M228.1,174.1c-4.6-1.5-12.1-3.2-22-2.9"/>
			<path class="st10" d="M233.2,176.2c0,0-1.2-0.7-3.5-1.5"/>
		</g>
	</g>
	<g>
		<path class="st11" d="M258.3,240.6c-1.8,3.2-3.7,6.1-3.7,6.1s-6.2,3.5-7.7,3.5s-10.8,5-10.8,5s-7.7-1.9-5-8.5
			c0.5-1.2,1.6-2.8,3.2-4.6c0.5,2.9,1.2,6.7,2.1,7.8c1.5,1.8,3.7-1.8,8.8-4.4C248.6,243.8,254,242.3,258.3,240.6z"/>
		<path class="st11" d="M277.2,225.8c11.3-10.5,25.7-23.9,25.7-23.9l8.3-1.2l1,0.6c0,0-23.5,20.8-28.5,23.1
			C280.5,225.8,278.9,225.6,277.2,225.8z"/>
		<path class="st11" d="M265.3,236.7c0.3-0.2,0.6-0.5,0.9-0.8c-0.5,0.8-0.7,1.2-0.7,1.2S265.4,236.9,265.3,236.7z"/>
	</g>
	<g class="st12">
		<path class="st5" d="M258.3,240.6c-1.8,3.2-3.7,6.1-3.7,6.1s-6.2,3.5-7.7,3.5s-10.8,5-10.8,5s-7.7-1.9-5-8.5
			c0.5-1.2,1.6-2.8,3.2-4.6c0.5,2.9,1.2,6.7,2.1,7.8c1.5,1.8,3.7-1.8,8.8-4.4C248.6,243.8,254,242.3,258.3,240.6z"/>
		<path class="st5" d="M277.2,225.8c11.3-10.5,25.7-23.9,25.7-23.9l8.3-1.2l1,0.6c0,0-23.5,20.8-28.5,23.1
			C280.5,225.8,278.9,225.6,277.2,225.8z"/>
		<path class="st5" d="M265.3,236.7c0.3-0.2,0.6-0.5,0.9-0.8c-0.5,0.8-0.7,1.2-0.7,1.2S265.4,236.9,265.3,236.7z"/>
	</g>
	<path class="st13" d="M335.5,187.2c0,0.1,0,0.1,0,0.2C335.5,187.3,335.5,187.2,335.5,187.2z"/>
	<path class="st13" d="M331.4,197.7c2.4-4.5,3.6-8.1,4-9.7C335,189.7,333.7,193.2,331.4,197.7z"/>
	<path class="st13" d="M335.5,187.4c0,0.1,0,0.1,0,0.2C335.5,187.6,335.5,187.5,335.5,187.4z"/>
	<path class="st13" d="M335.4,187.7c0,0.1,0,0.2-0.1,0.3C335.4,187.9,335.4,187.8,335.4,187.7z"/>
	<path class="st5" d="M331.4,197.7c-2.8,5.5-7.3,12.5-13.8,19.5c-13.2,14.3-51.4,51.7-55,54.3c-3.7,2.6-2.6,9.9,0,17.2
		c2.6,7.3,12.1,18,11.7,29.7s-4,29.7-3.7,33.4c0.4,3.7,9.5,16.1,9.5,16.1h-94.7c0,0,11.8-15,11.8-20.1s-16.2-70.9-16.9-75.6
		c-0.7-4.8,2.2-8.1,8.1-8.4c5.9-0.4,28.3-5.1,29.4-8.8c1.1-3.7-5.9-17.6-5.9-17.6l22,1.1c0,0,1.1,9.5,2.6,11.4
		c1.5,1.8,3.7-1.8,8.8-4.4c5.1-2.6,15-4.8,18.7-7.7c3.7-2.9,38.9-36,38.9-36"/>
	<path class="st3" d="M302.8,201.9c0,0,11.7,0.2,18.3-5.2"/>
	<g>
		<path id="XMLID_31_" class="st5" d="M217.7,255.1c1.1-3.7-5.9-17.6-5.9-17.6l22,1.1c0,0,1.1,9.5,2.6,11.4c1.5,1.8,3.7-1.8,8.8-4.4
			c0.4-0.2,0.8-0.4,1.3-0.6l1.3,20.9c0,0-1.9,20.3-25.1,16.4c-9.4-1.6-19.4-9.9-28-19.3C203.6,261.3,216.9,257.9,217.7,255.1z"/>
	</g>
	<g>
		<g>
			<defs>
				<path id="SVGID_5_" d="M217.7,255.1c1.1-3.7-5.9-17.6-5.9-17.6l22,1.1c0,0,1.1,9.5,2.6,11.4c1.5,1.8,3.7-1.8,8.8-4.4
					c0.4-0.2,0.8-0.4,1.3-0.6l1.3,20.9c0,0-1.9,20.3-25.1,16.4c-9.4-1.6-19.4-9.9-28-19.3C203.6,261.3,216.9,257.9,217.7,255.1z"/>
			</defs>
			<clipPath id="SVGID_6_">
				<use xlink:href="#SVGID_5_"  style="overflow:visible;"/>
			</clipPath>
			<path class="st14" d="M218.3,240.2c0,0,1.3,7.5,2.4,15.7c1.1,8.3,1.9,14.4,1.9,14.4l-4.9-15.3l-5.5-16.2
				C212.2,238.9,217.5,238.9,218.3,240.2z"/>
		</g>
	</g>
	<g>
		<g>
			<defs>
				<path id="SVGID_7_" d="M217.7,255.1c1.1-3.7-5.9-17.6-5.9-17.6l22,1.1c0,0,1.1,9.5,2.6,11.4c1.5,1.8,3.7-1.8,8.8-4.4
					c0.4-0.2,0.8-0.4,1.3-0.6l1.3,20.9c0,0-1.9,20.3-25.1,16.4c-9.4-1.6-19.4-9.9-28-19.3C203.6,261.3,216.9,257.9,217.7,255.1z"/>
			</defs>
			<clipPath id="SVGID_8_">
				<use xlink:href="#SVGID_7_"  style="overflow:visible;"/>
			</clipPath>
			<path class="st15" d="M218.3,240.2c0,0,1.3,7.5,2.4,15.7c1.1,8.3,1.9,14.4,1.9,14.4l-4.9-15.3l-5.5-16.2
				C212.2,238.9,217.5,238.9,218.3,240.2z"/>
		</g>
	</g>
	<g>
		<path id="XMLID_3_" class="st3" d="M217.7,255.1c1.1-3.7-5.9-17.6-5.9-17.6l22,1.1c0,0,1.1,9.5,2.6,11.4c1.5,1.8,3.7-1.8,8.8-4.4
			c0.4-0.2,0.8-0.4,1.3-0.6l1.3,20.9c0,0-1.9,20.3-25.1,16.4c-9.4-1.6-19.4-9.9-28-19.3C203.6,261.3,216.9,257.9,217.7,255.1z"/>
	</g>
	<g>
		<path id="XMLID_30_" class="st16" d="M236.4,249.9c1.5,1.8,3.7-1.8,8.8-4.4c3.2-1.6,8.4-3.1,12.7-4.7c1.2-2.9,2.8-6.6,3.8-8.9
			c1.8-4,4.8-1.5,4.8-1.5s1.8-1.8,3.7-5.9c1.8-4,4.8-3.7,8.8-4.4s12.5-8.4,12.5-8.4s3.9-3,5.6-4.5c1.9,3.7,6.4,10.3,16.3,14.4
			c-15.7,16.4-47.5,47.5-50.9,49.9c-3.7,2.6-2.6,9.9,0,17.2c2.6,7.3,12.1,18,11.7,29.7s-4,29.7-3.7,33.4c0.3,3.3,7.6,13.5,9.2,15.7
			l-3.7,0.4h-19.4c0.1-9.8,0.1-50-6.6-66C242.3,283.7,236.4,249.9,236.4,249.9z"/>
	</g>
	<g>
		<g>
			<defs>
				<path id="SVGID_9_" d="M236.4,249.9c1.5,1.8,3.7-1.8,8.8-4.4c3.2-1.6,8.4-3.1,12.7-4.7c1.2-2.9,2.8-6.6,3.8-8.9
					c1.8-4,4.8-1.5,4.8-1.5s1.8-1.8,3.7-5.9c1.8-4,4.8-3.7,8.8-4.4s12.5-8.4,12.5-8.4s3.9-3,5.6-4.5c1.9,3.7,6.4,10.3,16.3,14.4
					c-15.7,16.4-47.5,47.5-50.9,49.9c-3.7,2.6-2.6,9.9,0,17.2c2.6,7.3,12.1,18,11.7,29.7s-4,29.7-3.7,33.4
					c0.3,3.3,7.6,13.5,9.2,15.7l-3.7,0.4h-19.4c0.1-9.8,0.1-50-6.6-66C242.3,283.7,236.4,249.9,236.4,249.9z"/>
			</defs>
			<clipPath id="SVGID_10_">
				<use xlink:href="#SVGID_9_"  style="overflow:visible;"/>
			</clipPath>
			<path class="st17" d="M245.2,245.5c3.2-1.6,8.4-3.1,12.7-4.7c1.2-2.9,2.8-6.6,3.8-8.9c1.8-4,4.8-1.5,4.8-1.5s1.8-1.8,3.7-5.9
				c1.8-4,4.8-3.7,8.8-4.4s12.5-8.4,12.5-8.4s3.9-3,5.6-4.5c0.6,1.2,1.6,2.8,2.9,4.5c-6.6,5.5-13.8,11.4-16.3,12.6
				c-5,2.3-6.2,0.4-10,2.7c-3.9,2.3-8.1,10-8.1,10s-2.3-6.2-4.2-1.9c-1.9,4.2-6.6,11.6-6.6,11.6s-6.2,3.5-7.7,3.5
				c-1.2,0-7.1,3.1-9.7,4.4c-0.6-2.9-0.9-4.7-0.9-4.7C237.9,251.8,240.1,248.1,245.2,245.5z"/>
		</g>
	</g>
	<g>
		<path id="XMLID_4_" class="st3" d="M236.4,249.9c1.5,1.8,3.7-1.8,8.8-4.4c3.2-1.6,8.4-3.1,12.7-4.7c1.2-2.9,2.8-6.6,3.8-8.9
			c1.8-4,4.8-1.5,4.8-1.5s1.8-1.8,3.7-5.9c1.8-4,4.8-3.7,8.8-4.4s12.5-8.4,12.5-8.4s3.9-3,5.6-4.5c1.9,3.7,6.4,10.3,16.3,14.4
			c-15.7,16.4-47.5,47.5-50.9,49.9c-3.7,2.6-2.6,9.9,0,17.2c2.6,7.3,12.1,18,11.7,29.7s-4,29.7-3.7,33.4c0.3,3.3,7.6,13.5,9.2,15.7
			l-3.7,0.4h-19.4c0.1-9.8,0.1-50-6.6-66C242.3,283.7,236.4,249.9,236.4,249.9z"/>
	</g>
	<g>
		<g>
			<path id="XMLID_29_" class="st18" d="M236.2,248.6c0,0,4.6-1.4,7.4,1.1c2.8,2.5,7,15.1,9.5,28.8c2.5,13.7-3,23.6-3,23.6
				s-5.8-15.1-7.5-22.5C240.7,272.2,236.2,248.6,236.2,248.6z"/>
		</g>
		<g>
			<g>
				<path id="SVGID_13_" class="st18" d="M236.2,248.6c0,0,4.6-1.4,7.4,1.1c2.8,2.5,7,15.1,9.5,28.8c2.5,13.7-3,23.6-3,23.6
					s-5.8-15.1-7.5-22.5C240.7,272.2,236.2,248.6,236.2,248.6z"/>
			</g>
			<g>
				<defs>
					<path id="SVGID_11_" d="M236.2,248.6c0,0,4.6-1.4,7.4,1.1c2.8,2.5,7,15.1,9.5,28.8c2.5,13.7-3,23.6-3,23.6s-5.8-15.1-7.5-22.5
						C240.7,272.2,236.2,248.6,236.2,248.6z"/>
				</defs>
				<clipPath id="SVGID_12_">
					<use xlink:href="#SVGID_11_"  style="overflow:visible;"/>
				</clipPath>
				<path class="st19" d="M244.9,250.9c0,0-3.3-0.8-4.7-0.3s-3.2,1.9-3.2,1.9l-0.9-3.8c0,0,2.2-1.2,4.4-0.7
					C242.9,248.4,244.9,250.9,244.9,250.9z"/>
			</g>
		</g>
		<g>
			<path id="XMLID_5_" class="st2" d="M236.2,248.6c0,0,4.6-1.4,7.4,1.1c2.8,2.5,7,15.1,9.5,28.8c2.5,13.7-3,23.6-3,23.6
				s-5.8-15.1-7.5-22.5C240.7,272.2,236.2,248.6,236.2,248.6z"/>
		</g>
	</g>
	<polyline class="st3" points="266.9,249.8 261,273.7 274.2,243.6 	"/>
	<g>
		<g>
			<path id="XMLID_28_" class="st20" d="M228.2,368.1h-42.8c0,0,11.8-15,11.8-20.1s-16.2-70.9-16.9-75.6c-0.7-4.8,2.2-8.1,8.1-8.4
				c5.9-0.4,28.3-5.1,29.4-8.8c0,0,8.4,29.7,11.4,49.9C231.6,322.3,229,358.2,228.2,368.1z"/>
		</g>
		<g>
			<g>
				<path id="SVGID_15_" class="st20" d="M228.2,368.1h-42.8c0,0,11.8-15,11.8-20.1s-16.2-70.9-16.9-75.6c-0.7-4.8,2.2-8.1,8.1-8.4
					c5.9-0.4,28.3-5.1,29.4-8.8c0,0,8.4,29.7,11.4,49.9C231.6,322.3,229,358.2,228.2,368.1z"/>
			</g>
			<g>
				<defs>
					<path id="SVGID_14_" d="M228.2,368.1h-42.8c0,0,11.8-15,11.8-20.1s-16.2-70.9-16.9-75.6c-0.7-4.8,2.2-8.1,8.1-8.4
						c5.9-0.4,28.3-5.1,29.4-8.8c0,0,8.4,29.7,11.4,49.9C231.6,322.3,229,358.2,228.2,368.1z"/>
				</defs>
				<clipPath id="SVGID_16_">
					<use xlink:href="#SVGID_14_"  style="overflow:visible;"/>
				</clipPath>
				<path class="st21" d="M188.4,263.9c4.8-0.3,20.7-3.6,26.9-6.7l-2.2,5.2c0,0-5.6,3.2-13.1,4.5s-14.4,1.1-18.9,7.7
					c-0.1,0.1-0.1,0.2-0.2,0.3c-0.3-1.3-0.5-2.2-0.5-2.6C179.6,267.5,182.5,264.2,188.4,263.9z"/>
			</g>
		</g>
		<g>
			<path id="XMLID_6_" class="st16" d="M228.2,368.1h-42.8c0,0,11.8-15,11.8-20.1s-16.2-70.9-16.9-75.6c-0.7-4.8,2.2-8.1,8.1-8.4
				c5.9-0.4,28.3-5.1,29.4-8.8c0,0,8.4,29.7,11.4,49.9C231.6,322.3,229,358.2,228.2,368.1z"/>
		</g>
	</g>
	<g>
		<g>
			<path id="XMLID_27_" class="st18" d="M217.7,255.1c0,0,11.3,36,11.4,49.9c0,0-16.1-19.5-18.2-33.2
				C208.8,258.1,217.7,255.1,217.7,255.1z"/>
		</g>
		<g>
			<g>
				<path id="SVGID_17_" class="st18" d="M217.7,255.1c0,0,11.3,36,11.4,49.9c0,0-16.1-19.5-18.2-33.2
					C208.8,258.1,217.7,255.1,217.7,255.1z"/>
			</g>
			<g>
				<defs>
					<path id="SVGID_18_" d="M217.7,255.1c0,0,11.3,36,11.4,49.9c0,0-16.1-19.5-18.2-33.2C208.8,258.1,217.7,255.1,217.7,255.1z"/>
				</defs>
				<clipPath id="SVGID_19_">
					<use xlink:href="#SVGID_18_"  style="overflow:visible;"/>
				</clipPath>
				<path class="st22" d="M219.7,259.7c0,0-5.1-0.5-8.8,4.3c0,0,2.2-6.5,6.8-8.9L219.7,259.7z"/>
			</g>
		</g>
		<g>
			<path id="XMLID_7_" class="st2" d="M217.7,255.1c0,0,11.3,36,11.4,49.9c0,0-16.1-19.5-18.2-33.2
				C208.8,258.1,217.7,255.1,217.7,255.1z"/>
		</g>
	</g>
	<g>
		<path id="XMLID_26_" class="st23" d="M96.9,361.3c0,0-8.3,0.3-13.7,1.1c-5.4,0.8-10.9,0.9-10.9,0.9s3-6.1,6.2-7.8
			c3.2-1.7,9-4.8,13.9-4.1c4.9,0.7,11.8,5.5,11.2,7.1C103,360.2,100.3,360.8,96.9,361.3z"/>
	</g>
	<g>
		<g>
			<defs>
				<path id="SVGID_20_" d="M96.9,361.3c0,0-8.3,0.3-13.7,1.1c-5.4,0.8-10.9,0.9-10.9,0.9s3-6.1,6.2-7.8c3.2-1.7,9-4.8,13.9-4.1
					c4.9,0.7,11.8,5.5,11.2,7.1C103,360.2,100.3,360.8,96.9,361.3z"/>
			</defs>
			<clipPath id="SVGID_21_">
				<use xlink:href="#SVGID_20_"  style="overflow:visible;"/>
			</clipPath>
			<path class="st24" d="M96.9,361.3c0,0-8.3,0.3-13.7,1.1c-5.4,0.8-10.9,0.9-10.9,0.9s3-6.1,6.2-7.8c3.2-1.7,9-4.8,13.9-4.1
				c4.9,0.7,11.8,5.5,11.2,7.1C103,360.2,100.3,360.8,96.9,361.3z"/>
		</g>
	</g>
	<path class="st7" d="M96.9,361.3c0,0-8.3,0.3-13.7,1.1c-5.4,0.8-10.9,0.9-10.9,0.9s3-6.1,6.2-7.8c3.2-1.7,9-4.8,13.9-4.1
		c4.9,0.7,11.8,5.5,11.2,7.1C103,360.2,100.3,360.8,96.9,361.3z"/>
	<path class="st2" d="M96.9,361.3c0,0-8.3,0.3-13.7,1.1c-5.4,0.8-10.9,0.9-10.9,0.9s3-6.1,6.2-7.8c3.2-1.7,9-4.8,13.9-4.1
		c4.9,0.7,11.8,5.5,11.2,7.1C103,360.2,100.3,360.8,96.9,361.3z"/>
	<g>
		<path id="XMLID_25_" class="st5" d="M83.1,358.8c0,0-6.6-3.4-8.2-3.4s-12.5,7.4-12,8.6s2.6,1.7,3.4,1.3c1.2-0.6,8.5-3.7,8.5-3.7
			l4.8,1.1L83.1,358.8z"/>
	</g>
	<g>
		<g>
			<defs>
				<path id="SVGID_22_" d="M83.1,358.8c0,0-6.6-3.4-8.2-3.4s-12.5,7.4-12,8.6s2.6,1.7,3.4,1.3c1.2-0.6,8.5-3.7,8.5-3.7l4.8,1.1
					L83.1,358.8z"/>
			</defs>
			<clipPath id="SVGID_23_">
				<use xlink:href="#SVGID_22_"  style="overflow:visible;"/>
			</clipPath>
			<path class="st25" d="M83.1,358.8c0,0-6.6-3.4-8.2-3.4s-12.5,7.4-12,8.6s3.1,2.1,3.4,1.3c0.3-0.9,8.5-3.7,8.5-3.7l4.8,1.1
				L83.1,358.8z"/>
		</g>
	</g>
	<path class="st7" d="M83.1,358.8c0,0-6.6-3.4-8.2-3.4s-12.5,7.4-12,8.6s2.6,1.7,3.4,1.3c1.2-0.6,8.5-3.7,8.5-3.7l4.8,1.1
		L83.1,358.8z"/>
	<path class="st16" d="M83.1,358.8c0,0-6.6-3.4-8.2-3.4s-12.5,7.4-12,8.6s3.1,2.1,3.4,1.3c0.3-0.9,8.5-3.7,8.5-3.7l4.8,1.1
		L83.1,358.8z"/>
	<g>
		<path id="XMLID_8_" class="st3" d="M83.1,358.8c0,0-6.6-3.4-8.2-3.4s-12.5,7.4-12,8.6s2.6,1.7,3.4,1.3c1.2-0.6,8.5-3.7,8.5-3.7
			l4.8,1.1L83.1,358.8z"/>
	</g>
	<g>
		<path id="XMLID_24_" class="st5" d="M87.8,353.2c0,0-8.8-0.3-10.5,0.6s-9.6,14.4-8.4,15.3c1.2,1,4.4,0.7,4.3-0.4s7.2-8.3,7.2-8.3
			l5.7-1.3L87.8,353.2z"/>
	</g>
	<g>
		<g>
			<defs>
				<path id="SVGID_24_" d="M87.8,353.2c0,0-8.8-0.3-10.5,0.6s-9.6,14.4-8.4,15.3c1.2,1,4.4,0.7,4.3-0.4s7.2-8.3,7.2-8.3l5.7-1.3
					L87.8,353.2z"/>
			</defs>
			<clipPath id="SVGID_25_">
				<use xlink:href="#SVGID_24_"  style="overflow:visible;"/>
			</clipPath>
			<path class="st26" d="M87.8,353.2c0,0-8.8-0.3-10.5,0.6s-9.6,14.4-8.4,15.3c1.2,1,4.4,0.7,4.3-0.4s7.2-8.3,7.2-8.3l5.7-1.3
				L87.8,353.2z"/>
		</g>
	</g>
	<path class="st7" d="M87.8,353.2c0,0-8.8-0.3-10.5,0.6s-9.6,14.4-8.4,15.3c1.2,1,4.4,0.7,4.3-0.4s7.2-8.3,7.2-8.3l5.7-1.3
		L87.8,353.2z"/>
	<path class="st16" d="M87.8,353.2c0,0-8.8-0.3-10.5,0.6s-9.6,14.4-8.4,15.3c1.2,1,4.4,0.7,4.3-0.4s7.2-8.3,7.2-8.3l5.7-1.3
		L87.8,353.2z"/>
	<g>
		<path id="XMLID_9_" class="st3" d="M87.8,353.2c0,0-8.8-0.3-10.5,0.6s-9.6,14.4-8.4,15.3c1.2,1,4.4,0.7,4.3-0.4s7.2-8.3,7.2-8.3
			l5.7-1.3L87.8,353.2z"/>
	</g>
	<g>
		<path id="XMLID_23_" class="st5" d="M93,351.4c0,0-8.9-0.3-10.6,0.6c-1.8,0.9-9.7,14.5-8.5,15.5s4.5,0.7,4.4-0.4s7.3-8.4,7.3-8.4
			l5.8-1.3L93,351.4z"/>
	</g>
	<g>
		<g>
			<defs>
				<path id="SVGID_26_" d="M93,351.4c0,0-8.9-0.3-10.6,0.6c-1.8,0.9-9.7,14.5-8.5,15.5s4.5,0.7,4.4-0.4s7.3-8.4,7.3-8.4l5.8-1.3
					L93,351.4z"/>
			</defs>
			<clipPath id="SVGID_27_">
				<use xlink:href="#SVGID_26_"  style="overflow:visible;"/>
			</clipPath>
			<path class="st27" d="M93,351.4c0,0-8.9-0.3-10.6,0.6c-1.8,0.9-9.7,14.5-8.5,15.5s4.5,0.7,4.4-0.4s7.3-8.4,7.3-8.4l5.8-1.3
				L93,351.4z"/>
		</g>
	</g>
	<path class="st7" d="M93,351.4c0,0-8.9-0.3-10.6,0.6c-1.8,0.9-9.7,14.5-8.5,15.5s4.5,0.7,4.4-0.4s7.3-8.4,7.3-8.4l5.8-1.3L93,351.4
		z"/>
	<path class="st16" d="M93,351.4c0,0-8.9-0.3-10.6,0.6c-1.8,0.9-9.7,14.5-8.5,15.5s4.5,0.7,4.4-0.4s7.3-8.4,7.3-8.4l5.8-1.3
		L93,351.4z"/>
	<g>
		<path id="XMLID_10_" class="st3" d="M93,351.4c0,0-8.9-0.3-10.6,0.6c-1.8,0.9-9.7,14.5-8.5,15.5s4.5,0.7,4.4-0.4s7.3-8.4,7.3-8.4
			l5.8-1.3L93,351.4z"/>
	</g>
	<path class="st28" d="M168.3,301.2c-4.8,4.3-3.2,4.3-2.1,8s-0.8-1.3-5.3-1.1c-4.5,0.3-3.2,6.1-2.7,7.2s-5.6,2.4-4.5,4.8
		s7.2,5.9,10.7,9.3c3.5,3.5-9.1-5.6-13.3-5.9c-1.3-0.1-2.4,0.1-3.3,0.1c0.7-1.9,2.3-5.8,3.6-7.7c1.8-2.6,2.9-1.8,2.9-1.8
		s-0.7-3.3,0.4-4.4s5.9-5.9,5.9-5.9l0.2,0.3c1-2,2-4.3,3.1-6.9c3.1-7.2,13.9-27.5,15.8-30.5c1.4-2.2,12.9-3.8,18.7-4.4l-0.5,4.6
		l-0.1,0.1c0,0-7.2,1.3-9.6,1.6c-2.4,0.3-5.3,2.4-5.1,4c0.3,1.6,7.2,8.8,5.1,9.3c-2.1,0.5-4.5-5.3-6.9-4.5
		C178.7,278.3,173.1,296.9,168.3,301.2z"/>
	<path id="XMLID_22_" class="st16" d="M193.8,300.6c-6.4,9.9-19.3,34.9-23.1,37.8c-5.9,4.4-45.1,15.1-48.9,18s-3.5,5.9-7.1,6.9
		c-3.6,1.1-17,4.1-22.1,4.6s-2.8-2.7-2.8-2.7l8.7-6l-7.6-1.9c0,0-7.6,9.2-9.1,9.7s-4,0-3.8-1.1c0.3-1.8,8.4-16.6,11.3-17.3
		c2.9-0.6,20.4,1.8,20.4,1.8s36.8-24.8,37.4-25.7c0,0,2.2-6.2,4-8.8s2.9-1.8,2.9-1.8s-0.7-3.3,0.4-4.4s5.9-5.9,5.9-5.9l0.2,0.3
		c1-2,2-4.3,3.1-6.9c3.1-7.2,13.9-27.5,15.8-30.5c1.4-2.2,12.9-3.8,18.7-4.4"/>
	<g>
		<path class="st3" d="M193.7,287c0.3,0.9,0.5,1.8,0.7,2.7"/>
		<path class="st3" d="M184,270.4c0,0,4.7,5.1,7.9,11.9"/>
		<path class="st3" d="M169.3,327.2c-2.7-4-7-9.1-11.7-10.5"/>
		<path class="st3" d="M172.3,332.1c0,0-0.5-0.9-1.3-2.4"/>
		<path class="st3" d="M172.3,325.8c0,0-4.9-12.3-9.8-15.4c-4.9-3.2-2.1,3.2-2.1,3.2"/>
	</g>
	<g>
		<path id="XMLID_21_" class="st5" d="M121.9,356.3c-3.8,2.9-3.5,5.9-7.1,6.9c-3.6,1.1-17,4.1-22.1,4.6s-2.8-2.7-2.8-2.7l8.7-6
			l-7.6-1.9c0,0-7.6,9.2-9.1,9.7s-4.1,0.7-3.8-1.1c0.7-3.5,8.4-16.6,11.3-17.3c2.9-0.6,20.4,1.8,20.4,1.8s33.5-23,37.2-25.5
			c14.2,1.4,21,8.8,23.8,13.3l-0.1,0.1C164.9,342.7,125.6,353.4,121.9,356.3z"/>
	</g>
	<g>
		<g>
			<defs>
				<path id="SVGID_28_" d="M121.9,356.3c-3.8,2.9-3.5,5.9-7.1,6.9c-3.6,1.1-17,4.1-22.1,4.6s-2.8-2.7-2.8-2.7l8.7-6l-7.6-1.9
					c0,0-7.6,9.2-9.1,9.7s-4.1,0.7-3.8-1.1c0.7-3.5,8.4-16.6,11.3-17.3c2.9-0.6,20.4,1.8,20.4,1.8s33.5-23,37.2-25.5
					c14.2,1.4,21,8.8,23.8,13.3l-0.1,0.1C164.9,342.7,125.6,353.4,121.9,356.3z"/>
			</defs>
			<clipPath id="SVGID_30_">
				<use xlink:href="#SVGID_28_"  style="overflow:visible;"/>
			</clipPath>
			<path class="st29" d="M78.1,365.9c1.8-4.5,8.4-16.6,11.3-17.3c2.9-0.6,20.4,1.8,20.4,1.8s33.5-23,37.2-25.5
				c4.3,0.4,7.9,1.4,10.9,2.6c-5.3,3-40.6,23-45,23.9c-4.7,1-20.5-1.6-23.2,0.3c-1.8,1.2-7,9.5-10.5,15.4
				C78.1,367,77.7,366.8,78.1,365.9z"/>
		</g>
	</g>
	<g>
		<g>
			<path id="SVGID_29_" class="st5" d="M121.9,356.3c-3.8,2.9-3.5,5.9-7.1,6.9c-3.6,1.1-17,4.1-22.1,4.6s-2.8-2.7-2.8-2.7l8.7-6
				l-7.6-1.9c0,0-7.6,9.2-9.1,9.7s-4.1,0.7-3.8-1.1c0.7-3.5,8.4-16.6,11.3-17.3c2.9-0.6,20.4,1.8,20.4,1.8s33.5-23,37.2-25.5
				c14.2,1.4,21,8.8,23.8,13.3l-0.1,0.1C164.9,342.7,125.6,353.4,121.9,356.3z"/>
		</g>
		<g>
			<defs>
				<path id="SVGID_31_" d="M121.9,356.3c-3.8,2.9-3.5,5.9-7.1,6.9c-3.6,1.1-17,4.1-22.1,4.6s-2.8-2.7-2.8-2.7l8.7-6l-7.6-1.9
					c0,0-7.6,9.2-9.1,9.7s-4.1,0.7-3.8-1.1c0.7-3.5,8.4-16.6,11.3-17.3c2.9-0.6,20.4,1.8,20.4,1.8s33.5-23,37.2-25.5
					c14.2,1.4,21,8.8,23.8,13.3l-0.1,0.1C164.9,342.7,125.6,353.4,121.9,356.3z"/>
			</defs>
			<clipPath id="SVGID_32_">
				<use xlink:href="#SVGID_31_"  style="overflow:visible;"/>
			</clipPath>
			<path class="st30" d="M78.1,365.9c2.8-6.4,8.4-16.6,11.3-17.3c2.9-0.6,20.4,1.8,20.4,1.8s33.5-23,37.2-25.5
				c4.3,0.4,7.9,1.4,10.9,2.6c-5.3,3-40.6,23-45,23.9c-4.7,1-20.5-1.6-23.2,0.3c-1.8,1.2-7,9.5-10.5,15.4
				C78.1,367,77.7,366.8,78.1,365.9z"/>
		</g>
	</g>
	<g>
		<path id="XMLID_11_" class="st3" d="M121.9,356.3c-3.8,2.9-3.5,5.9-7.1,6.9c-3.6,1.1-17,4.1-22.1,4.6s-2.8-2.7-2.8-2.7l8.7-6
			l-7.6-1.9c0,0-7.6,9.2-9.1,9.7s-4.1,0.7-3.8-1.1c0.7-3.5,8.4-16.6,11.3-17.3c2.9-0.6,20.4,1.8,20.4,1.8s33.5-23,37.2-25.5
			c14.2,1.4,21,8.8,23.8,13.3l-0.1,0.1C164.9,342.7,125.6,353.4,121.9,356.3z"/>
	</g>
	<g>
		<g>
			<path id="XMLID_20_" class="st5" d="M210.3,181.7l30.1,12.6c0,0,0.3,7.8,3.9,15.3s1.5,21.8-1.9,29.5s-18.5,4.7-24,3.7
				s-10.9-3.2-10.9-3.2s-4.9,2.2-9.8-1.4C197.6,238.3,213.7,193,210.3,181.7z"/>
		</g>
		<g>
			<g>
				<defs>
					<path id="SVGID_33_" d="M210.3,181.7l30.1,12.6c0,0,0.3,7.8,3.9,15.3s1.5,21.8-1.9,29.5s-18.5,4.7-24,3.7s-10.9-3.2-10.9-3.2
						s-4.9,2.2-9.8-1.4C197.6,238.3,213.7,193,210.3,181.7z"/>
				</defs>
				<clipPath id="SVGID_34_">
					<use xlink:href="#SVGID_33_"  style="overflow:visible;"/>
				</clipPath>
				<path class="st31" d="M210.3,181.7l30.1,12.6c0,0,0.3,7.8,3.9,15.3s1.5,21.8-1.9,29.5c-0.6,1.3-1.5,2.3-2.7,3v-0.6
					c0,0,5.6-13.9,4.5-21.8c-1.1-8-5.6-12-6.1-17c-0.5-5.1-0.3-7.5-10.4-11.2c-10.1-3.7-14.4-7.2-15.4-3.5
					c-1.1,3.7-5.3,28.2-8.3,34.1c-2.9,5.9-2.7,12,1.9,14.6c3.6,2.1,9.2,5,14.6,6.4c-0.8-0.1-1.5-0.3-2.1-0.4
					c-5.5-1-10.9-3.2-10.9-3.2s-4.9,2.2-9.8-1.4C197.6,238.3,213.7,193,210.3,181.7z"/>
			</g>
		</g>
		<g>
			<g>
				<defs>
					<path id="SVGID_35_" d="M210.3,181.7l30.1,12.6c0,0,0.3,7.8,3.9,15.3s1.5,21.8-1.9,29.5s-18.5,4.7-24,3.7s-10.9-3.2-10.9-3.2
						s-4.9,2.2-9.8-1.4C197.6,238.3,213.7,193,210.3,181.7z"/>
				</defs>
				<clipPath id="SVGID_36_">
					<use xlink:href="#SVGID_35_"  style="overflow:visible;"/>
				</clipPath>
				<path class="st32" d="M210.3,181.7l30.1,12.6c0,0,0.3,7.8,3.9,15.3s1.5,21.8-1.9,29.5c-0.6,1.3-1.5,2.3-2.7,3v-0.6
					c0,0,5.6-13.9,4.5-21.8c-1.1-8-5.6-12-6.1-17c-0.5-5.1-0.3-7.5-10.4-11.2c-10.1-3.7-14.4-7.2-15.4-3.5
					c-1.1,3.7-5.3,28.2-8.3,34.1c-2.9,5.9-2.7,12,1.9,14.6c3.6,2.1,9.2,5,14.6,6.4c-0.8-0.1-1.5-0.3-2.1-0.4
					c-5.5-1-10.9-3.2-10.9-3.2s-4.9,2.2-9.8-1.4C197.6,238.3,213.7,193,210.3,181.7z"/>
			</g>
		</g>
		<g>
			<path id="XMLID_12_" class="st3" d="M210.3,181.7l30.1,12.6c0,0,0.3,7.8,3.9,15.3s1.5,21.8-1.9,29.5s-18.5,4.7-24,3.7
				s-10.9-3.2-10.9-3.2s-4.9,2.2-9.8-1.4C197.6,238.3,213.7,193,210.3,181.7z"/>
		</g>
	</g>
	<path class="st3" d="M225.5,201.4c0,0-0.2,3.2,0.6,5.2s8.4,9.9,8.1,10.7c-0.2,0.8-0.9,3.6-2.2,3.8"/>
	<path class="st3" d="M217.1,208.5c-1.1-2.1-4.5,0-4.5,4.7"/>
	<path class="st3" d="M234.2,202.3c0,0-2.9-1.3-5.6,3.5"/>
	<path class="st33" d="M221.3,215.4c0,0-5,0-9.1,3.8"/>
	<path class="st33" d="M237.7,209.1c0,0-3.3,0.5-5.1,1.4"/>
	<path class="st34" d="M225.8,197c0,0,2.4-1.4,5.1-0.1c2.7,1.3,4.3,2.7,4.2,1.1c-0.2-1.7-3.3-3.5-4.3-3.7
		C229.8,194,225.5,193.3,225.8,197z"/>
	<path class="st34" d="M218.3,193.3c0,0-4.5,3.5-6.5,8.5s-3.6-0.5-2-3.7C211.4,194.7,215.9,191.3,218.3,193.3z"/>
	<path class="st2" d="M197.2,246.8c0,2.3,1.3,4.2,2.9,4.2c1.6,0,2.9-1.9,2.9-4.2s-1.3-8.3-2.9-8.3S197.2,244.5,197.2,246.8z"/>
	<path class="st34" d="M216.8,207.6c0.1,0.3,0.2,0.6,0.3,0.9c0.3,1.5,0.6,4.6-0.1,4.7c-0.6,0.1-2-2.8-2.2-4.2
		c-0.1-0.3-0.1-0.6-0.1-0.9C215.4,207.8,216.2,207.7,216.8,207.6z"/>
	<path class="st34" d="M233.9,202c0.1,0.2,0.2,0.5,0.2,0.8c0.3,1.5,0.3,4.7-0.3,4.9c-0.6,0.1-1.7-2.9-1.9-4.4
		c-0.1-0.4-0.1-0.8-0.1-1.1C232.5,202,233.3,201.9,233.9,202z"/>
	<path class="st35" d="M217.1,208.5l-1-1.9c0,0-2.6,0.4-4.1,2.4"/>
	<path class="st35" d="M233.9,202l-1-1.2c0,0-0.4-0.2-2.8,0.9"/>
	<path class="st3" d="M237.7,229.1c0,0-1.7-3.1-3.9-3.1s-3.9,5.1-3.9,5.1"/>
	<g>
		<g>
			<path id="XMLID_17_" class="st5" d="M310.1,362.4c2.5,0,5.3-1.1,6.3-1.5c1.1-0.5,1.6-1.8,1.1-2.9s-1.8-1.6-2.9-1.1
				c-2,0.9-4.6,1.4-5.3,1.1c-1.3-1.4-3.2-10-0.7-14.1c0.6-0.9,1.1-1.1,1.4-1.1c1.4-0.2,3.6,1.3,4.3,2c0.9,0.8,2.3,0.8,3.1-0.1
				c0.8-0.9,0.8-2.3-0.1-3.1c-0.4-0.4-4-3.6-7.9-3.1c-1.3,0.2-3.2,0.9-4.6,3.2c-3.7,6-1.2,17.6,1.7,19.8
				C307.6,362.1,308.8,362.4,310.1,362.4z"/>
		</g>
		<g>
			<g>
				<defs>
					<path id="SVGID_37_" d="M310.1,362.4c2.5,0,5.3-1.1,6.3-1.5c1.1-0.5,1.6-1.8,1.1-2.9s-1.8-1.6-2.9-1.1c-2,0.9-4.6,1.4-5.3,1.1
						c-1.3-1.4-3.2-10-0.7-14.1c0.6-0.9,1.1-1.1,1.4-1.1c1.4-0.2,3.6,1.3,4.3,2c0.9,0.8,2.3,0.8,3.1-0.1c0.8-0.9,0.8-2.3-0.1-3.1
						c-0.4-0.4-4-3.6-7.9-3.1c-1.3,0.2-3.2,0.9-4.6,3.2c-3.7,6-1.2,17.6,1.7,19.8C307.6,362.1,308.8,362.4,310.1,362.4z"/>
				</defs>
				<clipPath id="SVGID_38_">
					<use xlink:href="#SVGID_37_"  style="overflow:visible;"/>
				</clipPath>
				<path class="st36" d="M307.2,343.2c0.9-1.8,2.1-2.3,3-2.4c2.5-0.4,4.8,2.1,5.1,2.4c0.5,0.6,0.6,1.4,0.2,2.1
					c-0.4-0.1-0.7-0.3-1.1-0.5c-0.8-0.7-2.9-2.2-4.3-2c-0.4,0-0.9,0.2-1.4,1.1c-2.5,4.1-0.6,12.7,0.7,14.1c0.7,0.3,3.3-0.2,5.3-1.1
					c0.3-0.1,0.5-0.2,0.8-0.2c-0.1,0.6-0.4,1.1-0.8,1.3c-0.7,0.3-2.5,1.2-4.1,1.2c-0.8,0-1.6-0.2-2.2-0.8
					C306.4,356.7,304.8,347.8,307.2,343.2z"/>
			</g>
		</g>
		<g>
			<g>
				<defs>
					<path id="SVGID_40_" d="M310.1,362.4c2.5,0,5.3-1.1,6.3-1.5c1.1-0.5,1.6-1.8,1.1-2.9s-1.8-1.6-2.9-1.1c-2,0.9-4.6,1.4-5.3,1.1
						c-1.3-1.4-3.2-10-0.7-14.1c0.6-0.9,1.1-1.1,1.4-1.1c1.4-0.2,3.6,1.3,4.3,2c0.9,0.8,2.3,0.8,3.1-0.1c0.8-0.9,0.8-2.3-0.1-3.1
						c-0.4-0.4-4-3.6-7.9-3.1c-1.3,0.2-3.2,0.9-4.6,3.2c-3.7,6-1.2,17.6,1.7,19.8C307.6,362.1,308.8,362.4,310.1,362.4z"/>
				</defs>
				<clipPath id="SVGID_41_">
					<use xlink:href="#SVGID_40_"  style="overflow:visible;"/>
				</clipPath>
				<path class="st37" d="M307.2,343.2c0.9-1.8,2.1-2.3,3-2.4c2.5-0.4,4.8,2.1,5.1,2.4c0.5,0.6,0.6,1.4,0.2,2.1
					c-0.4-0.1-0.7-0.3-1.1-0.5c-0.8-0.7-2.9-2.2-4.3-2c-0.4,0-0.9,0.2-1.4,1.1c-2.5,4.1-0.6,12.7,0.7,14.1c0.7,0.3,3.3-0.2,5.3-1.1
					c0.3-0.1,0.5-0.2,0.8-0.2c-0.1,0.6-0.4,1.1-0.8,1.3c-0.7,0.3-2.5,1.2-4.1,1.2c-0.8,0-1.6-0.2-2.2-0.8
					C306.4,356.7,304.8,347.8,307.2,343.2z"/>
			</g>
		</g>
		<g>
			<path id="XMLID_13_" class="st3" d="M310.1,362.4c2.5,0,5.3-1.1,6.3-1.5c1.1-0.5,1.6-1.8,1.1-2.9s-1.8-1.6-2.9-1.1
				c-2,0.9-4.6,1.4-5.3,1.1c-1.3-1.4-3.2-10-0.7-14.1c0.6-0.9,1.1-1.1,1.4-1.1c1.4-0.2,3.6,1.3,4.3,2c0.9,0.8,2.3,0.8,3.1-0.1
				c0.8-0.9,0.8-2.3-0.1-3.1c-0.4-0.4-4-3.6-7.9-3.1c-1.3,0.2-3.2,0.9-4.6,3.2c-3.7,6-1.2,17.6,1.7,19.8
				C307.6,362.1,308.8,362.4,310.1,362.4z"/>
		</g>
	</g>
	<g>
		<g>
			<rect id="XMLID_16_" x="313.9" y="336.6" class="st5" width="24.1" height="31.9"/>
		</g>
		<g>
			<g>
				<rect id="SVGID_39_" x="313.9" y="336.6" class="st2" width="24.1" height="31.9"/>
			</g>
			<g>
				<defs>
					<rect id="SVGID_42_" x="313.9" y="336.6" width="24.1" height="31.9"/>
				</defs>
				<clipPath id="SVGID_43_">
					<use xlink:href="#SVGID_42_"  style="overflow:visible;"/>
				</clipPath>
				<rect x="328.1" y="336.6" class="st38" width="9.9" height="31.9"/>
			</g>
		</g>
		<g>
			<g>
				<defs>
					<rect id="SVGID_44_" x="313.9" y="336.6" width="24.1" height="31.9"/>
				</defs>
				<clipPath id="SVGID_45_">
					<use xlink:href="#SVGID_44_"  style="overflow:visible;"/>
				</clipPath>
				<rect x="328.1" y="336.6" class="st39" width="9.9" height="31.9"/>
			</g>
		</g>
		<g>
			<rect id="XMLID_14_" x="313.9" y="336.6" class="st3" width="24.1" height="31.9"/>
		</g>
	</g>
	<g id="Device">
		<g>
			<path class="st9" d="M181.8,368.1h102.7l3.4-56.5c0.4-2.3-1.4-4.5-3.8-4.5H182.2c-2.4,0-4.2,2.1-3.8,4.5L181.8,368.1z"/>
			<g>
				<path class="st10" d="M279.4,308.5h-96.5c-2.3,0-4.1,2.1-3.7,4.3"/>
				<path class="st10" d="M287.1,311.9c-0.1-1.9-1.7-3.4-3.8-3.4"/>
			</g>
			<rect x="181.3" y="362.6" class="st13" width="103.6" height="5.5"/>
			<ellipse class="st13" cx="233.5" cy="337.8" rx="7.3" ry="4.4"/>
		</g>
	</g>
	<g id="Table">
		<rect x="25" y="367.4" class="st4" width="385.9" height="9.4"/>
	</g>
	<path class="st2" d="M125.1,149.2h185.7c6.3,0,11.3-5.1,11.3-11.3V31.3c0-6.3-5.1-11.3-11.3-11.3H125.1c-6.3,0-11.3,5.1-11.3,11.3
		v106.5C113.8,144.1,118.9,149.2,125.1,149.2z"/>
	<ellipse class="st4" cx="217.9" cy="63.8" rx="30.9" ry="30.9"/>
	<g>
		<path class="st5" d="M218.2,69.5l10.3,13.2c0.9,1.2,2,1.8,3.3,1.8c0.9,0,1.7-0.3,2.4-1c0.7-0.6,1-1.4,1-2.4c0-0.9-0.3-1.8-1-2.7
			l-11.7-14.5l11-14.5c0.5-0.7,0.8-1.5,0.8-2.4c0-1-0.4-1.9-1.2-2.7s-1.7-1.2-2.7-1.2c-1.2,0-2.3,0.6-3.2,1.8L217.3,58l-10-12.9
			c-1-1.4-2.1-2.1-3.4-2.1c-0.9,0-1.7,0.3-2.3,1s-1,1.4-1,2.3c0,0.7,0.3,1.4,0.8,2.1l11.8,15.1l-11.4,15c-0.6,0.8-0.9,1.5-0.9,2.4
			c0,1,0.4,1.9,1.2,2.6s1.7,1.1,2.7,1.1c1.3,0,2.4-0.6,3.2-1.8L218.2,69.5z"/>
	</g>
	<path class="st5" d="M159.1,126.8h117.7c5,0,9-4,9-9l0,0c0-5-4-9-9-9H159.1c-5,0-9,4-9,9l0,0C150.1,122.8,154.1,126.8,159.1,126.8z
		"/>
	<g>
		<path d="M260.7,120.7c0.2,0,0.3-0.1,0.4-0.2s0.2-0.3,0.2-0.4s0-0.3-0.1-0.4l-0.9-1.4l1.8,0.1c0.2,0,0.4-0.1,0.5-0.2
			s0.2-0.3,0.2-0.4c0-0.2-0.1-0.3-0.2-0.4s-0.3-0.2-0.5-0.2l-1.8,0.1l0.8-1.3c0.1-0.2,0.1-0.3,0.1-0.4c0-0.2-0.1-0.3-0.2-0.5
			c-0.1-0.1-0.3-0.2-0.4-0.2c-0.2,0-0.4,0.1-0.5,0.3l-0.9,1.6l-0.8-1.5c-0.2-0.3-0.4-0.4-0.6-0.4s-0.3,0.1-0.4,0.2s-0.2,0.3-0.2,0.4
			s0,0.3,0.1,0.4l0.9,1.4l-1.8-0.1c-0.2,0-0.4,0.1-0.5,0.2s-0.2,0.3-0.2,0.4c0,0.2,0.1,0.3,0.2,0.4c0.1,0.1,0.3,0.2,0.5,0.2l1.9-0.1
			l-0.8,1.3c-0.1,0.2-0.2,0.3-0.2,0.5s0.1,0.3,0.2,0.4s0.3,0.2,0.4,0.2c0.2,0,0.4-0.1,0.6-0.4l0.8-1.5l0.8,1.5
			C260.2,120.6,260.4,120.7,260.7,120.7z"/>
		<path d="M251.5,120.7c0.2,0,0.3-0.1,0.4-0.2c0.1-0.1,0.2-0.3,0.2-0.4s0-0.3-0.1-0.4l-0.9-1.4l1.8,0.1c0.2,0,0.4-0.1,0.5-0.2
			s0.2-0.3,0.2-0.4c0-0.2-0.1-0.3-0.2-0.4c-0.1-0.1-0.3-0.2-0.5-0.2l-1.8,0.1l0.8-1.3c0.1-0.2,0.1-0.3,0.1-0.4
			c0-0.2-0.1-0.3-0.2-0.5c-0.1-0.1-0.3-0.2-0.4-0.2c-0.2,0-0.4,0.1-0.5,0.3l-0.9,1.6l-0.8-1.5c-0.2-0.3-0.4-0.4-0.6-0.4
			c-0.2,0-0.3,0.1-0.4,0.2c-0.1,0.1-0.2,0.3-0.2,0.4s0,0.3,0.1,0.4l0.9,1.4l-1.8-0.1c-0.2,0-0.4,0.1-0.5,0.2s-0.2,0.3-0.2,0.4
			c0,0.2,0.1,0.3,0.2,0.4c0.1,0.1,0.3,0.2,0.5,0.2l1.9-0.1l-0.8,1.3c-0.1,0.2-0.2,0.3-0.2,0.5s0.1,0.3,0.2,0.4
			c0.1,0.1,0.3,0.2,0.4,0.2c0.2,0,0.4-0.1,0.6-0.4l0.8-1.5l0.8,1.5C251.1,120.6,251.3,120.7,251.5,120.7z"/>
		<path d="M242.3,120.7c0.2,0,0.3-0.1,0.4-0.2c0.1-0.1,0.2-0.3,0.2-0.4s0-0.3-0.1-0.4l-0.9-1.4l1.8,0.1c0.2,0,0.4-0.1,0.5-0.2
			s0.2-0.3,0.2-0.4c0-0.2-0.1-0.3-0.2-0.4c-0.1-0.1-0.3-0.2-0.5-0.2l-1.8,0.1l0.8-1.3c0.1-0.2,0.1-0.3,0.1-0.4
			c0-0.2-0.1-0.3-0.2-0.5c-0.1-0.1-0.3-0.2-0.4-0.2c-0.2,0-0.4,0.1-0.5,0.3l-0.9,1.6l-0.8-1.5c-0.2-0.3-0.4-0.4-0.6-0.4
			c-0.2,0-0.3,0.1-0.4,0.2c-0.1,0.1-0.2,0.3-0.2,0.4s0,0.3,0.1,0.4l0.9,1.4l-1.8-0.1c-0.2,0-0.4,0.1-0.5,0.2s-0.2,0.3-0.2,0.4
			c0,0.2,0.1,0.3,0.2,0.4c0.1,0.1,0.3,0.2,0.5,0.2l1.9-0.1l-0.8,1.3c-0.1,0.2-0.2,0.3-0.2,0.5s0.1,0.3,0.2,0.4
			c0.1,0.1,0.3,0.2,0.4,0.2c0.2,0,0.4-0.1,0.6-0.4l0.8-1.5l0.8,1.5C241.9,120.6,242.1,120.7,242.3,120.7z"/>
		<path d="M233.1,120.7c0.2,0,0.3-0.1,0.4-0.2c0.1-0.1,0.2-0.3,0.2-0.4s0-0.3-0.1-0.4l-0.9-1.4l1.8,0.1c0.2,0,0.4-0.1,0.5-0.2
			s0.2-0.3,0.2-0.4c0-0.2-0.1-0.3-0.2-0.4c-0.1-0.1-0.3-0.2-0.5-0.2l-1.8,0.1l0.8-1.3c0.1-0.2,0.1-0.3,0.1-0.4
			c0-0.2-0.1-0.3-0.2-0.5c-0.1-0.1-0.3-0.2-0.4-0.2c-0.2,0-0.4,0.1-0.5,0.3l-0.9,1.6l-0.8-1.5c-0.2-0.3-0.4-0.4-0.6-0.4
			c-0.2,0-0.3,0.1-0.4,0.2c-0.1,0.1-0.2,0.3-0.2,0.4s0,0.3,0.1,0.4l0.9,1.4l-1.8-0.1c-0.2,0-0.4,0.1-0.5,0.2s-0.2,0.3-0.2,0.4
			c0,0.2,0.1,0.3,0.2,0.4c0.1,0.1,0.3,0.2,0.5,0.2l1.9-0.1l-0.8,1.3c-0.1,0.2-0.2,0.3-0.2,0.5s0.1,0.3,0.2,0.4
			c0.1,0.1,0.3,0.2,0.4,0.2c0.2,0,0.4-0.1,0.6-0.4l0.8-1.5l0.8,1.5C232.7,120.6,232.9,120.7,233.1,120.7z"/>
		<path d="M224,120.7c0.2,0,0.3-0.1,0.4-0.2c0.1-0.1,0.2-0.3,0.2-0.4s0-0.3-0.1-0.4l-0.9-1.4l1.8,0.1c0.2,0,0.4-0.1,0.5-0.2
			s0.2-0.3,0.2-0.4c0-0.2-0.1-0.3-0.2-0.4c-0.1-0.1-0.3-0.2-0.5-0.2l-1.8,0.1l0.8-1.3c0.1-0.2,0.1-0.3,0.1-0.4
			c0-0.2-0.1-0.3-0.2-0.5c-0.1-0.1-0.3-0.2-0.4-0.2c-0.2,0-0.4,0.1-0.5,0.3l-0.9,1.6l-0.8-1.5c-0.2-0.3-0.4-0.4-0.6-0.4
			c-0.2,0-0.3,0.1-0.4,0.2c-0.1,0.1-0.2,0.3-0.2,0.4s0,0.3,0.1,0.4l0.9,1.4l-1.8-0.1c-0.2,0-0.4,0.1-0.5,0.2s-0.2,0.3-0.2,0.4
			c0,0.2,0.1,0.3,0.2,0.4c0.1,0.1,0.3,0.2,0.5,0.2l1.9-0.1l-0.8,1.3c-0.1,0.2-0.2,0.3-0.2,0.5s0.1,0.3,0.2,0.4
			c0.1,0.1,0.3,0.2,0.4,0.2c0.2,0,0.4-0.1,0.6-0.4l0.8-1.5l0.8,1.5C223.5,120.6,223.7,120.7,224,120.7z"/>
		<path d="M214.8,120.7c0.2,0,0.3-0.1,0.4-0.2c0.1-0.1,0.2-0.3,0.2-0.4s0-0.3-0.1-0.4l-0.9-1.4l1.8,0.1c0.2,0,0.4-0.1,0.5-0.2
			s0.2-0.3,0.2-0.4c0-0.2-0.1-0.3-0.2-0.4c-0.1-0.1-0.3-0.2-0.5-0.2l-1.8,0.1l0.8-1.3c0.1-0.2,0.1-0.3,0.1-0.4
			c0-0.2-0.1-0.3-0.2-0.5c-0.1-0.1-0.3-0.2-0.4-0.2c-0.2,0-0.4,0.1-0.5,0.3l-0.9,1.6l-0.8-1.5c-0.2-0.3-0.4-0.4-0.6-0.4
			c-0.2,0-0.3,0.1-0.4,0.2c-0.1,0.1-0.2,0.3-0.2,0.4s0,0.3,0.1,0.4l0.9,1.4l-1.8-0.1c-0.2,0-0.4,0.1-0.5,0.2s-0.2,0.3-0.2,0.4
			c0,0.2,0.1,0.3,0.2,0.4c0.1,0.1,0.3,0.2,0.5,0.2l1.9-0.1l-0.8,1.3c-0.1,0.2-0.2,0.3-0.2,0.5s0.1,0.3,0.2,0.4
			c0.1,0.1,0.3,0.2,0.4,0.2c0.2,0,0.4-0.1,0.6-0.4l0.8-1.5l0.8,1.5C214.3,120.6,214.5,120.7,214.8,120.7z"/>
		<path d="M205.6,120.7c0.2,0,0.3-0.1,0.4-0.2c0.1-0.1,0.2-0.3,0.2-0.4s0-0.3-0.1-0.4l-0.9-1.4l1.8,0.1c0.2,0,0.4-0.1,0.5-0.2
			s0.2-0.3,0.2-0.4c0-0.2-0.1-0.3-0.2-0.4c-0.1-0.1-0.3-0.2-0.5-0.2l-1.8,0.1l0.8-1.3c0.1-0.2,0.1-0.3,0.1-0.4
			c0-0.2-0.1-0.3-0.2-0.5c-0.1-0.1-0.3-0.2-0.4-0.2c-0.2,0-0.4,0.1-0.5,0.3l-0.9,1.6l-0.8-1.5c-0.2-0.3-0.4-0.4-0.6-0.4
			c-0.2,0-0.3,0.1-0.4,0.2c-0.1,0.1-0.2,0.3-0.2,0.4s0,0.3,0.1,0.4l0.9,1.4l-1.8-0.1c-0.2,0-0.4,0.1-0.5,0.2s-0.2,0.3-0.2,0.4
			c0,0.2,0.1,0.3,0.2,0.4c0.1,0.1,0.3,0.2,0.5,0.2l1.9-0.1l-0.8,1.3c-0.1,0.2-0.2,0.3-0.2,0.5s0.1,0.3,0.2,0.4
			c0.1,0.1,0.3,0.2,0.4,0.2c0.2,0,0.4-0.1,0.6-0.4l0.8-1.5l0.8,1.5C205.2,120.6,205.4,120.7,205.6,120.7z"/>
		<path d="M196.4,120.7c0.2,0,0.3-0.1,0.4-0.2c0.1-0.1,0.2-0.3,0.2-0.4s0-0.3-0.1-0.4l-0.9-1.4l1.8,0.1c0.2,0,0.4-0.1,0.5-0.2
			s0.2-0.3,0.2-0.4c0-0.2-0.1-0.3-0.2-0.4c-0.1-0.1-0.3-0.2-0.5-0.2l-1.8,0.1l0.8-1.3c0.1-0.2,0.1-0.3,0.1-0.4
			c0-0.2-0.1-0.3-0.2-0.5c-0.1-0.1-0.3-0.2-0.4-0.2c-0.2,0-0.4,0.1-0.5,0.3l-0.9,1.6l-0.8-1.5c-0.2-0.3-0.4-0.4-0.6-0.4
			c-0.2,0-0.3,0.1-0.4,0.2c-0.1,0.1-0.2,0.3-0.2,0.4s0,0.3,0.1,0.4l0.9,1.4l-1.8-0.1c-0.2,0-0.4,0.1-0.5,0.2s-0.2,0.3-0.2,0.4
			c0,0.2,0.1,0.3,0.2,0.4c0.1,0.1,0.3,0.2,0.5,0.2l1.9-0.1l-0.8,1.3c-0.1,0.2-0.2,0.3-0.2,0.5s0.1,0.3,0.2,0.4
			c0.1,0.1,0.3,0.2,0.4,0.2c0.2,0,0.4-0.1,0.6-0.4l0.8-1.5l0.8,1.5C196,120.6,196.2,120.7,196.4,120.7z"/>
		<path d="M187.2,120.7c0.2,0,0.3-0.1,0.4-0.2c0.1-0.1,0.2-0.3,0.2-0.4s0-0.3-0.1-0.4l-0.9-1.4l1.8,0.1c0.2,0,0.4-0.1,0.5-0.2
			s0.2-0.3,0.2-0.4c0-0.2-0.1-0.3-0.2-0.4c-0.1-0.1-0.3-0.2-0.5-0.2l-1.8,0.1l0.8-1.3c0.1-0.2,0.1-0.3,0.1-0.4
			c0-0.2-0.1-0.3-0.2-0.5c-0.1-0.1-0.3-0.2-0.4-0.2c-0.2,0-0.4,0.1-0.5,0.3l-0.9,1.6l-0.8-1.5c-0.2-0.3-0.4-0.4-0.6-0.4
			c-0.2,0-0.3,0.1-0.4,0.2c-0.1,0.1-0.2,0.3-0.2,0.4s0,0.3,0.1,0.4l0.9,1.4l-1.8-0.1c-0.2,0-0.4,0.1-0.5,0.2s-0.2,0.3-0.2,0.4
			c0,0.2,0.1,0.3,0.2,0.4c0.1,0.1,0.3,0.2,0.5,0.2l1.9-0.1l-0.8,1.3c-0.1,0.2-0.2,0.3-0.2,0.5s0.1,0.3,0.2,0.4
			c0.1,0.1,0.3,0.2,0.4,0.2c0.2,0,0.4-0.1,0.6-0.4l0.8-1.5l0.8,1.5C186.8,120.6,187,120.7,187.2,120.7z"/>
		<path d="M178.1,120.7c0.2,0,0.3-0.1,0.4-0.2c0.1-0.1,0.2-0.3,0.2-0.4s0-0.3-0.1-0.4l-0.9-1.4l1.8,0.1c0.2,0,0.4-0.1,0.5-0.2
			s0.2-0.3,0.2-0.4c0-0.2-0.1-0.3-0.2-0.4c-0.1-0.1-0.3-0.2-0.5-0.2l-1.8,0.1l0.8-1.3c0.1-0.2,0.1-0.3,0.1-0.4
			c0-0.2-0.1-0.3-0.2-0.5c-0.1-0.1-0.3-0.2-0.4-0.2c-0.2,0-0.4,0.1-0.5,0.3l-0.9,1.6l-0.8-1.5c-0.2-0.3-0.4-0.4-0.6-0.4
			c-0.2,0-0.3,0.1-0.4,0.2c-0.1,0.1-0.2,0.3-0.2,0.4s0,0.3,0.1,0.4l0.9,1.4l-1.8-0.1c-0.2,0-0.4,0.1-0.5,0.2s-0.2,0.3-0.2,0.4
			c0,0.2,0.1,0.3,0.2,0.4c0.1,0.1,0.3,0.2,0.5,0.2l1.9-0.1l-0.8,1.3c-0.1,0.2-0.2,0.3-0.2,0.5s0.1,0.3,0.2,0.4
			c0.1,0.1,0.3,0.2,0.4,0.2c0.2,0,0.4-0.1,0.6-0.4l0.8-1.5l0.8,1.5C177.6,120.6,177.8,120.7,178.1,120.7z"/>
	</g>
	<line class="st40" x1="146.6" y1="142.8" x2="134.4" y2="142.8"/>
	<path class="st40" d="M316.3,52.8V134c0,4.9-4,8.9-8.9,8.9H158.2"/>
	<line class="st40" x1="316.3" y1="31.2" x2="316.3" y2="43.4"/>
</g>
</svg>
