<?xml version="1.0" encoding="utf-8"?>
<!-- Generator: Adobe Illustrator 23.0.1, SVG Export Plug-In . SVG Version: 6.00 Build 0)  -->
<svg version="1.1" id="Layer_1" xmlns="http://www.w3.org/2000/svg" xmlns:xlink="http://www.w3.org/1999/xlink" x="0px" y="0px"
	 viewBox="0 0 500 500" style="enable-background:new 0 0 500 500;" xml:space="preserve">
<style type="text/css">
	.st0{opacity:0.2;}
	.st1{fill:#598BFF;}
	.st2{fill:#E0E0E0;}
	.st3{fill:#FFFFFF;}
	.st4{display:none;}
	.st5{display:inline;fill:#E0E0E0;}
	.st6{fill:#263238;}
	.st7{opacity:0.3;}
	.st8{fill:#EED7BA;}
	.st9{fill:#FAFAFA;}
	.st10{fill:#AEC9FF;}
	.st11{fill:#455A64;}
	.st12{fill:#EBEBEB;}
	.st13{fill:#AA6550;}
</style>
<g id="Background_Complete">
	<g class="st0">
		<path class="st1" d="M347.9,245.3c10.9,8.5,26.6,6.5,35.1-4.4s6.5-26.6-4.4-35.1c-9.3-7.2-22.2-6.9-31,0.2l0,0l-5.5-4.3l-8.1,2.5
			l0.9-8.1l-6.9-5.3l-8.1,2.5l0.9-8.1l-5.9-4.6l-5,1.5l0.6-5l-3.4-2.7l-7.8,0.8l-1,12l40.9,31.8
			C336.6,228.5,339.7,238.9,347.9,245.3z M377.7,236.7c-2.4,3.1-6.9,3.7-10.1,1.3c-3.1-2.4-3.7-6.9-1.3-10.1
			c2.4-3.1,6.9-3.7,10.1-1.3C379.5,229.1,380.1,233.6,377.7,236.7z"/>
	</g>
	<g class="st0">
		<path class="st1" d="M371,115.2c4.7-5.7,3.8-14.2-1.9-18.8c-5.7-4.7-14.2-3.8-18.8,1.9c-4,4.9-4,11.8-0.3,16.6l0,0l-2.4,2.9
			l1.3,4.4l-4.3-0.6l-2.9,3.6l1.3,4.4l-4.3-0.6l-2.5,3.1l0.8,2.7l-2.6-0.4l-1.5,1.8l0.3,4.2l6.4,0.7l17.5-21.5
			C361.8,121.1,367.5,119.5,371,115.2z M366.8,99.2c1.6,1.3,1.9,3.8,0.5,5.4c-1.3,1.6-3.8,1.9-5.4,0.5c-1.6-1.3-1.9-3.8-0.5-5.4
			C362.7,98.1,365.1,97.8,366.8,99.2z"/>
	</g>
	<g>
		<g>
			<polygon class="st2" points="224,45.7 224,119.1 118.6,119.1 114.8,46.2 			"/>
		</g>
		<g>
			<rect x="114.8" y="46.3" class="st3" width="105.4" height="72.7"/>
			<path class="st2" d="M220.7,119.4H114.3V45.7h106.4L220.7,119.4L220.7,119.4z M115.3,118.4h104.4V46.7H115.3V118.4z"/>
		</g>
		<g>
			<g>
				<rect x="126.2" y="55.2" class="st3" width="82.6" height="54.7"/>
			</g>
			<g>
				<g>
					<path class="st2" d="M208.8,55.2c0,0-0.1,0-0.4,0c-0.3,0-0.7,0-1.2,0c-1,0-2.6,0-4.5,0c-4,0-9.7,0-17,0.1
						c-14.6,0-35.2,0.1-59.4,0.1l0.2-0.2c0,16.7,0,35.2,0,54.6l0,0l-0.3-0.3c31.1,0,59.9,0,82.6,0.1l-0.2,0.2
						c0-16.6,0.1-30.3,0.1-39.8c0-4.7,0-8.5,0.1-11c0-1.3,0-2.2,0-2.9C208.8,55.6,208.8,55.2,208.8,55.2s0,0.3,0,1s0,1.6,0,2.9
						c0,2.5,0,6.2,0.1,10.9c0,9.5,0.1,23.2,0.1,39.9v0.2h-0.2c-22.7,0-51.4,0-82.6,0.1h-0.3v-0.3l0,0c0-19.4,0-37.9,0-54.6v-0.2h0.2
						c24.3,0,45,0.1,59.6,0.1c7.3,0,13,0,17,0.1c1.9,0,3.5,0,4.5,0c0.5,0,0.9,0,1.1,0C208.6,55.2,208.8,55.2,208.8,55.2z"/>
				</g>
			</g>
		</g>
		<g>
			<g>
				<path class="st2" d="M114.8,46c0-0.1,0.7,0.4,1.8,1.2c1.1,0.8,2.5,1.9,4.1,3.2s3,2.5,4,3.4s1.6,1.5,1.5,1.5
					c-0.1,0.1-2.6-2-5.8-4.5C117.2,48.2,114.7,46.1,114.8,46z"/>
			</g>
		</g>
		<g>
			<g>
				<path class="st2" d="M220.2,46.2c0.1,0.1-2.4,2.2-5.5,4.7c-3.2,2.5-5.8,4.4-5.9,4.3c-0.1-0.1,2.4-2.2,5.5-4.7
					C217.5,48,220.1,46.1,220.2,46.2z"/>
			</g>
		</g>
		<g>
			<g>
				<path class="st3" d="M220.1,118.9c-3.9-3.2-7.8-6.4-11.8-9.5"/>
			</g>
			<g>
				<g>
					<path class="st2" d="M208.4,109.4c0.1-0.1,2.8,1.9,6,4.6c3.2,2.6,5.8,4.9,5.7,5s-2.8-1.9-6-4.6
						C210.8,111.8,208.3,109.5,208.4,109.4z"/>
				</g>
			</g>
		</g>
		<g>
			<g>
				<path class="st2" d="M114.8,118.9c-0.1-0.1,2.4-2.2,5.5-4.7s5.7-4.4,5.8-4.3c0.1,0.1-2.4,2.2-5.5,4.7
					C117.5,117.1,114.9,119,114.8,118.9z"/>
			</g>
		</g>
		<g>
			<rect x="142.9" y="72.3" class="st2" width="52" height="18.3"/>
		</g>
	</g>
</g>
<g id="Background_Simple" class="st4">
	<path class="st5" d="M426.8,105.4c-25-24.8-61.9-37.2-96.9-32.4c-34.9,4.8-67.2,26.5-84.7,57.2c-8,14.1-13,29.7-20.1,44.3
		c-7,14.6-16.8,28.8-31.1,36.3c-25.2,13.3-56,2.9-84.3,5.9c-33.8,3.7-64.2,28.9-74.1,61.4c-0.2,0.8-0.5,1.6-0.7,2.5
		c-12.2,43.7,3.2,96.8,43.9,117l42.6,16.8c82.7,41,179.7,27.4,255.1-25.9c0.7-0.5,1.4-1,2.1-1.5c44.8-32.2,73.8-83.9,83.6-138.2
		C471.5,198.4,463.1,141.5,426.8,105.4z"/>
</g>
<g id="Floor">
	<g>
		<g>
			<path class="st6" d="M429,469.2c0,0.1-85.9,0.3-191.8,0.3c-106,0-191.8-0.1-191.8-0.3s85.9-0.3,191.8-0.3
				C343.1,468.9,429,469.1,429,469.2z"/>
		</g>
	</g>
</g>
<g id="Character">
	<g>
		<polygon class="st6" points="348.8,433 373.5,469 382.4,469.2 366.2,432.2 		"/>
	</g>
	<g>
		<polygon class="st6" points="87.6,434.8 74.6,468.8 81.1,468.8 103.9,435 		"/>
	</g>
	<g>
		<path class="st1" d="M82,311.3l1,44c0.1,6.2,5.1,11.2,11.4,11.4l246.2,5.5c6.5,0.1,11.9-5.1,11.9-11.6v-53c0-15.6-11.5-28.9-27-31
			c-45.1-6.2-138-15.7-213.1-2.2C94.5,277.5,81.6,293.2,82,311.3z"/>
	</g>
	<g>
		<path class="st1" d="M80.9,326.7c0,0-20.3-9.4-24.4,0s0.5,20.9,5.1,27.4s4.5,85.7,4.5,85.7l307.6-3.3l3.6-76.3
			c0,0,14.8-18.2,13.8-26s-13.4-19.2-27.7-7.5c-14.3,11.7-18,36.1-18,36.1l-245.2,1.8C100.3,364.6,101.1,330.3,80.9,326.7z"/>
	</g>
	<g>
		<g>
			<path class="st6" d="M342.4,378c0,0.1-54.5,0.3-121.7,0.3S99,378.2,99,378c0-0.1,54.5-0.3,121.7-0.3
				C287.9,377.8,342.4,377.9,342.4,378z"/>
		</g>
	</g>
	<g>
		<g>
			<path class="st6" d="M99,411.6c0,0,0-0.1,0-0.2c0-0.2,0-0.4,0-0.7c0-0.6,0-1.5-0.1-2.7c0-2.4,0-5.8,0-10c0-8.5,0.1-20.1-0.3-33
				c-0.2-6.4-0.5-12.6-1.4-18.1c-0.2-0.7-0.4-1.3-0.5-2c-0.3-0.6-0.5-1.3-0.8-1.9c-0.5-1.2-1.1-2.4-1.7-3.5
				c-1.2-2.2-2.4-4.1-3.7-5.8c-1.3-1.6-2.7-3-4-4s-2.5-1.8-3.6-2.3c-2.1-1-3.4-1.3-3.4-1.4c0,0,0.1,0,0.2,0c0.2,0,0.4,0.1,0.7,0.2
				c0.6,0.1,1.5,0.5,2.6,1s2.3,1.2,3.7,2.3c1.3,1,2.7,2.4,4.1,4s2.7,3.6,3.8,5.8c0.6,1.1,1.2,2.3,1.7,3.5c0.3,0.6,0.5,1.2,0.8,1.9
				c0.2,0.7,0.4,1.3,0.6,2c1,5.6,1.2,11.7,1.5,18.2c0.4,12.9,0.3,24.6,0.2,33.1c-0.1,4.2-0.1,7.6-0.1,10c0,1.1,0,2.1,0,2.7
				c0,0.3,0,0.5,0,0.7C99,411.5,99,411.6,99,411.6z"/>
		</g>
	</g>
	<g>
		<g>
			<path class="st6" d="M78.5,344.4c0,0,0.3-0.2,0.8-0.3c0.5-0.1,1.4,0,2.3,0.6c0.4,0.3,0.8,0.7,1.1,1.2c0.3,0.5,0.4,1.2,0.3,1.9
				c-0.2,1.3-1.3,2.7-2.9,3.1c-1.6,0.3-3.1-0.7-3.8-1.8c-0.4-0.6-0.5-1.3-0.5-1.9s0.2-1.2,0.4-1.6c0.5-0.9,1.2-1.4,1.7-1.6
				s0.8-0.2,0.8-0.2s-0.3,0.1-0.7,0.4c-0.4,0.3-1.1,0.8-1.5,1.6c-0.4,0.8-0.5,2,0.1,3s1.9,1.8,3.3,1.6c1.3-0.3,2.3-1.5,2.5-2.6
				c0.2-1.2-0.4-2.2-1.1-2.8c-0.7-0.6-1.5-0.7-2-0.7C78.8,344.3,78.5,344.4,78.5,344.4z"/>
		</g>
	</g>
	<g>
		<g>
			<path class="st6" d="M79.9,364.1c0,0-0.7-0.5-1.4-1.6c-0.7-1.1-1.4-2.9-1.4-5s0.6-3.9,1.3-5c0.7-1.2,1.3-1.7,1.4-1.7
				c0.1,0.1-0.5,0.7-1,1.8c-0.6,1.1-1.1,2.9-1.1,4.8c0,2,0.6,3.7,1.2,4.8C79.4,363.4,80,364.1,79.9,364.1z"/>
		</g>
	</g>
	<g>
		<g>
			<path class="st6" d="M76.7,334.4c0.1,0-0.1,0.6-0.3,1.5c-0.2,0.9-0.2,2.2,0.1,3.6c0.3,1.4,0.9,2.5,1.4,3.3s0.9,1.2,0.9,1.2
				s-0.6-0.3-1.2-1s-1.3-1.9-1.6-3.4c-0.3-1.5-0.2-2.8,0.1-3.8C76.3,334.9,76.7,334.4,76.7,334.4z"/>
		</g>
	</g>
	<g>
		<g>
			<path class="st6" d="M70.7,345.5c0.1-0.1,1,0.8,2.5,1.6c1.4,0.7,2.7,1,2.7,1.1s-1.4,0.1-2.9-0.7
				C71.4,346.7,70.6,345.6,70.7,345.5z"/>
		</g>
	</g>
	<g>
		<g>
			<path class="st6" d="M374.9,411.6c0,0.1-69.4,0.3-154.9,0.3c-85.6,0-155-0.1-155-0.3s69.4-0.3,155-0.3
				C305.5,411.3,374.9,411.5,374.9,411.6z"/>
		</g>
	</g>
	<g>
		<g>
			<path class="st6" d="M341.3,363c0.1,0,0.3,10.9,0.3,24.3s-0.1,24.3-0.3,24.3s-0.3-10.9-0.3-24.3C341.1,373.9,341.2,363,341.3,363
				z"/>
		</g>
	</g>
	<g>
		<g>
			<path class="st6" d="M238.6,279.1c0,0-0.2,0-0.5,0s-0.8,0-1.4,0.1c-1.3,0-3.1,0.1-5.4,0.2c-4.7,0.1-11.4,0.3-19.8,0.5
				c-16.7,0.3-39.8,0.8-65.2,1.3c-6.4,0.2-12.6,0.1-18.6,0.5c-6,0.4-11.7,1.2-16.9,3.1c-5.2,1.8-9.7,4.8-12.9,8.4
				C96.4,295,95,297,94,299c-1.1,2-1.8,4.1-2.4,6c-1.2,4-1.7,7.7-2,11s-0.3,6.2-0.4,8.5c0,2.3,0,4.1,0.1,5.4c0,0.6,0,1.1,0,1.4
				s0,0.5,0,0.5s0-0.2,0-0.5s0-0.8-0.1-1.4c-0.1-1.2-0.1-3-0.2-5.4c0-2.3,0-5.2,0.3-8.5s0.8-7.1,2-11.1c0.6-2,1.4-4.1,2.4-6.1
				c1-2.1,2.4-4.1,4-5.9c3.2-3.7,7.8-6.8,13-8.6c5.2-1.9,11.1-2.7,17-3.1c6-0.4,12.2-0.4,18.6-0.5c25.5-0.5,48.5-0.9,65.2-1.2
				c8.3-0.1,15.1-0.2,19.8-0.3c2.3,0,4.1,0,5.4-0.1c0.6,0,1.1,0,1.4,0C238.4,279.1,238.6,279.1,238.6,279.1z"/>
		</g>
	</g>
	<g>
		<g>
			<path class="st6" d="M159.9,313.4c0,0-0.3,0.2-0.8,0.6s-1.2,1.1-1.6,2.2c-0.4,1.1-0.4,2.5,0.6,3.7c0.9,1.2,2.6,2,4.2,1.6
				c1.7-0.4,2.8-1.9,3.1-3.3c0.3-1.5-0.4-2.8-1.2-3.6c-0.8-0.8-1.7-1.1-2.4-1.2c-0.6-0.1-1-0.1-1-0.1s0.4-0.1,1-0.1
				c0.7,0.1,1.7,0.3,2.6,1.2c0.5,0.4,0.9,1,1.2,1.6c0.3,0.7,0.4,1.5,0.2,2.3c-0.3,1.6-1.5,3.3-3.4,3.8c-1.9,0.4-3.8-0.5-4.7-1.8
				c-0.5-0.7-0.8-1.4-0.8-2.2c-0.1-0.7,0.1-1.4,0.3-2c0.5-1.1,1.2-1.9,1.8-2.2C159.5,313.4,159.9,313.4,159.9,313.4z"/>
		</g>
	</g>
	<g>
		<g>
			<path class="st6" d="M155.6,339.3c-0.1,0-0.4-1.1-0.8-3c-0.3-1.8-0.6-4.5,0.2-7.4s2.7-5,4.3-5.9c0.8-0.5,1.6-0.7,2.1-0.8
				c0.5-0.1,0.8-0.1,0.8-0.1c0,0.1-1.2,0.2-2.7,1.2s-3.3,3.1-4,5.8c-0.7,2.7-0.5,5.3-0.3,7.2C155.5,338.1,155.7,339.3,155.6,339.3z"
				/>
		</g>
	</g>
	<g>
		<g>
			<path class="st6" d="M159.3,297.9c0.1,0.1-0.7,0.8-1.5,2.2c-0.8,1.4-1.4,3.7-0.8,6.1c0.6,2.4,2.1,4.2,3.4,5.2
				c1.3,1,2.3,1.3,2.3,1.3s-0.3,0-0.7-0.2c-0.4-0.1-1.1-0.4-1.8-0.9c-1.4-0.9-3.1-2.8-3.7-5.3c-0.6-2.6,0.2-5,1-6.4
				c0.4-0.7,0.9-1.3,1.2-1.6C159.1,298.1,159.3,297.9,159.3,297.9z"/>
		</g>
	</g>
	<g>
		<g>
			<path class="st6" d="M158.4,318c0,0.2-2.5,0.2-5.4,1.2s-5,2.4-5.1,2.3s1.9-1.8,4.9-2.8C155.8,317.7,158.4,317.8,158.4,318z"/>
		</g>
	</g>
	<g class="st7">
		<g>
			<path d="M126.1,378.9c9.6,7.4,21.9,11.1,34,10.2c-2.5,11.8-5.1,23.5-7.6,35.3c-0.7,3.1-1.3,6.6,0.3,9.4c2.3,3.9,7.6,4.3,12.1,4.2
				c5-0.1,10.2-0.2,14.7-2.5c6.3-3.3,9.7-10.2,12.1-16.9c2.4-6.7,4.5-13.8,9.6-18.8c5.7,6.5,13.6,11,22.1,12.6
				c2.5,0.5,5.3,0.6,7.3-1s2.6-4.4,2.1-6.9s-1.9-4.7-3.3-6.8c-4.9-7.6-9.8-15.1-14.6-22.7c-2-3.1-4.1-6.3-7.5-7.8
				c-2.6-1.1-5.6-1-8.5-0.9c-23.9,1.4-47.6,5-70.9,10.7"/>
		</g>
	</g>
	<g class="st7">
		<g>
			<path d="M204.3,266.4c-5.9,15.6-28,19.2-35.8,34c-7.7,14.6,1.8,34-6.1,48.6c-2.9,5.4-8,9.4-10.8,14.8c-1.9,3.6-2.9,8-6,10.7
				c-3.6,3.2-9.2,3.1-13.6,1.1c-4.3-2-7.7-5.7-10.8-9.4c-5.8-6.9-11.3-14.3-14-22.9c-4.7-14.8-0.4-31.5,9-43.8s23.3-20.7,37.9-25.7
				c14.7-5,30.2-6.9,45.6-8.3"/>
		</g>
	</g>
	<path class="st6" d="M133.2,225.3c2.3-3.4,5.3-6.5,9-8.3c3.7-1.9,8.1-2.5,12-1.2s7.2,4.6,8,8.6c0.6,3.2-0.2,6.8,1.4,9.6
		c1.9,3.2,6.5,4.3,8.1,7.7c1,2,0.6,4.5-0.5,6.5s-2.7,3.6-4.4,5.1c1,0.7,2,1.5,2.7,2.5s1.1,2.4,0.6,3.5c-0.5,1.2-1.8,1.9-3,2.4
		c-5.5,2.3-11.8,2.9-17.7,1.7c-1.6-0.3-3.4-0.8-4.7,0.2"/>
	<path class="st8" d="M173.2,237.1l-3.2,9.8l21.9,12.4l-22,0.7l1.6,17.8l42.3-10.4C213.8,267.5,216.4,250.2,173.2,237.1l-3-0.7
		c-1.1-0.3-2-1-2.4-2.1l0,0c-0.3-0.8-0.9-1.5-1.7-1.9l-3.6-1.9v2.9l2,2.3l-0.3,5.5c-0.2,2.4,1.5,4.7,3.8,5.2l2,0.5"/>
	<path class="st9" d="M125.3,272.5c-0.9,0-8.9,2-13.6,7.8c-4.6,5.9-11.3,27.9-11.3,27.9l17,2.9l7.3,18.4c0,0,43.4-5.7,41.1-8
		s-7.1-5.8-7.1-5.8l10-33.3l12-6.5l-4-16.6l-24.2,3.3L125.3,272.5z"/>
	<path class="st10" d="M166.9,290.3c0,0.1-13.5,0.3-30.3,0.3c-16.7,0-30.3-0.1-30.3-0.3s13.5-0.3,30.3-0.3
		C153.3,290,166.9,290.1,166.9,290.3z"/>
	<path class="st10" d="M164.1,300.1c0,0.1-13.5,0.3-30.3,0.3c-16.7,0-30.3-0.1-30.3-0.3c0-0.1,13.5-0.3,30.3-0.3
		C150.6,299.8,164.1,299.9,164.1,300.1z"/>
	<path class="st10" d="M164.1,310.6c0,0.1-10.3,0.3-22.9,0.3c-12.7,0-22.9-0.1-22.9-0.3s10.3-0.3,22.9-0.3
		C153.9,310.4,164.1,310.5,164.1,310.6z"/>
	<path class="st10" d="M167.7,320.8c0,0.1-10.3,0.3-22.9,0.3c-12.7,0-22.9-0.1-22.9-0.3c0-0.1,10.3-0.3,22.9-0.3
		C157.4,320.6,167.7,320.7,167.7,320.8z"/>
	<path class="st10" d="M178.5,277.1c0,0.1-6.8,0.3-15.1,0.3c-8.4,0-15.1-0.1-15.1-0.3s6.8-0.3,15.1-0.3
		C171.7,276.8,178.5,277,178.5,277.1z"/>
	<path class="st10" d="M179.6,266.7c0,0.1-6.7,0.4-15.1,0.6c-8.3,0.2-15.1,0.2-15.1,0.1s6.7-0.4,15.1-0.6
		C172.9,266.6,179.6,266.6,179.6,266.7z"/>
	<path class="st6" d="M121,295.4c0.1,0-0.6,3.7-1.6,8.2s-2,8.1-2.1,8.1s0.6-3.7,1.6-8.2C119.9,298.9,120.9,295.3,121,295.4z"/>
	<polygon class="st8" points="168.3,420.2 155.6,460.1 170.9,461.7 185.2,427 	"/>
	<path class="st11" d="M179.5,446.1l-7.3,18c0,0,15.9,13.4,14.9,16.9l-35.5-12.8l10.2-28.6L179.5,446.1z"/>
	<path class="st2" d="M161.8,458.7c-0.8-0.1-1.5,0.5-1.6,1.3s0.5,1.5,1.3,1.6s1.7-0.6,1.7-1.4s-0.8-1.6-1.5-1.5"/>
	<path class="st2" d="M151.6,468.2l1.1-2.8l33.6,13.4c0,0,1.3,1.3,0.7,2.3L151.6,468.2z"/>
	<path class="st6" d="M172.8,464.2c-0.1,0.2-1-0.1-2,0.2c-1.1,0.2-1.8,0.8-1.9,0.7c-0.1-0.1,0.5-1,1.8-1.3
		C172,463.5,172.9,464.1,172.8,464.2z"/>
	<path class="st6" d="M176,467.1c0,0.2-0.9,0.2-1.7,0.7c-0.9,0.5-1.3,1.2-1.5,1.2s0.1-1.1,1.1-1.7C175,466.6,176.1,466.9,176,467.1z
		"/>
	<path class="st6" d="M176.5,472.3c-0.2,0-0.1-1,0.7-1.8s1.7-0.9,1.8-0.7c0,0.2-0.7,0.5-1.3,1.2C177,471.6,176.7,472.3,176.5,472.3z
		"/>
	<path class="st6" d="M174,459.9c-0.1,0.1-0.8-0.4-1.8-0.7c-1-0.3-1.9-0.3-1.9-0.4c-0.1-0.2,0.9-0.5,2.1-0.2
		C173.6,459,174.2,459.8,174,459.9z"/>
	<path class="st6" d="M175.4,456.2c0,0.1-0.7-0.1-1.8-0.7c-0.5-0.3-1.1-0.7-1.7-1.2c-0.3-0.3-0.6-0.6-0.8-0.9
		c-0.1-0.2-0.3-0.3-0.4-0.6c-0.1-0.3-0.1-0.7,0.3-1c0.3-0.2,0.6-0.2,0.9-0.1c0.3,0.1,0.5,0.2,0.6,0.3c0.4,0.2,0.7,0.5,1,0.8
		c0.6,0.6,1,1.1,1.2,1.7c0.5,1.1,0.6,1.8,0.5,1.8s-0.3-0.7-0.9-1.6c-0.3-0.5-0.7-1-1.3-1.5c-0.3-0.2-0.6-0.5-0.9-0.7
		c-0.3-0.2-0.7-0.4-0.8-0.2c-0.1,0.1-0.1,0.1,0,0.2c0,0.1,0.2,0.3,0.3,0.4c0.2,0.3,0.5,0.6,0.7,0.9c0.5,0.5,1,1,1.5,1.3
		C174.8,455.9,175.5,456.1,175.4,456.2z"/>
	<path class="st6" d="M175.1,456.4c-0.1,0-0.2-0.7,0.2-1.9c0.2-0.6,0.5-1.2,0.9-1.9c0.2-0.3,0.5-0.6,0.8-0.9s0.8-0.7,1.5-0.5
		c0.4,0.1,0.5,0.5,0.6,0.8c0,0.3,0,0.5-0.1,0.7c-0.1,0.4-0.2,0.8-0.4,1.2c-0.4,0.7-0.9,1.2-1.4,1.6c-1,0.7-1.8,0.6-1.8,0.5
		s0.7-0.2,1.5-0.9c0.4-0.3,0.9-0.8,1.2-1.5c0.2-0.3,0.3-0.7,0.3-1c0.1-0.4,0-0.8-0.1-0.8c-0.2-0.1-0.6,0.1-0.8,0.4
		c-0.3,0.3-0.6,0.5-0.8,0.8c-0.5,0.6-0.8,1.1-1,1.6C175.3,455.7,175.2,456.4,175.1,456.4z"/>
	<polygon class="st8" points="216.3,382.6 235.2,415.5 250.7,405.5 231.7,372.2 	"/>
	<path class="st11" d="M245.4,396.2l9.8,16.8c0,0,20.4-4.3,22.5-1.3l-31.9,20.1l-16.3-25.6L245.4,396.2z"/>
	<path class="st2" d="M244.4,417.8c-0.5,0.6-0.5,1.5,0,2.1c0.5,0.5,1.5,0.5,2,0s0.5-1.7,0-2.2c-0.6-0.5-1.7-0.4-2.1,0.3"/>
	<path class="st2" d="M245.7,431.7l-1.5-2.6l31.2-18.3c0,0,1.8-0.3,2.3,0.8L245.7,431.7z"/>
	<path class="st6" d="M255.6,412.5c0.1,0.2-0.6,0.7-1.1,1.7s-0.4,1.9-0.6,1.9c-0.2,0.1-0.5-1,0.1-2.2
		C254.4,412.7,255.5,412.3,255.6,412.5z"/>
	<path class="st6" d="M259.8,411.8c0.1,0.1-0.4,0.8-0.5,1.8s0.2,1.8,0,1.9c-0.1,0.1-0.8-0.7-0.6-2
		C258.8,412.3,259.7,411.6,259.8,411.8z"/>
	<path class="st6" d="M264.2,414.6c-0.1,0.1-0.8-0.5-1-1.6c-0.1-1.1,0.4-1.9,0.5-1.8c0.2,0.1,0,0.8,0.1,1.7
		C264,413.8,264.3,414.5,264.2,414.6z"/>
	<path class="st6" d="M252.9,408.9c0,0.2-0.8,0.4-1.7,1s-1.4,1.3-1.5,1.2c-0.2-0.1,0.1-1.1,1.1-1.8
		C251.9,408.7,252.9,408.7,252.9,408.9z"/>
	<path class="st6" d="M250.9,405.5c0,0.1-0.5,0.5-1.6,1c-0.5,0.2-1.2,0.4-2,0.5c-0.4,0.1-0.8,0.1-1.2,0.1c-0.2,0-0.4,0-0.7-0.1
		s-0.6-0.4-0.6-0.8c0-0.3,0.2-0.6,0.5-0.8c0.2-0.2,0.5-0.2,0.7-0.3c0.4-0.1,0.8-0.2,1.2-0.3c0.8-0.1,1.5-0.1,2.1,0
		c1.2,0.2,1.8,0.6,1.8,0.7s-0.7-0.2-1.8-0.3c-0.6,0-1.2,0-1.9,0.1c-0.4,0.1-0.7,0.2-1.1,0.3c-0.4,0.1-0.7,0.3-0.7,0.5
		c0,0.1,0,0.1,0.1,0.2c0.1,0,0.3,0,0.5,0.1c0.4,0,0.8,0,1.1,0c0.7-0.1,1.4-0.2,1.9-0.4C250.2,405.8,250.8,405.5,250.9,405.5z"/>
	<path class="st6" d="M250.8,405.9c0,0.1-0.7-0.3-1.4-1.3c-0.3-0.5-0.7-1.1-0.9-1.9c-0.1-0.4-0.2-0.8-0.2-1.2c0-0.4,0-1,0.5-1.4
		c0.3-0.2,0.7-0.1,0.9,0s0.4,0.3,0.5,0.5c0.3,0.3,0.5,0.7,0.7,1.1c0.3,0.7,0.4,1.5,0.4,2.1c-0.1,1.2-0.6,1.8-0.7,1.8
		c-0.1,0,0.3-0.7,0.2-1.8c0-0.5-0.1-1.2-0.4-1.8c-0.2-0.3-0.4-0.6-0.6-0.9c-0.3-0.3-0.6-0.5-0.7-0.4c-0.2,0.1-0.3,0.5-0.2,0.9
		c0,0.4,0.1,0.8,0.1,1.1c0.2,0.7,0.4,1.3,0.7,1.8C250.3,405.3,250.9,405.8,250.8,405.9z"/>
	<path class="st6" d="M160.1,378l37.1-25.2l23.4,45.6l21.3-11.5c0,0-24.5-59.8-33.3-61.7c-4.9-1.1-61.5,9.7-61.5,9.7l-6.3-3.2
		l-16-1.9l-1,2.6c-5.6,14.3-5,30.3,1.8,44.1l0.8,1.6h33.7V378z"/>
	<path class="st6" d="M147.1,346.4c0.3,1.3,31,30,31,30l-17.7,59.5l26.4,5.1l26.5-71.7l-48.5-47.6l-22.1,9.3L147.1,346.4z"/>
	<path class="st11" d="M197.2,352.7c0.1,0.1-8.2,5.9-18.4,12.8c-10.3,7-18.6,12.5-18.7,12.4c-0.1-0.1,8.2-5.9,18.4-12.8
		C188.8,358.2,197.1,352.6,197.2,352.7z"/>
	<path class="st11" d="M216.3,389.8c0,0-0.3-0.5-0.9-1.4c-0.6-0.9-1.3-2.2-2.2-3.9c-1.8-3.3-4.3-7.9-6.9-13
		c-2.6-5.1-4.9-9.8-6.5-13.2c-0.8-1.7-1.4-3.1-1.9-4.1c-0.4-1-0.7-1.5-0.6-1.5c0,0,0.3,0.5,0.8,1.4c0.5,1,1.2,2.4,2,4
		c1.7,3.4,4.1,8.1,6.6,13.2c2.6,5.1,5,9.8,6.8,13.1c0.9,1.6,1.6,2.9,2.1,3.9C216,389.3,216.3,389.8,216.3,389.8z"/>
	<path class="st11" d="M183.6,365.8c0.1,0.1-1.1,2.9-2.8,6.4s-3.2,6.2-3.3,6.1s1.1-2.9,2.8-6.4C182,368.5,183.4,365.7,183.6,365.8z"
		/>
	<path class="st8" d="M100.5,308.3l-6,22.2c-0.8,2.9-0.4,5.9,1,8.5l0,0c2.5,4.6,7.8,7,12.9,5.8l47.5-11.7l-5-9.9l-37.5,3.2l4-15.2
		L100.5,308.3z"/>
	<polygon class="st11" points="121.6,342 122.2,338.7 147.9,334.1 155.4,294.4 203.3,288.7 195.2,331.1 	"/>
	<path class="st12" d="M176.9,315.8c-1.3-0.2-2-1.6-1.8-3.1c0.3-1.4,1.5-2.4,2.8-2.2c1.3,0.2,2,1.6,1.8,3.1
		C179.4,315,178.2,316,176.9,315.8z"/>
	<path class="st8" d="M128.6,228l0.1,2.9l1.1,43c0.1,5,4.5,8.9,9.9,8.7l0,0c5.4-0.2,9.7-4.4,9.7-9.5c0-5.3,0-10.9,0-10.9
		s6.8-1.2,8.1-10.1c0.7-4.4,0.3-11.7-0.1-17.6c-0.4-5.3-5.2-9.3-10.5-8.6L128.6,228z"/>
	<path class="st13" d="M149.3,262.3c0,0-6,0.5-12-3c0,0,3,6.1,11.9,5.1L149.3,262.3z"/>
	<path class="st6" d="M138.8,222.2c2.8,4.2,2.1,10.5-1.6,14c-2.1,2-5.3,3.5-5.5,6.4c-0.2,3.2,3.5,5.6,3.5,8.8c0,3.3-3.8,5.4-4.6,8.6
		c-0.6,2.6,1,5.2,2.8,7.2s4,3.7,5,6.1c1.2,2.7,0.9,5.9-0.3,8.6s-3.1,5-5,7.2c-2.7-1-5.4-1.6-8.2-1.8c0.2-1.1,0.4-2.1,0.5-3.2
		c0.1,1.2-1,2.3-2.2,2.7c-1.2,0.4-2.5,0.2-3.7,0c-3.7-0.6-7.4-1.5-11-2.8c1.5-1.5,3.1-3.1,4-5s1.2-4.3,0.1-6.2
		c-0.9-1.5-2.5-2.5-3.3-4c-1.2-2.3-0.2-5.2,1.5-7.2c1.7-1.9,4.1-3.2,6.1-4.8c2-1.6,3.9-3.8,4.1-6.4c0.2-3.4-2.5-6.4-2.2-9.8
		c0.4-3.8,4.4-6.2,6-9.7c1.1-2.5,1-5.7,2.8-7.8c1.3-1.6,3.5-2.3,5.5-2.2c2.1,0.1,4,0.9,5.8,2"/>
	<path class="st6" d="M150,263.2c-1.6,0.9-1.5,3.3-0.5,4.9s2.6,2.7,3.5,4.2c1.7,2.8,1,6.8-1.6,8.8l3.8,1.5l0.8-0.5l2.4-1.3l-1.1,2.7
		h2.5c2.6,0,5.1-1.5,6.3-3.8s1-5.3-0.5-7.4c-1-1.4-2.6-2.5-2.9-4.2c-0.4-2,1.1-3.9,1.9-5.8c1.3-3.2,0.1-7.3-2.7-9.3"/>
</g>
<g id="Speech_Bubble">
	<g>
		<g>
			<g>
				<path class="st6" d="M105,215.2c0,0-0.3,0.1-0.9,0.3c-0.5,0.2-1.3,0.7-1.9,1.6c-0.3,0.4-0.5,1-0.6,1.6s0,1.3,0.3,1.9
					c0.6,1.2,2,2.3,3.6,2.2s2.9-1.3,3.3-2.6c0.2-0.6,0.2-1.3,0.1-1.9c-0.1-0.6-0.4-1.1-0.8-1.5c-0.7-0.8-1.5-1.2-2-1.4
					c-0.6-0.2-0.9-0.1-0.9-0.2c0,0,0.1,0,0.2,0s0.2,0,0.3,0c0.1,0,0.3,0,0.4,0.1c0.6,0.1,1.4,0.5,2.2,1.3c0.4,0.4,0.7,0.9,0.8,1.6
					c0.2,0.6,0.2,1.4-0.1,2c-0.2,0.7-0.7,1.4-1.3,1.9c-0.6,0.5-1.4,0.9-2.2,0.9c-0.9,0-1.7-0.2-2.3-0.7c-0.7-0.4-1.2-1-1.5-1.7
					s-0.4-1.4-0.3-2s0.3-1.2,0.6-1.7c0.6-0.9,1.4-1.4,2-1.6c0.1-0.1,0.3-0.1,0.4-0.1s0.2,0,0.3,0C104.9,215.1,105,215.1,105,215.2z"
					/>
			</g>
		</g>
		<g>
			<g>
				<path class="st6" d="M114.8,224.8c0,0-0.2,0-0.5,0.2c-0.3,0.1-0.8,0.4-1.1,1c-0.3,0.5-0.5,1.4-0.1,2.1c0.4,0.7,1.2,1.4,2.2,1.3
					c1-0.1,1.8-0.8,2-1.6c0.3-0.8,0-1.6-0.4-2.1s-0.9-0.8-1.3-0.9c-0.4-0.1-0.6-0.1-0.6-0.1s0.2-0.1,0.6,0s0.9,0.3,1.4,0.8
					c0.2,0.3,0.4,0.6,0.5,1s0.1,0.9-0.1,1.3c-0.3,0.9-1.1,1.7-2.3,1.8c-1.1,0.1-2.1-0.7-2.5-1.5c-0.2-0.4-0.3-0.9-0.2-1.3
					c0.1-0.4,0.2-0.8,0.4-1.1c0.4-0.6,0.9-0.9,1.3-1C114.5,224.8,114.8,224.8,114.8,224.8z"/>
			</g>
		</g>
		<g>
			<g>
				<g>
					<path class="st6" d="M103.4,195.3c0,0,0-0.2,0-0.5s0-0.8,0-1.5c0-0.3,0-0.7,0-1.1c0-0.4-0.1-0.8-0.1-1.3s-0.1-1-0.1-1.5
						c0-0.3-0.1-0.5-0.1-0.8c-0.1-0.3-0.1-0.6-0.2-0.9c-0.4-2.4-1.2-5.3-2.8-8.5c-1.5-3.1-3.9-6.4-7.1-9.3c-0.4-0.4-0.8-0.7-1.3-1.1
						c-0.4-0.3-0.9-0.7-1.4-1c-0.2-0.2-0.5-0.3-0.7-0.5s-0.5-0.3-0.7-0.5c-0.5-0.3-1-0.6-1.5-0.9c-0.3-0.1-0.5-0.3-0.8-0.4
						c-0.3-0.1-0.6-0.3-0.8-0.4c-0.6-0.3-1.1-0.5-1.7-0.8c-0.6-0.2-1.2-0.4-1.8-0.6c-0.3-0.1-0.6-0.2-0.9-0.3
						c-0.2,0-0.3-0.1-0.5-0.2l-0.5-0.1c-1.3-0.3-2.5-0.6-3.8-0.8c-0.7-0.1-1.3-0.2-2-0.2s-1.4,0-2-0.1c-0.3,0-0.7,0-1,0
						s-0.7,0.1-1,0.1c-0.7,0.1-1.4,0.1-2.1,0.2c-1.4,0.3-2.8,0.4-4.2,0.9c-0.3,0.1-0.7,0.2-1,0.3c-0.2,0.1-0.4,0.1-0.5,0.2l-0.5,0.2
						c-0.7,0.3-1.4,0.5-2.1,0.8c-0.7,0.3-1.3,0.7-2,1c-0.3,0.2-0.7,0.3-1,0.5l-1,0.6c-1.3,0.8-2.5,1.7-3.7,2.7
						c-0.6,0.5-1.1,1.1-1.7,1.6l-0.4,0.4c-0.1,0.1-0.3,0.3-0.4,0.4l-0.8,0.9l-0.8,0.9l-0.7,1l-0.7,1l-0.3,0.5
						c-0.1,0.2-0.2,0.3-0.3,0.5c-0.4,0.7-0.8,1.4-1.2,2.1c-0.3,0.7-0.7,1.5-1,2.2c-1.2,3-2,6.2-2.3,9.6c-0.2,3.3,0.1,6.6,0.8,9.8
						c0.2,0.8,0.4,1.6,0.7,2.3c0.3,0.8,0.6,1.5,0.9,2.2l0.2,0.6l0.3,0.5l0.5,1.1l0.5,1.1l0.6,1l0.6,1l0.3,0.5l0.4,0.5
						c0.5,0.6,1,1.2,1.4,1.8c1.1,1.1,2.1,2.3,3.2,3.2l0.9,0.7c0.3,0.3,0.6,0.4,0.9,0.7c0.6,0.4,1.2,0.9,1.8,1.3
						c0.6,0.4,1.3,0.7,1.9,1.1l0.5,0.3c0.2,0.1,0.3,0.2,0.5,0.2c0.3,0.2,0.7,0.3,1,0.5c1.3,0.7,2.7,1,4,1.5c0.7,0.2,1.4,0.3,2,0.5
						c0.3,0.1,0.7,0.2,1,0.2c0.3,0.1,0.7,0.1,1,0.1c0.7,0.1,1.4,0.2,2,0.3c0.7,0.1,1.3,0,2,0.1c1.3,0.1,2.6-0.1,3.9-0.1h0.5
						c0.2,0,0.3-0.1,0.5-0.1c0.3-0.1,0.6-0.1,0.9-0.2c0.6-0.1,1.2-0.2,1.8-0.3c0.6-0.2,1.2-0.3,1.8-0.5c0.3-0.1,0.6-0.2,0.9-0.2
						c0.3-0.1,0.6-0.2,0.8-0.3c0.6-0.2,1.1-0.4,1.7-0.6c0.3-0.1,0.5-0.2,0.8-0.4c0.3-0.1,0.5-0.3,0.8-0.4c0.5-0.3,1-0.5,1.5-0.8
						s0.9-0.6,1.4-0.9c3.7-2.4,6.5-5.3,8.5-8.1c0.3-0.4,0.5-0.7,0.7-1c0.2-0.4,0.4-0.7,0.6-1.1c0.2-0.3,0.4-0.7,0.6-1
						c0.1-0.2,0.2-0.3,0.3-0.5c0.1-0.2,0.2-0.3,0.2-0.5c0.3-0.7,0.6-1.3,0.9-1.9c0.3-0.6,0.4-1.2,0.7-1.8c0.1-0.3,0.2-0.6,0.3-0.8
						c0.1-0.3,0.2-0.5,0.2-0.8c0.1-0.5,0.2-1,0.4-1.5c0.1-0.5,0.2-0.9,0.3-1.3c0.1-0.4,0.1-0.8,0.1-1.1c0.1-0.6,0.2-1.1,0.2-1.5
						C103.4,195.5,103.4,195.3,103.4,195.3s0,0.2,0,0.5s-0.1,0.8-0.2,1.5c0,0.3-0.1,0.7-0.1,1.1c-0.1,0.4-0.2,0.8-0.3,1.3
						c-0.1,0.5-0.2,1-0.3,1.5c-0.1,0.3-0.1,0.5-0.2,0.8s-0.2,0.6-0.3,0.8c-0.2,0.6-0.4,1.2-0.6,1.8c-0.3,0.6-0.6,1.3-0.9,2
						c-0.1,0.2-0.2,0.3-0.2,0.5c-0.1,0.2-0.2,0.3-0.3,0.5c-0.2,0.3-0.4,0.7-0.6,1c-0.2,0.4-0.4,0.7-0.6,1.1
						c-0.2,0.3-0.5,0.7-0.7,1.1c-2,2.9-4.8,5.8-8.5,8.2c-0.5,0.3-0.9,0.6-1.4,0.9c-0.5,0.3-1,0.5-1.5,0.8c-0.3,0.1-0.5,0.3-0.8,0.4
						c-0.3,0.1-0.5,0.3-0.8,0.4c-0.5,0.2-1.1,0.4-1.7,0.6c-0.3,0.1-0.6,0.2-0.8,0.3c-0.3,0.1-0.6,0.2-0.9,0.2
						c-0.6,0.2-1.2,0.3-1.8,0.5c-0.6,0.2-1.2,0.2-1.9,0.4c-0.3,0.1-0.6,0.1-0.9,0.2c-0.2,0-0.3,0.1-0.5,0.1h-0.5
						c-1.3,0.1-2.6,0.3-3.9,0.2c-0.7,0-1.3,0-2-0.1s-1.4-0.2-2-0.3c-0.3,0-0.7-0.1-1-0.1c-0.3-0.1-0.7-0.2-1-0.2
						c-0.7-0.2-1.4-0.3-2.1-0.5c-1.3-0.5-2.7-0.9-4-1.5c-0.3-0.2-0.7-0.3-1-0.5c-0.2-0.1-0.3-0.1-0.5-0.2l-0.5-0.3
						c-0.6-0.4-1.3-0.7-1.9-1.1c-0.6-0.4-1.2-0.9-1.8-1.3c-0.3-0.2-0.6-0.4-0.9-0.7l-0.9-0.8c-1.2-1-2.2-2.1-3.3-3.3
						c-0.5-0.6-1-1.2-1.4-1.9l-0.4-0.5l-0.3-0.5l-0.6-1l-0.6-1l-0.5-1.1L45,206l-0.3-0.5L44,205c-0.3-0.8-0.6-1.5-0.9-2.3
						c-0.2-0.8-0.4-1.6-0.7-2.4c-0.8-3.2-1.1-6.5-0.8-9.9s1.1-6.6,2.4-9.6c0.3-0.7,0.7-1.5,1-2.2c0.4-0.7,0.8-1.4,1.2-2.1
						c0.1-0.2,0.2-0.4,0.3-0.5l0.4-0.5l0.7-1l0.7-1l0.8-0.9l0.8-0.9c0.1-0.1,0.3-0.3,0.4-0.4l0.4-0.4c0.6-0.5,1.1-1.1,1.7-1.6
						c1.2-0.9,2.4-1.9,3.7-2.7l1-0.6c0.3-0.2,0.7-0.4,1-0.5c0.7-0.3,1.3-0.7,2-1s1.4-0.5,2.1-0.8l0.5-0.2c0.2-0.1,0.4-0.1,0.5-0.2
						c0.4-0.1,0.7-0.2,1.1-0.3c1.4-0.5,2.8-0.6,4.2-0.9c0.7-0.1,1.4-0.1,2.1-0.2c0.3,0,0.7-0.1,1-0.1s0.7,0,1,0c0.7,0,1.4,0,2.1,0.1
						c0.7,0,1.3,0.2,2,0.2c1.3,0.1,2.6,0.5,3.9,0.8l0.5,0.1c0.2,0,0.3,0.1,0.5,0.2c0.3,0.1,0.6,0.2,0.9,0.3c0.6,0.2,1.2,0.4,1.8,0.6
						c0.6,0.3,1.1,0.5,1.7,0.8c0.3,0.1,0.6,0.3,0.8,0.4c0.3,0.1,0.5,0.3,0.8,0.5c0.5,0.3,1,0.6,1.5,0.9c0.3,0.1,0.5,0.3,0.7,0.5
						s0.5,0.3,0.7,0.5c0.5,0.3,0.9,0.7,1.4,1c0.4,0.4,0.8,0.7,1.3,1.1c3.3,2.9,5.6,6.3,7.1,9.4c1.5,3.1,2.4,6.1,2.7,8.5
						c0.1,0.3,0.1,0.6,0.2,0.9c0.1,0.3,0.1,0.6,0.1,0.8c0,0.5,0.1,1.1,0.1,1.5c0,0.5,0.1,0.9,0.1,1.3c0,0.4,0,0.8,0,1.1
						c0,0.6,0,1.1-0.1,1.5C103.4,195.2,103.4,195.3,103.4,195.3z"/>
				</g>
			</g>
		</g>
	</g>
	<path class="st1" d="M52.9,197.7c0.6,0.1,1.3,0.3,1.9,0.4l1.9,0.5c1.2,0.4,2.4,0.8,3.6,1.2c1.2,0.4,2.4,0.9,3.5,1.4
		c0.6,0.2,1.2,0.5,1.7,0.7c0.6,0.3,1.1,0.5,1.7,0.8l-3.9,0.6c1.8-2.4,3.7-4.7,5.7-7c1-1.1,2-2.2,3-3.3s2.1-2.1,3.2-3.2
		c2.2-2.1,4.4-4.1,6.8-6c0.6-0.5,1.2-0.9,1.8-1.4c0.6-0.5,1.2-0.9,1.9-1.3c0.6-0.5,1.3-0.9,1.9-1.3c0.3-0.2,0.7-0.4,1-0.6
		c0.3-0.2,0.7-0.4,1-0.6l0.3,0.3c-2,2.2-3.9,4.5-6,6.7l-6,6.7c-2,2.2-4,4.5-6,6.7l-6.1,6.6l-0.2,0.2l-0.2-0.1l-6.4-3.8
		c-1.1-0.6-2.1-1.3-3.2-1.9l-3.2-1.9L52.9,197.7z"/>
</g>
<g id="Sreen">
</g>
<g id="Plant">
	<g>
		<g>
			<g>
				<g>
					<g>
						<g>
							<g>
								<path class="st6" d="M440.4,445c0,0,0-0.1-0.2-0.4c-0.1-0.3-0.3-0.7-0.5-1.2c-0.5-1-1.1-2.6-1.6-4.7
									c-1.1-4.2-1.4-10.5,0.1-18.1c0.7-3.8,1.9-7.9,3.4-12.2c1.4-4.3,3.1-8.9,4.4-13.8s2.4-10.3,2.2-15.9
									c-0.2-5.6-1.9-11.3-3.7-16.8c-1.8-5.6-3.7-11.1-4.3-16.6c-0.6-5.5,0.5-10.9,3-15.3c2.4-4.5,5.5-8.3,7.8-12.3
									c2.3-3.9,3.8-8,4.7-11.8c1.7-7.6,1.1-14,0.3-18.3c-0.9-4.3-1.9-6.4-1.9-6.4s0,0.1,0.1,0.4s0.2,0.7,0.4,1.2
									c0.3,1.1,0.8,2.7,1.2,4.8c0.8,4.2,1.3,10.6-0.5,18.1c-0.9,3.7-2.4,7.7-4.7,11.6c-2.3,3.9-5.3,7.7-7.8,12.2
									c-2.6,4.5-3.8,10-3.1,15.6c0.6,5.6,2.5,11.1,4.3,16.7s3.5,11.2,3.7,16.7s-0.8,10.8-2.1,15.8c-1.3,4.9-3,9.5-4.4,13.8
									s-2.6,8.4-3.3,12.2c-1.5,7.6-1.1,14.1,0,18.2c0.6,2.1,1.2,3.7,1.7,4.7c0.3,0.5,0.5,0.9,0.6,1.1
									C440.3,444.8,440.4,445,440.4,445z"/>
							</g>
						</g>
					</g>
				</g>
			</g>
			<g>
				<g>
					<g>
						<g>
							<g>
								<path class="st1" d="M447.9,321.5c0,0,4.6-14.8-3.7-23.5c-0.3-0.3-0.8-0.2-0.9,0.3C442.9,300.7,442.3,308.2,447.9,321.5z"/>
							</g>
						</g>
					</g>
				</g>
				<g>
					<g>
						<g>
							<g>
								<g>
									<path class="st6" d="M445.1,303c-0.1,0,0.1,1.1,0.3,2.7c0.3,1.9,0.7,4.1,1.1,6.5s0.7,4.7,1,6.5c0.3,1.7,0.4,2.7,0.5,2.7
										s0.1-1.1-0.1-2.8c-0.2-1.7-0.5-4-0.9-6.6s-0.9-4.9-1.2-6.5C445.5,304,445.2,302.9,445.1,303z"/>
								</g>
							</g>
						</g>
					</g>
				</g>
			</g>
			<g>
				<g>
					<g>
						<g>
							<g>
								<path class="st1" d="M442.5,356.5c0,0-2.8-15.3-14.3-19.1c-0.4-0.1-0.8,0.2-0.7,0.6C428.3,340.5,431.3,347.3,442.5,356.5z"
									/>
							</g>
						</g>
					</g>
				</g>
				<g>
					<g>
						<g>
							<g>
								<g>
									<path class="st6" d="M431.3,341.4c-0.1,0.1,0.5,0.9,1.6,2.3c1.2,1.5,2.5,3.3,4,5.3s2.8,3.8,4,5.3c1,1.4,1.6,2.2,1.7,2.2
										s-0.4-1-1.4-2.4c-0.9-1.4-2.3-3.3-3.9-5.4s-3-3.9-4.1-5.2C432.1,342.1,431.4,341.4,431.3,341.4z"/>
								</g>
							</g>
						</g>
					</g>
				</g>
			</g>
			<g>
				<g>
					<g>
						<g>
							<g>
								<path class="st1" d="M445.5,394.9c0,0,1.7-15.5-8.1-22.4c-0.3-0.2-0.8,0-0.8,0.4C436.7,375.4,437.5,382.8,445.5,394.9z"/>
							</g>
						</g>
					</g>
				</g>
				<g>
					<g>
						<g>
							<g>
								<g>
									<path class="st6" d="M439.3,377.2c-0.1,0,0.3,1,0.8,2.6c0.7,1.8,1.4,3.9,2.3,6.2c0.8,2.3,1.6,4.4,2.3,6.2
										c0.6,1.6,0.9,2.6,1,2.6s-0.1-1.1-0.6-2.7s-1.2-3.9-2.1-6.3s-1.8-4.6-2.5-6.2C439.8,378.1,439.3,377.1,439.3,377.2z"/>
								</g>
							</g>
						</g>
					</g>
				</g>
			</g>
			<g>
				<g>
					<g>
						<g>
							<g>
								<path class="st1" d="M436.9,433.5c0,0,1.2-15.5-8.9-22.1c-0.4-0.2-0.8,0-0.8,0.4C427.4,414.3,428.5,421.7,436.9,433.5z"/>
							</g>
						</g>
					</g>
				</g>
				<g>
					<g>
						<g>
							<g>
								<g>
									<path class="st6" d="M430,416c-0.1,0,0.3,1,0.9,2.6c0.7,1.8,1.6,3.8,2.5,6.1c0.9,2.3,1.8,4.4,2.5,6.1
										c0.6,1.6,1,2.6,1.1,2.5c0.1,0-0.2-1-0.7-2.7c-0.5-1.6-1.4-3.8-2.3-6.2c-1-2.4-1.9-4.5-2.7-6.1
										C430.6,416.9,430.1,415.9,430,416z"/>
								</g>
							</g>
						</g>
					</g>
				</g>
			</g>
			<g>
				<g>
					<g>
						<g>
							<g>
								<path class="st1" d="M454.6,308.5c0,0,13.8-7.2,14.1-19.2c0-0.4-0.5-0.7-0.8-0.4C465.8,290.2,460.1,295.1,454.6,308.5z"/>
							</g>
						</g>
					</g>
				</g>
				<g>
					<g>
						<g>
							<g>
								<g>
									<path class="st6" d="M465.8,293.4c-0.1,0-0.7,0.8-1.7,2.2c-1.1,1.5-2.4,3.4-3.9,5.4s-2.8,3.8-3.9,5.4
										c-1,1.4-1.6,2.2-1.6,2.3c0.1,0,0.8-0.7,1.9-2s2.5-3.2,4-5.3c1.5-2.1,2.8-4,3.8-5.5C465.3,294.4,465.8,293.5,465.8,293.4z"
										/>
								</g>
							</g>
						</g>
					</g>
				</g>
			</g>
			<g>
				<g>
					<g>
						<g>
							<g>
								<path class="st1" d="M439.8,340.4c0,0,14.2-6.3,15.2-18.3c0-0.4-0.4-0.7-0.8-0.5C452.1,322.8,446.1,327.4,439.8,340.4z"/>
							</g>
						</g>
					</g>
				</g>
				<g>
					<g>
						<g>
							<g>
								<g>
									<path class="st6" d="M451.9,326c-0.1,0-0.8,0.7-1.8,2c-1.2,1.5-2.6,3.2-4.2,5.1s-3,3.6-4.2,5.1c-1.1,1.3-1.8,2.1-1.7,2.2
										c0.1,0.1,0.8-0.7,2-1.9c1.2-1.2,2.7-3,4.4-5c1.6-2,3.1-3.9,4.1-5.2C451.3,326.9,451.9,326,451.9,326z"/>
								</g>
							</g>
						</g>
					</g>
				</g>
			</g>
			<g>
				<g>
					<g>
						<g>
							<g>
								<path class="st1" d="M447.9,375.9c0,0,9.7-12.1,5.2-23.2c-0.2-0.4-0.7-0.4-0.9-0.1C450.9,354.7,447.6,361.4,447.9,375.9z"/>
							</g>
						</g>
					</g>
				</g>
				<g>
					<g>
						<g>
							<g>
								<g>
									<path class="st6" d="M452.2,357.6c-0.1,0-0.3,1-0.7,2.7c-0.4,1.9-0.9,4.1-1.4,6.5s-1,4.6-1.4,6.5c-0.4,1.7-0.6,2.7-0.5,2.7
										s0.5-1,0.9-2.6c0.5-1.6,1.1-3.9,1.6-6.5c0.5-2.5,1-4.8,1.2-6.5C452.1,358.7,452.2,357.6,452.2,357.6z"/>
								</g>
							</g>
						</g>
					</g>
				</g>
			</g>
			<g>
				<g>
					<g>
						<g>
							<g>
								<path class="st1" d="M438.3,417.7c0,0,14.1-6.6,14.9-18.6c0-0.4-0.4-0.7-0.8-0.5C450.3,400,444.4,404.6,438.3,417.7z"/>
							</g>
						</g>
					</g>
				</g>
				<g>
					<g>
						<g>
							<g>
								<g>
									<path class="st6" d="M450.1,403.2c-0.1,0-0.7,0.8-1.8,2.1c-1.2,1.5-2.6,3.3-4.1,5.2c-1.5,1.9-2.9,3.7-4.1,5.2
										c-1.1,1.3-1.7,2.1-1.7,2.2c0.1,0.1,0.8-0.7,2-1.9c1.1-1.3,2.7-3.1,4.3-5.1c1.6-2,3-3.9,4-5.3
										C449.6,404.1,450.2,403.2,450.1,403.2z"/>
								</g>
							</g>
						</g>
					</g>
				</g>
			</g>
			<g>
				<g>
					<g>
						<g>
							<g>
								<g>
									<path class="st6" d="M410.2,356.6c0,0,0,0.1,0,0.3c0,0.3,0,0.6,0,1c0,0.9,0.1,2.2,0.2,3.8c0.2,3.3,0.4,7.9,0.7,13.5l0,0
										l0,0c1,5.6,3.9,11.9,7.7,17.9c2.8,4.5,5.8,8.5,8.3,12.3c2.6,3.8,4.7,7.2,6.2,10.3c1.5,3.1,2.4,5.7,2.9,7.6
										c0.2,0.9,0.4,1.7,0.5,2.1c0.1,0.5,0.2,0.8,0.2,0.7c0,0,0-0.3-0.1-0.8s-0.2-1.2-0.4-2.2c-0.5-1.9-1.3-4.6-2.8-7.7
										s-3.6-6.7-6.2-10.4c-2.5-3.8-5.5-7.9-8.3-12.3c-3.8-6-6.7-12.2-7.7-17.7l0,0c-0.4-5.5-0.7-10.1-0.9-13.4
										c-0.1-1.6-0.2-2.8-0.3-3.8c0-0.4-0.1-0.7-0.1-1C410.3,356.7,410.3,356.6,410.2,356.6z"/>
								</g>
							</g>
						</g>
					</g>
				</g>
				<g>
					<g>
						<g>
							<g>
								<g>
									<path class="st1" d="M418.6,392c0,0-6-14.4,1.5-23.8c0.3-0.3,0.8-0.2,0.9,0.2C421.7,370.8,423,378.2,418.6,392z"/>
								</g>
							</g>
						</g>
					</g>
					<g>
						<g>
							<g>
								<g>
									<g>
										<path class="st6" d="M419.7,373.2c-0.1,0-0.3,1-0.5,2.7s-0.4,4-0.6,6.6s-0.3,4.9-0.3,6.6s0.1,2.8,0.2,2.8s0.1-1,0.2-2.7
											c0.1-1.9,0.3-4.1,0.4-6.6c0.2-2.5,0.3-4.7,0.5-6.6C419.8,374.3,419.8,373.2,419.7,373.2z"/>
									</g>
								</g>
							</g>
						</g>
					</g>
					<g class="st7">
						<g>
							<g>
								<g>
									<path d="M418.6,392c0,0-6-14.4,1.5-23.8c0.3-0.3,0.8-0.2,0.9,0.2C421.7,370.8,423,378.2,418.6,392z"/>
								</g>
							</g>
						</g>
					</g>
				</g>
				<g>
					<g>
						<g>
							<g>
								<g>
									<path class="st1" d="M437.1,426.6c0,0-4.8-14.8,3.5-23.6c0.3-0.3,0.8-0.2,0.9,0.2C441.9,405.7,442.5,413.2,437.1,426.6z"/>
								</g>
							</g>
						</g>
					</g>
					<g>
						<g>
							<g>
								<g>
									<g>
										<path class="st6" d="M439.7,408c-0.1,0-0.3,1-0.7,2.7c-0.3,1.7-0.8,4-1.2,6.5c-0.4,2.6-0.7,4.9-0.8,6.6
											c-0.1,1.7-0.1,2.8-0.1,2.8c0.1,0,0.2-1,0.5-2.7c0.3-1.9,0.6-4.1,1-6.6c0.4-2.4,0.7-4.7,1-6.6
											C439.7,409,439.8,408,439.7,408z"/>
									</g>
								</g>
							</g>
						</g>
					</g>
					<g class="st7">
						<g>
							<g>
								<g>
									<path d="M437.1,426.6c0,0-4.8-14.8,3.5-23.6c0.3-0.3,0.8-0.2,0.9,0.2C441.9,405.7,442.5,413.2,437.1,426.6z"/>
								</g>
							</g>
						</g>
					</g>
				</g>
				<g>
					<g>
						<g>
							<g>
								<g>
									<path class="st1" d="M411,374.4c0,0-12.7-8.9-11.5-20.9c0-0.4,0.5-0.6,0.9-0.3C402.3,354.9,407.3,360.5,411,374.4z"/>
								</g>
							</g>
						</g>
					</g>
					<g class="st7">
						<g>
							<g>
								<g>
									<path d="M411,374.4c0,0-12.7-8.9-11.5-20.9c0-0.4,0.5-0.6,0.9-0.3C402.3,354.9,407.3,360.5,411,374.4z"/>
								</g>
							</g>
						</g>
					</g>
					<g>
						<g>
							<g>
								<g>
									<g>
										<path class="st6" d="M401.9,358c-0.1,0,0.3,1,1.1,2.5c0.7,1.5,1.8,3.6,3,5.9s2.4,4.3,3.3,5.8c0.9,1.4,1.6,2.3,1.6,2.2
											c0.1,0-0.4-1-1.3-2.4c-0.9-1.7-2-3.6-3.2-5.8c-1.2-2.2-2.2-4.1-3.2-5.8C402.5,358.9,402,358,401.9,358z"/>
									</g>
								</g>
							</g>
						</g>
					</g>
				</g>
				<g>
					<g>
						<g>
							<g>
								<g>
									<path class="st1" d="M432,411.9c0,0-15.4-2.4-19.5-13.7c-0.1-0.4,0.2-0.8,0.6-0.7C415.5,398.2,422.4,401,432,411.9z"/>
								</g>
							</g>
						</g>
					</g>
					<g class="st7">
						<g>
							<g>
								<g>
									<path d="M432,411.9c0,0-15.4-2.4-19.5-13.7c-0.1-0.4,0.2-0.8,0.6-0.7C415.5,398.2,422.4,401,432,411.9z"/>
								</g>
							</g>
						</g>
					</g>
					<g>
						<g>
							<g>
								<g>
									<g>
										<path class="st6" d="M416.5,401.2c0,0.1,0.7,0.8,2.1,1.8c1.3,1.1,3.2,2.5,5.3,4c2.1,1.5,4.1,2.8,5.5,3.7
											c1.5,0.9,2.4,1.4,2.4,1.3s-0.8-0.7-2.2-1.6c-1.6-1.1-3.4-2.4-5.4-3.8s-3.8-2.7-5.4-3.8
											C417.4,401.7,416.6,401.1,416.5,401.2z"/>
									</g>
								</g>
							</g>
						</g>
					</g>
				</g>
			</g>
		</g>
		<g>
			<g>
				<g>
					<g>
						<polygon class="st11" points="450.1,440.2 445.7,469.1 428.1,469.1 422.2,440.2 						"/>
					</g>
				</g>
			</g>
		</g>
	</g>
	<g>
		<g>
			<path class="st6" d="M434.1,449.5c0.5-0.7,0.8-1.5,0.8-2.4c0.1-0.9-0.3-2-1.2-2.5c-0.9-0.5-2.1-0.3-2.9,0.2
				c-0.9,0.6-1.4,1.6-1.7,2.7c-0.3,1.1-0.3,2.2-0.2,3.3c0.1,1.1,0.3,2.3,0.7,3.3c0.4,1.1,1.1,2.1,2,2.9s2.1,1.4,3.4,1.4
				c1.3,0.1,2.5-0.4,3.5-1s1.9-1.5,2.6-2.4s1.3-2,1.3-3.2c0.1-1.1-0.3-2.3-1.2-3.1c-0.9-0.7-2.2-0.7-3.1-0.2s-1.6,1.4-1.8,2.4
				c-0.3,2,0.8,3.8,2.2,4.6c1.4,0.8,3,0.8,4.2,0.6c1.3-0.2,2.3-0.7,3-1.2c0.8-0.5,1.3-0.9,1.7-1.1c0.4-0.3,0.6-0.4,0.5-0.5
				c0,0-0.2,0.1-0.6,0.4s-1,0.6-1.7,1.1c-0.8,0.4-1.8,0.9-3,1.1s-2.7,0.1-4-0.6c-1.3-0.8-2.3-2.4-2-4.2c0.2-0.9,0.8-1.6,1.6-2.1
				c0.8-0.4,1.9-0.5,2.6,0.2c0.8,0.6,1.1,1.7,1.1,2.7c-0.1,1-0.6,2-1.2,2.9c-0.7,0.9-1.5,1.7-2.5,2.3c-1,0.6-2.1,1-3.2,0.9
				s-2.2-0.6-3.1-1.3c-0.9-0.7-1.5-1.7-1.9-2.7s-0.6-2.1-0.7-3.2s0-2.1,0.2-3.1s0.7-1.9,1.5-2.4s1.8-0.7,2.5-0.2
				c0.8,0.4,1.1,1.3,1,2.1c0,0.8-0.3,1.6-0.7,2.2c-0.9,1.3-2.1,2.1-3.3,2.5c-1.2,0.4-2.3,0.5-3.1,0.4c-1.8-0.2-2.6-0.8-2.6-0.8
				s0,0,0.1,0.1s0.3,0.2,0.5,0.3c0.4,0.2,1.1,0.5,2,0.6s2,0.1,3.2-0.3C431.8,451.6,433.1,450.8,434.1,449.5"/>
		</g>
	</g>
</g>
</svg>
